<svg width="343" height="67" viewBox="0 0 343 67" fill="none" xmlns="http://www.w3.org/2000/svg">
<path d="M8 0.821289H335C338.964 0.821289 342.179 4.03553 342.179 8V59C342.179 62.9645 338.964 66.1787 335 66.1787H8C4.03553 66.1787 0.821289 62.9645 0.821289 59V8C0.82129 4.03553 4.03553 0.821289 8 0.821289Z" fill="#CDF8F6"/>
<path d="M8 0.821289H335C338.964 0.821289 342.179 4.03553 342.179 8V59C342.179 62.9645 338.964 66.1787 335 66.1787H8C4.03553 66.1787 0.821289 62.9645 0.821289 59V8C0.82129 4.03553 4.03553 0.821289 8 0.821289Z" stroke="#00F2EA" stroke-width="1.64339"/>
<path d="M110.917 33.042C110.917 32.6773 111.062 32.3276 111.32 32.0697C111.578 31.8119 111.927 31.667 112.292 31.667C112.657 31.667 113.006 31.8119 113.264 32.0697C113.522 32.3276 113.667 32.6773 113.667 33.042C113.667 33.4067 113.522 33.7564 113.264 34.0143C113.006 34.2721 112.657 34.417 112.292 34.417C111.927 34.417 111.578 34.2721 111.32 34.0143C111.062 33.7564 110.917 33.4067 110.917 33.042ZM109.208 34.5114C109.147 34.4125 109.061 34.331 108.959 34.2745C108.857 34.2179 108.742 34.1883 108.625 34.1883C108.509 34.1883 108.394 34.2179 108.292 34.2745C108.19 34.331 108.104 34.4125 108.042 34.5114L105.751 38.1781C105.686 38.2821 105.65 38.4017 105.647 38.5243C105.644 38.6469 105.673 38.7681 105.733 38.8754C105.792 38.9826 105.879 39.072 105.985 39.1343C106.091 39.1966 106.211 39.2294 106.334 39.2295H113.667C113.795 39.2295 113.92 39.1939 114.028 39.1268C114.137 39.0597 114.225 38.9637 114.282 38.8495C114.339 38.7353 114.363 38.6074 114.352 38.4803C114.34 38.3531 114.294 38.2316 114.217 38.1295L112.842 36.2962C112.778 36.2108 112.695 36.1415 112.599 36.0937C112.504 36.046 112.399 36.0212 112.292 36.0212C112.185 36.0212 112.08 36.046 111.985 36.0937C111.889 36.1415 111.806 36.2108 111.742 36.2962L110.968 37.3274L109.208 34.5114Z" fill="#01928D"/>
<path fill-rule="evenodd" clip-rule="evenodd" d="M105.417 24.5625C104.749 24.5625 104.108 24.8281 103.635 25.3008C103.162 25.7736 102.896 26.4148 102.896 27.0833V39.9167C102.896 40.5852 103.162 41.2264 103.635 41.6992C104.108 42.1719 104.749 42.4375 105.417 42.4375H114.584C115.253 42.4375 115.894 42.1719 116.366 41.6992C116.839 41.2264 117.105 40.5852 117.105 39.9167V29.804C117.105 29.4548 116.991 29.1156 116.78 28.8369L114.032 25.1996C113.883 25.0017 113.689 24.8412 113.467 24.7306C113.245 24.6201 113.001 24.5625 112.752 24.5625H105.417ZM104.271 27.0833C104.271 26.4508 104.785 25.9375 105.417 25.9375H112.063V29.9681C112.063 30.3476 112.371 30.6556 112.751 30.6556H115.73V39.9167C115.73 40.5492 115.216 41.0625 114.584 41.0625H105.417C104.785 41.0625 104.271 40.5492 104.271 39.9167V27.0833Z" fill="#01928D"/>
<path opacity="0.9" d="M136.895 38.255C135.885 38.255 134.99 38.025 134.21 37.565C133.44 37.095 132.84 36.445 132.41 35.615C131.98 34.785 131.765 33.82 131.765 32.72C131.765 31.88 131.885 31.125 132.125 30.455C132.375 29.775 132.725 29.19 133.175 28.7C133.635 28.21 134.175 27.835 134.795 27.575C135.425 27.315 136.125 27.185 136.895 27.185C137.695 27.185 138.395 27.3 138.995 27.53C139.605 27.75 140.115 28.085 140.525 28.535C140.945 28.985 141.255 29.535 141.455 30.185L139.265 30.92C139.075 30.32 138.775 29.875 138.365 29.585C137.965 29.285 137.46 29.135 136.85 29.135C136.31 29.135 135.84 29.28 135.44 29.57C135.05 29.86 134.75 30.275 134.54 30.815C134.33 31.345 134.225 31.98 134.225 32.72C134.225 33.45 134.33 34.085 134.54 34.625C134.75 35.165 135.055 35.58 135.455 35.87C135.855 36.15 136.325 36.29 136.865 36.29C137.475 36.29 137.98 36.14 138.38 35.84C138.79 35.53 139.09 35.07 139.28 34.46L141.485 35.09C141.295 35.77 140.99 36.35 140.57 36.83C140.16 37.3 139.645 37.655 139.025 37.895C138.415 38.135 137.705 38.255 136.895 38.255ZM143.079 38V27.095H145.299V38H143.079ZM147.313 38V30.02H149.533V38H147.313ZM148.453 29.06C148.083 29.06 147.778 28.935 147.538 28.685C147.298 28.435 147.178 28.135 147.178 27.785C147.178 27.445 147.298 27.155 147.538 26.915C147.778 26.675 148.083 26.555 148.453 26.555C148.823 26.555 149.123 26.675 149.353 26.915C149.583 27.155 149.698 27.445 149.698 27.785C149.698 28.135 149.583 28.435 149.353 28.685C149.123 28.935 148.823 29.06 148.453 29.06ZM155.116 38.18C154.346 38.18 153.661 38.01 153.061 37.67C152.471 37.33 152.001 36.845 151.651 36.215C151.311 35.585 151.141 34.85 151.141 34.01C151.141 33.16 151.311 32.425 151.651 31.805C152.001 31.175 152.471 30.69 153.061 30.35C153.661 30.01 154.341 29.84 155.101 29.84C156.021 29.84 156.776 30.03 157.366 30.41C157.966 30.79 158.391 31.355 158.641 32.105L156.691 32.735C156.551 32.315 156.346 32.01 156.076 31.82C155.816 31.63 155.501 31.535 155.131 31.535C154.801 31.535 154.506 31.625 154.246 31.805C153.986 31.985 153.776 32.26 153.616 32.63C153.466 33 153.391 33.46 153.391 34.01C153.391 34.55 153.466 35.01 153.616 35.39C153.776 35.76 153.986 36.035 154.246 36.215C154.506 36.395 154.801 36.485 155.131 36.485C155.521 36.485 155.846 36.385 156.106 36.185C156.366 35.985 156.566 35.67 156.706 35.24L158.641 35.87C158.401 36.62 157.981 37.195 157.381 37.595C156.791 37.985 156.036 38.18 155.116 38.18ZM161.559 36.14V33.095H162.249L165.024 30.02H167.514L164.064 33.83L163.479 34.04L161.559 36.14ZM159.969 38V27.095H162.189V38H159.969ZM165.189 38L162.774 33.83L163.959 31.985L167.604 38H165.189ZM175.82 38.15C175.04 38.15 174.445 37.96 174.035 37.58C173.625 37.19 173.42 36.625 173.42 35.885V28.415L175.625 27.47V35.54C175.625 35.83 175.695 36.045 175.835 36.185C175.975 36.325 176.175 36.395 176.435 36.395C176.535 36.395 176.64 36.39 176.75 36.38C176.86 36.36 176.98 36.33 177.11 36.29V37.925C176.89 38.005 176.675 38.06 176.465 38.09C176.255 38.13 176.04 38.15 175.82 38.15ZM172.13 31.595V30.02H177.14V31.595H172.13ZM182.366 38.18C181.546 38.18 180.826 38.005 180.206 37.655C179.586 37.305 179.101 36.82 178.751 36.2C178.411 35.57 178.241 34.84 178.241 34.01C178.241 33.18 178.411 32.455 178.751 31.835C179.101 31.205 179.586 30.715 180.206 30.365C180.826 30.015 181.546 29.84 182.366 29.84C183.196 29.84 183.921 30.015 184.541 30.365C185.161 30.715 185.641 31.205 185.981 31.835C186.321 32.455 186.491 33.18 186.491 34.01C186.491 34.84 186.321 35.57 185.981 36.2C185.641 36.82 185.161 37.305 184.541 37.655C183.921 38.005 183.196 38.18 182.366 38.18ZM182.381 36.485C182.741 36.485 183.056 36.4 183.326 36.23C183.606 36.05 183.821 35.775 183.971 35.405C184.131 35.035 184.211 34.575 184.211 34.025C184.211 33.455 184.131 32.985 183.971 32.615C183.821 32.245 183.606 31.975 183.326 31.805C183.056 31.625 182.741 31.535 182.381 31.535C182.011 31.535 181.686 31.625 181.406 31.805C181.136 31.975 180.921 32.245 180.761 32.615C180.601 32.985 180.521 33.455 180.521 34.025C180.521 34.575 180.596 35.035 180.746 35.405C180.906 35.775 181.126 36.05 181.406 36.23C181.686 36.4 182.011 36.485 182.381 36.485ZM196.388 38.255C195.488 38.255 194.713 38.085 194.063 37.745C193.423 37.405 192.933 36.93 192.593 36.32C192.253 35.71 192.083 34.995 192.083 34.175V27.425H194.378V34.055C194.378 34.525 194.458 34.93 194.618 35.27C194.778 35.6 195.008 35.855 195.308 36.035C195.618 36.205 195.978 36.29 196.388 36.29C196.818 36.29 197.178 36.205 197.468 36.035C197.758 35.855 197.983 35.6 198.143 35.27C198.303 34.93 198.383 34.525 198.383 34.055V27.425H200.693V34.175C200.693 34.995 200.518 35.71 200.168 36.32C199.828 36.93 199.338 37.405 198.698 37.745C198.058 38.085 197.288 38.255 196.388 38.255ZM202.889 41V30.02H204.974V31.22H205.049C205.179 30.94 205.364 30.7 205.604 30.5C205.844 30.29 206.119 30.13 206.429 30.02C206.749 29.9 207.099 29.84 207.479 29.84C208.139 29.84 208.719 30.01 209.219 30.35C209.729 30.69 210.129 31.175 210.419 31.805C210.709 32.425 210.854 33.16 210.854 34.01C210.854 34.86 210.709 35.6 210.419 36.23C210.139 36.85 209.744 37.33 209.234 37.67C208.734 38.01 208.154 38.18 207.494 38.18C207.144 38.18 206.814 38.12 206.504 38C206.204 37.89 205.939 37.735 205.709 37.535C205.489 37.325 205.309 37.085 205.169 36.815H205.109V41H202.889ZM206.789 36.485C207.159 36.485 207.474 36.39 207.734 36.2C208.004 36 208.209 35.715 208.349 35.345C208.499 34.975 208.574 34.53 208.574 34.01C208.574 33.49 208.499 33.05 208.349 32.69C208.209 32.32 208.004 32.035 207.734 31.835C207.474 31.635 207.159 31.535 206.789 31.535C206.419 31.535 206.099 31.635 205.829 31.835C205.559 32.035 205.349 32.32 205.199 32.69C205.049 33.05 204.974 33.49 204.974 34.01C204.974 34.51 205.049 34.95 205.199 35.33C205.349 35.7 205.559 35.985 205.829 36.185C206.099 36.385 206.419 36.485 206.789 36.485ZM212.454 38V27.095H214.674V38H212.454ZM220.408 38.18C219.588 38.18 218.868 38.005 218.248 37.655C217.628 37.305 217.143 36.82 216.793 36.2C216.453 35.57 216.283 34.84 216.283 34.01C216.283 33.18 216.453 32.455 216.793 31.835C217.143 31.205 217.628 30.715 218.248 30.365C218.868 30.015 219.588 29.84 220.408 29.84C221.238 29.84 221.963 30.015 222.583 30.365C223.203 30.715 223.683 31.205 224.023 31.835C224.363 32.455 224.533 33.18 224.533 34.01C224.533 34.84 224.363 35.57 224.023 36.2C223.683 36.82 223.203 37.305 222.583 37.655C221.963 38.005 221.238 38.18 220.408 38.18ZM220.423 36.485C220.783 36.485 221.098 36.4 221.368 36.23C221.648 36.05 221.863 35.775 222.013 35.405C222.173 35.035 222.253 34.575 222.253 34.025C222.253 33.455 222.173 32.985 222.013 32.615C221.863 32.245 221.648 31.975 221.368 31.805C221.098 31.625 220.783 31.535 220.423 31.535C220.053 31.535 219.728 31.625 219.448 31.805C219.178 31.975 218.963 32.245 218.803 32.615C218.643 32.985 218.563 33.455 218.563 34.025C218.563 34.575 218.638 35.035 218.788 35.405C218.948 35.775 219.168 36.05 219.448 36.23C219.728 36.4 220.053 36.485 220.423 36.485ZM228.431 38.18C227.631 38.18 226.986 37.965 226.496 37.535C226.016 37.105 225.776 36.545 225.776 35.855C225.776 35.185 226.006 34.635 226.466 34.205C226.926 33.765 227.646 33.47 228.626 33.32L231.341 32.9V34.16L229.226 34.52C228.796 34.59 228.471 34.72 228.251 34.91C228.031 35.09 227.921 35.35 227.921 35.69C227.921 35.99 228.021 36.23 228.221 36.41C228.431 36.59 228.716 36.68 229.076 36.68C229.396 36.68 229.671 36.61 229.901 36.47C230.131 36.33 230.311 36.13 230.441 35.87C230.571 35.6 230.636 35.285 230.636 34.925V32.66C230.636 32.28 230.531 31.98 230.321 31.76C230.111 31.54 229.796 31.43 229.376 31.43C229.026 31.43 228.736 31.515 228.506 31.685C228.276 31.855 228.116 32.115 228.026 32.465L226.001 32.06C226.201 31.34 226.611 30.79 227.231 30.41C227.861 30.03 228.606 29.84 229.466 29.84C230.606 29.84 231.451 30.11 232.001 30.65C232.551 31.18 232.826 31.91 232.826 32.84V36.5L233.381 38H231.116L230.771 36.965H230.681C230.461 37.355 230.156 37.655 229.766 37.865C229.386 38.075 228.941 38.18 228.431 38.18ZM237.851 38.18C237.191 38.18 236.606 38.01 236.096 37.67C235.586 37.33 235.186 36.85 234.896 36.23C234.606 35.6 234.461 34.86 234.461 34.01C234.461 33.15 234.606 32.41 234.896 31.79C235.186 31.17 235.581 30.69 236.081 30.35C236.591 30.01 237.171 29.84 237.821 29.84C238.181 29.84 238.511 29.9 238.811 30.02C239.111 30.13 239.371 30.29 239.591 30.5C239.821 30.7 240.006 30.935 240.146 31.205H240.206V27.095H242.426V38H240.326V36.8H240.266C240.136 37.07 239.951 37.31 239.711 37.52C239.471 37.73 239.191 37.89 238.871 38C238.561 38.12 238.221 38.18 237.851 38.18ZM238.526 36.485C238.906 36.485 239.231 36.385 239.501 36.185C239.771 35.985 239.976 35.7 240.116 35.33C240.256 34.96 240.326 34.52 240.326 34.01C240.326 33.5 240.251 33.06 240.101 32.69C239.961 32.32 239.756 32.035 239.486 31.835C239.216 31.635 238.896 31.535 238.526 31.535C238.156 31.535 237.836 31.635 237.566 31.835C237.306 32.025 237.101 32.305 236.951 32.675C236.811 33.045 236.741 33.49 236.741 34.01C236.741 34.52 236.811 34.96 236.951 35.33C237.101 35.7 237.306 35.985 237.566 36.185C237.836 36.385 238.156 36.485 238.526 36.485Z" fill="#01928D"/>
</svg>
