<svg width="84" height="36" viewBox="0 0 84 36" fill="none" xmlns="http://www.w3.org/2000/svg">
<g clip-path="url(#clip0_1_1354)">
<path d="M41.4258 17.6252C41.4258 16.1569 42.4187 14.8984 44.0097 14.8984C45.1581 14.8984 45.8758 15.4977 46.2885 16.2708L45.3315 16.8701C45.0265 16.3307 44.5779 15.8992 44.0156 15.8992C43.1005 15.8992 42.6101 16.7322 42.6101 17.6192C42.6101 18.4941 43.1005 19.3511 44.0156 19.3511C44.5719 19.3511 45.0624 18.9736 45.3315 18.4462L46.2885 19.0575C45.8758 19.8365 45.1581 20.3639 44.0097 20.3639C42.4187 20.3699 41.4258 19.0994 41.4258 17.6252Z" fill="black"/>
<path d="M46.7556 17.6373C46.7556 16.0971 47.8502 14.9045 49.4172 14.9045C50.9843 14.9045 52.0789 16.0971 52.0789 17.6373C52.0789 19.1774 50.9843 20.37 49.4172 20.37C47.8382 20.37 46.7556 19.1774 46.7556 17.6373ZM50.8826 17.6373C50.8826 16.6604 50.3204 15.9113 49.4113 15.9113C48.4961 15.9113 47.9279 16.6664 47.9279 17.6373C47.9279 18.5961 48.4961 19.3692 49.4113 19.3692C50.3144 19.3692 50.8826 18.5961 50.8826 17.6373Z" fill="black"/>
<path d="M53.8848 14.9824V18.2725C53.8848 18.8658 54.2018 19.4051 54.9854 19.4051C55.7749 19.4051 56.0799 18.8658 56.0799 18.2725V14.9824H57.1924V18.2665C57.1924 19.4411 56.6302 20.376 54.9854 20.376C53.3406 20.376 52.7783 19.4411 52.7783 18.2665V14.9824H53.8848Z" fill="black"/>
<path d="M58.1191 14.9824H60.3561C61.8155 14.9824 62.4376 15.7855 62.4376 16.7863C62.4376 17.5773 62.0488 18.1706 61.1636 18.3804L62.4376 20.2921H61.2234L60.075 18.4703H59.2257V20.2921H58.1191V14.9824ZM59.2257 17.5713H60.3202C61.032 17.5713 61.2533 17.2118 61.2533 16.7803C61.2533 16.3368 61.026 15.9832 60.3202 15.9832H59.2257V17.5713Z" fill="black"/>
<path d="M64.8054 14.9824L66.0674 18.8598L67.3294 14.9824H68.9802V20.2921H67.8677V16.5286L66.6177 20.2921H65.5052L64.2491 16.5106V20.2921H63.1426V14.9824H64.8054Z" fill="black"/>
<path d="M69.4658 20.2921L71.332 14.9824H72.7136L74.5857 20.2921H73.4852L73.1203 19.2613H70.9312L70.5723 20.2921H69.4658ZM71.2422 18.3264H72.8033L72.0258 16.0851L71.2422 18.3264Z" fill="black"/>
<path d="M74.7051 17.6252C74.7051 16.1569 75.698 14.8984 77.289 14.8984C78.4373 14.8984 79.1551 15.4977 79.5678 16.2708L78.6108 16.8701C78.3058 16.3307 77.8572 15.8992 77.2949 15.8992C76.3798 15.8992 75.8894 16.7322 75.8894 17.6192C75.8894 18.4941 76.3798 19.3511 77.2949 19.3511C77.8512 19.3511 78.3417 18.9736 78.6108 18.4462L79.5678 19.0575C79.1551 19.8365 78.4373 20.3639 77.289 20.3639C75.698 20.3699 74.7051 19.0994 74.7051 17.6252Z" fill="black"/>
<path d="M80.1177 20.0343V18.9196C80.4945 19.1054 81.2122 19.3571 81.8941 19.3571C82.4264 19.3571 82.8272 19.2013 82.8272 18.8777C82.8272 18.0267 80.0459 18.2604 80.0459 16.4386C80.0459 15.4917 80.7876 14.8984 82.1274 14.8984C82.9468 14.8984 83.497 15.1262 83.7483 15.306V16.3187C83.3714 16.121 82.8511 15.9052 82.229 15.9052C81.5711 15.9052 81.2182 16.1629 81.2182 16.4506C81.2182 17.2476 83.9995 17.0439 83.9995 18.8357C83.9995 19.5129 83.5927 20.3699 81.936 20.3699C81.1763 20.3699 80.5005 20.1901 80.1177 20.0343Z" fill="black"/>
<path d="M41.3594 22.9473H41.8917V27.1063H44.1107V27.5737H41.3654V22.9473H41.3594Z" fill="black"/>
<path d="M49.2074 23.0245V23.492H46.5996V25.122H48.8007V25.5955H46.5996V27.1536H49.2074V27.6211H46.0732V23.0305H49.2074V23.0245Z" fill="black"/>
<path d="M51.001 25.3319C51.001 24.0555 51.8443 23.0127 53.214 23.0127C54.1471 23.0127 54.7213 23.4382 55.0861 23.9895L54.6316 24.2772C54.3624 23.8697 53.866 23.4921 53.214 23.4921C52.1972 23.4921 51.5632 24.3072 51.5632 25.3319C51.5632 26.3447 52.1673 27.1837 53.2678 27.1837C53.8839 27.1837 54.3504 26.92 54.6136 26.5305V25.7275H53.2738V25.3259H55.0981L55.0861 26.7582C54.7093 27.3156 54.0873 27.6572 53.2678 27.6572C51.8443 27.6512 51.001 26.5964 51.001 25.3319Z" fill="black"/>
<path d="M56.7969 27.6037L58.5135 22.9473H59.1774L60.894 27.6037H60.3736L59.9669 26.489H57.7359L57.3292 27.6037H56.7969ZM57.8974 26.0276H59.7935L58.8484 23.4327L57.8974 26.0276Z" fill="black"/>
<path d="M62.8087 22.9473H63.347V27.1303H65.6079V27.6037H62.8027V22.9473H62.8087Z" fill="black"/>
<path d="M70.3448 22.9473H70.8832V27.1303H73.1441V27.6037H70.3389V22.9473H70.3448Z" fill="black"/>
<path d="M9.13873 9.10845L4.72461 17.3666L6.90775 20.1533L9.22845 20.7885L9.31219 20.7106V9.19834V9.01855L9.13873 9.10845Z" fill="url(#paint0_linear_1_1354)"/>
<path d="M74.0471 23.516V23.0546H78.216V23.516H76.4037V27.6031H75.8594V23.516H74.0471Z" fill="black"/>
<path d="M80.1543 27.603V23.0244H81.7991C83.109 23.0244 83.9823 23.9533 83.9823 25.3077C83.9823 26.6681 83.109 27.603 81.7991 27.603H80.1543ZM80.6806 23.5098V27.1175H81.7991C82.7501 27.1175 83.432 26.3864 83.432 25.3077C83.432 24.229 82.7501 23.5098 81.7991 23.5098H80.6806Z" fill="black"/>
<path d="M35.3851 10.3789H26.198V26.0862H22.7109V35.411H35.3851V10.3789Z" fill="url(#paint1_linear_1_1354)"/>
<path d="M26.1982 26.0867H10.5873L10.043 32.8647L12.4773 35.4116H35.3853L26.1982 26.0508V26.0867Z" fill="url(#paint2_linear_1_1354)"/>
<path d="M5.5685 15.7979L0 26.2134L2.87098 29.09L9.98262 27.9454C10.0305 27.3221 10.0783 26.7048 10.1322 26.0816H9.31273V20.2985C8.0806 18.7823 6.90231 17.2242 5.5685 15.7979Z" fill="#5B4B98"/>
<path d="M16.3942 35.4117C16.2866 34.9442 16.143 34.3989 15.9516 33.7996C15.7483 33.1404 15.5628 32.655 15.2279 31.774C14.9408 31.0129 14.6358 30.2159 14.2051 29.2031C13.8403 28.3581 13.3618 27.2974 12.7457 26.0808H10.2097C9.86874 26.1228 9.55772 26.1467 9.28856 26.1647C9.11511 26.1767 8.8639 26.1887 7.50616 26.1947C5.72377 26.2067 4.43183 26.1947 4.43183 26.1947C3.30736 26.1887 1.82402 26.1707 0.0356431 26.1407L-0.000244141 26.2127L9.1809 35.4117H16.3942Z" fill="#552D86"/>
<path d="M25.7426 0.233721L22.0702 2.7627L22.0283 7.55699L22.77 9.19303H26.1972V12.7887C26.8193 13.0824 27.3396 13.3161 27.6985 13.4779C29.9654 14.5027 31.8734 15.3537 34.3137 16.0788C34.7204 16.1987 35.0853 16.3006 35.3843 16.3785V9.09116L26.1793 0L25.7426 0.233721Z" fill="#5A2D86"/>
<path d="M14.6594 6.16043L13.822 8.80927L15.3293 9.1988H26.0835V0.0537109L14.6594 6.16043Z" fill="url(#paint3_linear_1_1354)"/>
<path d="M9.09082 9.19861H9.30614H20.2996C19.534 8.58734 18.7684 7.96408 17.9968 7.34082C17.2611 6.74154 16.5314 6.14225 15.8137 5.54297L9.13867 9.10871L9.09082 9.19861Z" fill="url(#paint4_linear_1_1354)"/>
</g>
<defs>
<linearGradient id="paint0_linear_1_1354" x1="11.1372" y1="19.5483" x2="5.77119" y2="11.3014" gradientUnits="userSpaceOnUse">
<stop offset="0.158" stop-color="#786AAD"/>
<stop offset="0.8913" stop-color="#9D92C7"/>
</linearGradient>
<linearGradient id="paint1_linear_1_1354" x1="34.9655" y1="35.6086" x2="23.7186" y2="11.5365" gradientUnits="userSpaceOnUse">
<stop stop-color="#9F8ABE"/>
<stop offset="0.9274" stop-color="#713F91"/>
</linearGradient>
<linearGradient id="paint2_linear_1_1354" x1="33.5944" y1="38.6521" x2="10.6571" y2="25.9625" gradientUnits="userSpaceOnUse">
<stop offset="0.1108" stop-color="#704C83"/>
<stop offset="0.8913" stop-color="#AD8BBF"/>
</linearGradient>
<linearGradient id="paint3_linear_1_1354" x1="19.565" y1="0.738388" x2="20.5175" y2="9.78313" gradientUnits="userSpaceOnUse">
<stop stop-color="#5B4C98"/>
<stop offset="0.8913" stop-color="#5A4596"/>
</linearGradient>
<linearGradient id="paint4_linear_1_1354" x1="9.09235" y1="7.3677" x2="20.3058" y2="7.3677" gradientUnits="userSpaceOnUse">
<stop offset="0.0996696" stop-color="#6D5EA3"/>
<stop offset="0.8913" stop-color="#9E96C6"/>
</linearGradient>
<clipPath id="clip0_1_1354">
<rect width="84" height="35.4118" fill="white"/>
</clipPath>
</defs>
</svg>
