<svg width="351" height="58" viewBox="0 0 351 58" fill="none" xmlns="http://www.w3.org/2000/svg">
<g filter="url(#filter0_d_1_3806)">
<rect x="4" y="4" width="343" height="50" rx="7" fill="#FF004F"/>
<path fill-rule="evenodd" clip-rule="evenodd" d="M79.2353 21.0839C80.166 20.6984 81.1635 20.5 82.1708 20.5C83.1782 20.5 84.1756 20.6984 85.1063 21.0839C86.037 21.4694 86.8826 22.0344 87.5949 22.7467C88.3072 23.459 88.8722 24.3047 89.2577 25.2353C89.6432 26.166 89.8416 27.1635 89.8416 28.1708C89.8416 29.1782 89.6432 30.1756 89.2577 31.1063C89.0052 31.716 88.6756 32.2891 88.2781 32.8122L91.1964 35.7304C91.6012 36.1352 91.6012 36.7916 91.1964 37.1964C90.7916 37.6012 90.1352 37.6012 89.7304 37.1964L86.8122 34.2781C85.4851 35.2868 83.8566 35.8416 82.1708 35.8416C80.1364 35.8416 78.1853 35.0335 76.7467 33.5949C75.3082 32.1563 74.5 30.2052 74.5 28.1708C74.5 26.1364 75.3082 24.1853 76.7467 22.7467C77.459 22.0344 78.3047 21.4694 79.2353 21.0839ZM82.1708 22.5731C81.4357 22.5731 80.7078 22.7179 80.0287 22.9992C79.3495 23.2806 78.7325 23.6929 78.2127 24.2127C77.1629 25.2624 76.5731 26.6862 76.5731 28.1708C76.5731 29.6554 77.1629 31.0792 78.2127 32.129C79.2624 33.1787 80.6862 33.7685 82.1708 33.7685C83.6554 33.7685 85.0792 33.1787 86.129 32.129C86.6488 31.6092 87.0611 30.9921 87.3424 30.313C87.6237 29.6338 87.7685 28.9059 87.7685 28.1708C87.7685 27.4357 87.6237 26.7078 87.3424 26.0287C87.0611 25.3495 86.6488 24.7325 86.129 24.2127C85.6092 23.6929 84.9921 23.2806 84.313 22.9992C83.6338 22.7179 82.9059 22.5731 82.1708 22.5731Z" fill="white"/>
<path d="M106.922 34.5V21.81H114.464V23.502H108.128L108.92 22.584V34.5H106.922ZM108.218 28.776V27.066H113.51V28.776H108.218ZM116.286 34.5V25.086H118.212V34.5H116.286ZM117.258 23.682C116.922 23.682 116.634 23.562 116.394 23.322C116.166 23.082 116.052 22.794 116.052 22.458C116.052 22.122 116.166 21.84 116.394 21.612C116.634 21.384 116.922 21.27 117.258 21.27C117.606 21.27 117.894 21.384 118.122 21.612C118.35 21.84 118.464 22.122 118.464 22.458C118.464 22.794 118.35 23.082 118.122 23.322C117.894 23.562 117.606 23.682 117.258 23.682ZM126.694 34.5V28.686C126.694 27.942 126.514 27.396 126.154 27.048C125.806 26.688 125.35 26.508 124.786 26.508C124.114 26.508 123.574 26.73 123.166 27.174C122.758 27.606 122.554 28.2 122.554 28.956V34.5H120.628V25.086H122.41V26.562H122.464C122.704 26.034 123.07 25.62 123.562 25.32C124.054 25.02 124.642 24.87 125.326 24.87C125.998 24.87 126.58 25.002 127.072 25.266C127.564 25.518 127.942 25.908 128.206 26.436C128.482 26.964 128.62 27.636 128.62 28.452V34.5H126.694ZM134.582 34.716C133.79 34.716 133.082 34.518 132.458 34.122C131.846 33.726 131.36 33.162 131 32.43C130.652 31.686 130.478 30.804 130.478 29.784C130.478 28.764 130.652 27.888 131 27.156C131.36 26.424 131.846 25.86 132.458 25.464C133.082 25.068 133.79 24.87 134.582 24.87C135.002 24.87 135.398 24.942 135.77 25.086C136.154 25.218 136.496 25.416 136.796 25.68C137.108 25.944 137.354 26.262 137.534 26.634H137.57V21.54H139.496V34.5H137.696V32.916H137.66C137.48 33.3 137.228 33.63 136.904 33.906C136.592 34.17 136.238 34.368 135.842 34.5C135.446 34.644 135.026 34.716 134.582 34.716ZM135.068 33.132C135.584 33.132 136.04 33 136.436 32.736C136.832 32.472 137.138 32.094 137.354 31.602C137.582 31.098 137.696 30.492 137.696 29.784C137.696 29.088 137.582 28.494 137.354 28.002C137.126 27.498 136.814 27.114 136.418 26.85C136.022 26.586 135.572 26.454 135.068 26.454C134.564 26.454 134.114 26.586 133.718 26.85C133.322 27.102 133.016 27.474 132.8 27.966C132.584 28.458 132.476 29.064 132.476 29.784C132.476 30.492 132.584 31.098 132.8 31.602C133.016 32.094 133.322 32.472 133.718 32.736C134.114 33 134.564 33.132 135.068 33.132ZM146.631 34.5V21.81H150.141L153.057 33.132H153.111L156.009 21.81H159.537V34.5H157.647V22.854H157.593L154.407 34.5H151.761L148.575 22.854H148.521V34.5H146.631ZM163.948 38.1L165.388 34.086L165.748 33.42L168.394 25.086H170.41L165.892 38.1H163.948ZM164.614 34.464L161.248 25.086H163.246L165.946 33.186H166.504L166.45 34.464H164.614ZM175.593 34.5L179.733 21.81H182.919L187.059 34.5H184.953L181.353 22.818H181.299L177.699 34.5H175.593ZM178.275 30.468V28.83H184.377V30.468H178.275ZM192.561 38.316C191.457 38.316 190.533 38.1 189.789 37.668C189.045 37.248 188.523 36.588 188.223 35.688L189.951 35.094C190.143 35.622 190.449 36.036 190.869 36.336C191.289 36.636 191.847 36.786 192.543 36.786C193.407 36.786 194.061 36.546 194.505 36.066C194.961 35.598 195.189 34.902 195.189 33.978V32.52H195.135C194.931 32.904 194.673 33.228 194.361 33.492C194.049 33.744 193.707 33.936 193.335 34.068C192.963 34.188 192.573 34.248 192.165 34.248C191.385 34.248 190.689 34.056 190.077 33.672C189.465 33.276 188.985 32.73 188.637 32.034C188.289 31.326 188.115 30.498 188.115 29.55C188.115 28.614 188.289 27.798 188.637 27.102C188.985 26.394 189.465 25.848 190.077 25.464C190.701 25.068 191.403 24.87 192.183 24.87C192.615 24.87 193.023 24.93 193.407 25.05C193.791 25.17 194.139 25.362 194.451 25.626C194.763 25.878 195.015 26.202 195.207 26.598H195.261V25.086H197.097V33.888C197.097 34.86 196.917 35.67 196.557 36.318C196.209 36.978 195.693 37.476 195.009 37.812C194.337 38.148 193.521 38.316 192.561 38.316ZM192.705 32.664C193.221 32.664 193.671 32.544 194.055 32.304C194.439 32.052 194.739 31.692 194.955 31.224C195.183 30.756 195.297 30.204 195.297 29.568C195.297 28.908 195.183 28.35 194.955 27.894C194.739 27.426 194.439 27.072 194.055 26.832C193.671 26.58 193.221 26.454 192.705 26.454C192.201 26.454 191.751 26.58 191.355 26.832C190.971 27.072 190.671 27.426 190.455 27.894C190.239 28.35 190.131 28.908 190.131 29.568C190.131 30.216 190.239 30.774 190.455 31.242C190.671 31.698 190.971 32.052 191.355 32.304C191.751 32.544 192.201 32.664 192.705 32.664ZM199.501 34.5V25.086H201.283V26.58H201.337C201.505 26.064 201.799 25.65 202.219 25.338C202.651 25.026 203.155 24.87 203.731 24.87C203.839 24.87 203.947 24.876 204.055 24.888C204.175 24.9 204.271 24.918 204.343 24.942V26.724C204.235 26.688 204.121 26.67 204.001 26.67C203.881 26.658 203.749 26.652 203.605 26.652C203.185 26.652 202.813 26.748 202.489 26.94C202.165 27.12 201.907 27.39 201.715 27.75C201.523 28.11 201.427 28.554 201.427 29.082V34.5H199.501ZM209.67 34.716C208.722 34.716 207.906 34.512 207.222 34.104C206.538 33.684 206.01 33.102 205.638 32.358C205.278 31.602 205.098 30.726 205.098 29.73C205.098 28.77 205.29 27.924 205.674 27.192C206.07 26.46 206.604 25.89 207.276 25.482C207.96 25.074 208.728 24.87 209.58 24.87C210.444 24.87 211.194 25.05 211.83 25.41C212.478 25.77 212.976 26.28 213.324 26.94C213.672 27.6 213.846 28.38 213.846 29.28C213.846 29.46 213.84 29.634 213.828 29.802C213.828 29.97 213.822 30.114 213.81 30.234H206.124V28.884H212.586L211.974 29.154C211.986 28.542 211.896 28.026 211.704 27.606C211.512 27.186 211.23 26.868 210.858 26.652C210.498 26.436 210.06 26.328 209.544 26.328C209.064 26.328 208.632 26.436 208.248 26.652C207.876 26.868 207.576 27.204 207.348 27.66C207.132 28.104 207.024 28.68 207.024 29.388V29.946C207.024 30.942 207.252 31.728 207.708 32.304C208.164 32.868 208.848 33.15 209.76 33.15C210.312 33.15 210.786 33.036 211.182 32.808C211.578 32.58 211.902 32.226 212.154 31.746L213.648 32.52C213.42 33 213.12 33.408 212.748 33.744C212.376 34.068 211.932 34.314 211.416 34.482C210.9 34.638 210.318 34.716 209.67 34.716ZM219.865 34.716C218.917 34.716 218.101 34.512 217.417 34.104C216.733 33.684 216.205 33.102 215.833 32.358C215.473 31.602 215.293 30.726 215.293 29.73C215.293 28.77 215.485 27.924 215.869 27.192C216.265 26.46 216.799 25.89 217.471 25.482C218.155 25.074 218.923 24.87 219.775 24.87C220.639 24.87 221.389 25.05 222.025 25.41C222.673 25.77 223.171 26.28 223.519 26.94C223.867 27.6 224.041 28.38 224.041 29.28C224.041 29.46 224.035 29.634 224.023 29.802C224.023 29.97 224.017 30.114 224.005 30.234H216.319V28.884H222.781L222.169 29.154C222.181 28.542 222.091 28.026 221.899 27.606C221.707 27.186 221.425 26.868 221.053 26.652C220.693 26.436 220.255 26.328 219.739 26.328C219.259 26.328 218.827 26.436 218.443 26.652C218.071 26.868 217.771 27.204 217.543 27.66C217.327 28.104 217.219 28.68 217.219 29.388V29.946C217.219 30.942 217.447 31.728 217.903 32.304C218.359 32.868 219.043 33.15 219.955 33.15C220.507 33.15 220.981 33.036 221.377 32.808C221.773 32.58 222.097 32.226 222.349 31.746L223.843 32.52C223.615 33 223.315 33.408 222.943 33.744C222.571 34.068 222.127 34.314 221.611 34.482C221.095 34.638 220.513 34.716 219.865 34.716ZM225.938 34.5V25.086H227.72V26.49H227.774C228.014 25.962 228.362 25.56 228.818 25.284C229.274 25.008 229.82 24.87 230.456 24.87C231.104 24.87 231.656 25.014 232.112 25.302C232.58 25.578 232.928 25.986 233.156 26.526H233.192C233.444 25.998 233.81 25.59 234.29 25.302C234.77 25.014 235.328 24.87 235.964 24.87C236.6 24.87 237.146 24.996 237.602 25.248C238.058 25.5 238.412 25.872 238.664 26.364C238.916 26.856 239.042 27.468 239.042 28.2V34.5H237.116V28.56C237.116 27.9 236.96 27.396 236.648 27.048C236.348 26.688 235.916 26.508 235.352 26.508C234.752 26.508 234.284 26.712 233.948 27.12C233.624 27.528 233.462 28.098 233.462 28.83V34.5H231.536V28.56C231.536 27.9 231.38 27.396 231.068 27.048C230.768 26.688 230.342 26.508 229.79 26.508C229.202 26.508 228.734 26.724 228.386 27.156C228.038 27.576 227.864 28.158 227.864 28.902V34.5H225.938ZM245.494 34.716C244.546 34.716 243.73 34.512 243.046 34.104C242.362 33.684 241.834 33.102 241.462 32.358C241.102 31.602 240.922 30.726 240.922 29.73C240.922 28.77 241.114 27.924 241.498 27.192C241.894 26.46 242.428 25.89 243.1 25.482C243.784 25.074 244.552 24.87 245.404 24.87C246.268 24.87 247.018 25.05 247.654 25.41C248.302 25.77 248.8 26.28 249.148 26.94C249.496 27.6 249.67 28.38 249.67 29.28C249.67 29.46 249.664 29.634 249.652 29.802C249.652 29.97 249.646 30.114 249.634 30.234H241.948V28.884H248.41L247.798 29.154C247.81 28.542 247.72 28.026 247.528 27.606C247.336 27.186 247.054 26.868 246.682 26.652C246.322 26.436 245.884 26.328 245.368 26.328C244.888 26.328 244.456 26.436 244.072 26.652C243.7 26.868 243.4 27.204 243.172 27.66C242.956 28.104 242.848 28.68 242.848 29.388V29.946C242.848 30.942 243.076 31.728 243.532 32.304C243.988 32.868 244.672 33.15 245.584 33.15C246.136 33.15 246.61 33.036 247.006 32.808C247.402 32.58 247.726 32.226 247.978 31.746L249.472 32.52C249.244 33 248.944 33.408 248.572 33.744C248.2 34.068 247.756 34.314 247.24 34.482C246.724 34.638 246.142 34.716 245.494 34.716ZM257.633 34.5V28.686C257.633 27.942 257.453 27.396 257.093 27.048C256.745 26.688 256.289 26.508 255.725 26.508C255.053 26.508 254.513 26.73 254.105 27.174C253.697 27.606 253.493 28.2 253.493 28.956V34.5H251.567V25.086H253.349V26.562H253.403C253.643 26.034 254.009 25.62 254.501 25.32C254.993 25.02 255.581 24.87 256.265 24.87C256.937 24.87 257.519 25.002 258.011 25.266C258.503 25.518 258.881 25.908 259.145 26.436C259.421 26.964 259.559 27.636 259.559 28.452V34.5H257.633ZM265.364 34.68C264.512 34.68 263.864 34.464 263.42 34.032C262.976 33.6 262.754 32.94 262.754 32.052V23.016L264.68 21.99V31.746C264.68 32.19 264.782 32.52 264.986 32.736C265.19 32.952 265.472 33.06 265.832 33.06C265.964 33.06 266.102 33.048 266.246 33.024C266.39 33 266.546 32.952 266.714 32.88V34.446C266.486 34.53 266.264 34.59 266.048 34.626C265.832 34.662 265.604 34.68 265.364 34.68ZM261.008 26.562V25.086H266.768V26.562H261.008ZM271.824 34.716C270.792 34.716 269.94 34.5 269.268 34.068C268.596 33.624 268.146 32.97 267.918 32.106L269.718 31.638C269.874 32.226 270.132 32.652 270.492 32.916C270.864 33.168 271.332 33.294 271.896 33.294C272.448 33.294 272.868 33.18 273.156 32.952C273.456 32.724 273.606 32.388 273.606 31.944C273.606 31.596 273.51 31.314 273.318 31.098C273.126 30.882 272.802 30.714 272.346 30.594L270.636 30.126C269.916 29.934 269.364 29.628 268.98 29.208C268.596 28.788 268.404 28.254 268.404 27.606C268.404 27.054 268.554 26.574 268.854 26.166C269.154 25.758 269.568 25.44 270.096 25.212C270.624 24.984 271.236 24.87 271.932 24.87C272.556 24.87 273.108 24.954 273.588 25.122C274.08 25.29 274.494 25.536 274.83 25.86C275.166 26.172 275.394 26.574 275.514 27.066L273.768 27.552C273.612 27.12 273.378 26.808 273.066 26.616C272.754 26.412 272.364 26.31 271.896 26.31C271.38 26.31 270.984 26.412 270.708 26.616C270.444 26.82 270.312 27.108 270.312 27.48C270.312 27.768 270.402 28.014 270.582 28.218C270.774 28.41 271.08 28.566 271.5 28.686L273.192 29.136C273.672 29.268 274.086 29.448 274.434 29.676C274.782 29.892 275.052 30.174 275.244 30.522C275.436 30.87 275.532 31.302 275.532 31.818C275.532 32.43 275.376 32.952 275.064 33.384C274.764 33.804 274.338 34.134 273.786 34.374C273.234 34.602 272.58 34.716 271.824 34.716Z" fill="white"/>
</g>
<defs>
<filter id="filter0_d_1_3806" x="0" y="0" width="351" height="58" filterUnits="userSpaceOnUse" color-interpolation-filters="sRGB">
<feFlood flood-opacity="0" result="BackgroundImageFix"/>
<feColorMatrix in="SourceAlpha" type="matrix" values="0 0 0 0 0 0 0 0 0 0 0 0 0 0 0 0 0 0 127 0" result="hardAlpha"/>
<feMorphology radius="4" operator="dilate" in="SourceAlpha" result="effect1_dropShadow_1_3806"/>
<feOffset/>
<feComposite in2="hardAlpha" operator="out"/>
<feColorMatrix type="matrix" values="0 0 0 0 1 0 0 0 0 0 0 0 0 0 0.309804 0 0 0 0.3 0"/>
<feBlend mode="normal" in2="BackgroundImageFix" result="effect1_dropShadow_1_3806"/>
<feBlend mode="normal" in="SourceGraphic" in2="effect1_dropShadow_1_3806" result="shape"/>
</filter>
</defs>
</svg>
