<svg width="50" height="53" viewBox="0 0 50 53" fill="none" xmlns="http://www.w3.org/2000/svg">
<path d="M31.4853 30.7184H18.5192V49.9833H31.4853V30.7184Z" fill="#00F2EA"/>
<path d="M47.1236 20.0294H2.87646L25 3.01062L47.1236 20.0294Z" fill="url(#paint0_linear_1_1153)"/>
<path d="M49.4806 18.4848L25.8123 0.276323C25.3329 -0.0921076 24.6671 -0.0921076 24.1877 0.276323L0.519354 18.4848C0.190874 18.7378 0 19.1284 0 19.5412V51.315C0 52.0519 0.594815 52.6467 1.33168 52.6467H48.6683C49.4052 52.6467 50 52.0519 50 51.315V19.5412C50 19.1284 49.8091 18.7378 49.4806 18.4848ZM31.4853 49.9834H18.5192V30.7184H31.4853V49.9834ZM47.3367 49.9834H34.1442V29.3868C34.1442 28.6499 33.5494 28.0551 32.8125 28.0551H17.1831C16.4462 28.0551 15.8514 28.6499 15.8514 29.3868V49.9834H2.66335V20.1938L25 3.0107L47.3367 20.1938V49.9834Z" fill="#161823"/>
<path d="M48.615 20.0295H1.56689V22.6929H48.615V20.0295Z" fill="#161823"/>
<defs>
<linearGradient id="paint0_linear_1_1153" x1="25" y1="3.01062" x2="25" y2="20.0294" gradientUnits="userSpaceOnUse">
<stop stop-color="#F5812E"/>
<stop offset="1" stop-color="#FF004F"/>
</linearGradient>
</defs>
</svg>
