<svg width="12" height="12" viewBox="0 0 12 12" fill="none" xmlns="http://www.w3.org/2000/svg">
<path d="M11.9211 10.5577C11.1594 9.22082 9.96994 8.17913 8.54428 7.60035C9.25325 7.06862 9.77694 6.32731 10.0412 5.48141C10.3054 4.6355 10.2968 3.72791 10.0166 2.88717C9.73632 2.04644 9.19865 1.31519 8.47972 0.797014C7.76079 0.278837 6.89704 0 6.01083 0C5.12462 0 4.26087 0.278837 3.54194 0.797014C2.823 1.31519 2.28534 2.04644 2.00509 2.88717C1.72485 3.72791 1.71623 4.6355 1.98047 5.48141C2.24471 6.32731 2.76841 7.06862 3.47738 7.60035C2.05171 8.17913 0.86228 9.22082 0.100554 10.5577C0.0533551 10.6336 0.021897 10.7182 0.00805019 10.8065C-0.00579658 10.8948 -0.00174936 10.985 0.0199513 11.0717C0.041652 11.1584 0.0805631 11.2398 0.134371 11.3112C0.18818 11.3826 0.255787 11.4424 0.333173 11.4871C0.410559 11.5318 0.496145 11.5605 0.584843 11.5715C0.673541 11.5824 0.763539 11.5755 0.849488 11.551C0.935437 11.5264 1.01558 11.4849 1.08516 11.4288C1.15473 11.3727 1.21232 11.3032 1.2545 11.2244C2.26121 9.48433 4.03907 8.4465 6.01083 8.4465C7.98259 8.4465 9.76045 9.48488 10.7672 11.2244C10.8586 11.3714 11.0035 11.477 11.1714 11.5191C11.3393 11.5611 11.517 11.5362 11.6668 11.4496C11.8167 11.363 11.927 11.2215 11.9745 11.0551C12.0219 10.8887 12.0028 10.7103 11.9211 10.5577ZM3.12181 4.22408C3.12181 3.65269 3.29124 3.09413 3.60869 2.61903C3.92614 2.14393 4.37735 1.77364 4.90525 1.55498C5.43315 1.33631 6.01403 1.2791 6.57445 1.39057C7.13486 1.50205 7.64964 1.7772 8.05367 2.18124C8.45771 2.58527 8.73286 3.10005 8.84434 3.66046C8.95581 4.22088 8.8986 4.80176 8.67994 5.32966C8.46127 5.85756 8.09098 6.30877 7.61588 6.62622C7.14078 6.94367 6.58222 7.11311 6.01083 7.11311C5.24488 7.11222 4.51056 6.80756 3.96895 6.26596C3.42735 5.72435 3.12269 4.99003 3.12181 4.22408Z" fill="#161823"/>
</svg>
