<svg width="75" height="22" viewBox="0 0 75 22" fill="none" xmlns="http://www.w3.org/2000/svg">
<path d="M17.4173 9.98595C17.4173 10.271 17.2603 17.0055 9.19118 20.8074C1.12486 17.0026 0.967773 10.271 0.967773 9.9803V3.29102C2.67363 3.03417 6.17354 2.26081 9.19393 0C12.2143 2.26081 15.7115 3.03417 17.4201 3.29102V9.98595H17.4173Z" fill="#10DF9C"/>
<path d="M10.6346 15.6462L14.5167 5.00061H12.1008L8.97106 13.9499H8.29896L8.53971 15.6462H10.6363H10.6346ZM9.93908 15.6462L9.53114 15.0203L9.30711 14.6232L7.63689 10.5097C7.4881 10.0309 7.23899 9.68932 6.8929 9.48668C6.54682 9.28239 6.04191 9.18107 5.37985 9.18107H4.35498V10.8268H4.65926C4.8415 10.8268 4.9903 10.8464 5.10733 10.8872C5.22436 10.9281 5.31799 10.9935 5.38821 11.085C5.45843 11.1765 5.51861 11.304 5.57211 11.4658L7.52321 15.6446H9.93908V15.6462Z" fill="white"/>
<path d="M23.6577 20.8134C23.3049 20.8134 23.0007 20.7574 22.7417 20.6454C22.4828 20.5334 22.2789 20.3621 22.1332 20.1315C21.9875 19.9009 21.9066 19.6044 21.8872 19.2387L22.91 19.0345C22.9197 19.2519 22.9586 19.4331 23.0298 19.5748C23.101 19.7164 23.1981 19.8218 23.3179 19.891C23.4409 19.9602 23.5801 19.9964 23.7387 19.9964C23.8843 19.9964 24.0105 19.9734 24.1109 19.924C24.2145 19.8745 24.2954 19.8087 24.3569 19.7197C24.4184 19.6308 24.454 19.5286 24.4669 19.4133C24.4831 19.2618 24.454 19.1333 24.3795 19.0378C24.3051 18.9389 24.1659 18.8566 23.9652 18.7907L23.2628 18.5601C22.9618 18.4646 22.7288 18.3064 22.5605 18.089C22.3921 17.8716 22.3242 17.608 22.3533 17.3016C22.3792 17.0348 22.4666 16.8009 22.622 16.5999C22.7741 16.399 22.9748 16.2441 23.2272 16.1321C23.4797 16.0201 23.7646 15.9641 24.0882 15.9641C24.4119 15.9641 24.6806 16.0135 24.9104 16.1157C25.1402 16.2178 25.3182 16.3594 25.4445 16.5406C25.5707 16.7251 25.6419 16.9458 25.6548 17.2028L24.6838 17.3412C24.6547 17.1369 24.5835 16.9854 24.4669 16.8898C24.3537 16.7943 24.2048 16.7449 24.0203 16.7449C23.8519 16.7449 23.7128 16.7877 23.6027 16.8701C23.4927 16.9524 23.4279 17.0677 23.4085 17.216C23.3956 17.3346 23.4247 17.4367 23.4959 17.5191C23.5671 17.6014 23.6772 17.6739 23.8261 17.7266L24.6126 17.9836C24.9363 18.0923 25.1758 18.257 25.3376 18.4777C25.4995 18.6985 25.561 18.9785 25.5221 19.3211C25.4962 19.6176 25.4056 19.8778 25.2438 20.1019C25.0852 20.3259 24.8715 20.4972 24.6061 20.6224C24.3407 20.7476 24.0235 20.8102 23.661 20.8102L23.6577 20.8134Z" fill="black"/>
<path d="M27.6294 20.8134C27.2766 20.8134 26.9723 20.7574 26.7134 20.6454C26.4545 20.5334 26.2505 20.3621 26.1049 20.1315C25.9592 19.9009 25.8783 19.6044 25.8589 19.2387L26.8817 19.0345C26.8914 19.2519 26.9303 19.4331 27.0015 19.5748C27.0727 19.7164 27.1698 19.8218 27.2896 19.891C27.4126 19.9602 27.5517 19.9964 27.7103 19.9964C27.856 19.9964 27.9822 19.9734 28.0826 19.924C28.1862 19.8745 28.2671 19.8087 28.3286 19.7197C28.3901 19.6308 28.4257 19.5286 28.4386 19.4133C28.4548 19.2618 28.4257 19.1333 28.3512 19.0378C28.2768 18.9389 28.1376 18.8566 27.9369 18.7907L27.2345 18.5601C26.9335 18.4646 26.7005 18.3064 26.5321 18.089C26.3638 17.8716 26.2959 17.608 26.325 17.3016C26.3509 17.0348 26.4383 16.8009 26.5936 16.5999C26.7458 16.399 26.9465 16.2441 27.1989 16.1321C27.4514 16.0201 27.7362 15.9641 28.0599 15.9641C28.3836 15.9641 28.6523 16.0135 28.8821 16.1157C29.1119 16.2178 29.2899 16.3594 29.4161 16.5406C29.5424 16.7251 29.6136 16.9458 29.6265 17.2028L28.6555 17.3412C28.6264 17.1369 28.5551 16.9854 28.4386 16.8898C28.3253 16.7943 28.1764 16.7449 27.9919 16.7449C27.8236 16.7449 27.6844 16.7877 27.5744 16.8701C27.4643 16.9524 27.3996 17.0677 27.3802 17.216C27.3672 17.3346 27.3964 17.4367 27.4676 17.5191C27.5388 17.6014 27.6488 17.6739 27.7977 17.7266L28.5843 17.9836C28.908 18.0923 29.1475 18.257 29.3093 18.4777C29.4712 18.6985 29.5327 18.9785 29.4938 19.3211C29.4679 19.6176 29.3773 19.8778 29.2155 20.1019C29.0569 20.3259 28.8432 20.4972 28.5778 20.6224C28.3124 20.7476 27.9952 20.8102 27.6327 20.8102L27.6294 20.8134Z" fill="black"/>
<path d="M29.856 20.7014L30.3318 16.0826H31.3352L30.8917 20.4279L30.28 19.7789H32.7982L32.7011 20.7014H29.856Z" fill="black"/>
<path d="M34.6143 20.7014L35.0901 16.0826H38.0194L37.9287 16.9557H35.5465L36.0676 16.366L35.65 20.4279L35.2519 19.8317H37.6471L37.5565 20.7047H34.6143V20.7014ZM35.4914 18.672L35.5756 17.799H37.4238L37.3396 18.672H35.4914Z" fill="black"/>
<path d="M38.123 20.7014L38.5989 16.0826H40.2788L41.1559 19.9799L41.5541 16.0826H42.5122L42.0363 20.7014H40.3564L39.489 16.814L39.0844 20.7014H38.1263H38.123Z" fill="black"/>
<path d="M44.904 20.8135C44.4476 20.8135 44.0592 20.7113 43.7355 20.5104C43.4119 20.3094 43.1723 20.0261 43.017 19.6604C42.8616 19.2947 42.8098 18.8731 42.8551 18.3921C42.894 18.0231 42.9846 17.6904 43.127 17.3939C43.2694 17.0974 43.4507 16.8437 43.6773 16.6296C43.9039 16.4154 44.1596 16.254 44.4509 16.1387C44.7422 16.0234 45.0562 15.9674 45.3928 15.9674C45.765 15.9674 46.0887 16.0234 46.3541 16.1321C46.6228 16.2408 46.8364 16.4056 46.9982 16.623C47.1601 16.8404 47.2669 17.1073 47.3187 17.4235L46.3088 17.7266C46.257 17.4532 46.147 17.2456 45.9754 17.104C45.8039 16.959 45.5773 16.8898 45.2989 16.8898C45.0465 16.8898 44.8231 16.9491 44.6321 17.071C44.4412 17.1929 44.2858 17.3642 44.1628 17.5882C44.0398 17.8123 43.9621 18.0791 43.9265 18.3921C43.8974 18.6985 43.92 18.9686 43.9945 19.1926C44.0689 19.4166 44.1919 19.5912 44.3603 19.7131C44.5286 19.835 44.739 19.8943 44.9882 19.8943C45.273 19.8943 45.5126 19.8218 45.7132 19.6769C45.9139 19.5319 46.066 19.3244 46.1729 19.0575L47.1115 19.354C46.9982 19.6703 46.8396 19.9371 46.6325 20.1579C46.4253 20.3786 46.1761 20.5433 45.888 20.652C45.5999 20.7607 45.273 20.8167 44.904 20.8167V20.8135Z" fill="black"/>
<path d="M47.5356 20.7014L48.0115 16.0826H49.9632C50.3096 16.0826 50.6009 16.1354 50.8339 16.2441C51.067 16.3528 51.2353 16.5043 51.3389 16.6987C51.4425 16.8964 51.4813 17.1303 51.4522 17.407C51.4263 17.6771 51.3389 17.911 51.19 18.1087C51.0411 18.3064 50.8437 18.4579 50.5912 18.5633C50.3387 18.672 50.0442 18.7247 49.7011 18.7247H49.1994L49.2382 18.3261H48.4258L48.4711 17.9077H49.7464C49.96 17.9077 50.1316 17.8649 50.2578 17.7825C50.384 17.7002 50.4552 17.575 50.4682 17.4103C50.4844 17.239 50.4391 17.1138 50.3322 17.0281C50.2254 16.9425 50.0636 16.8996 49.85 16.8996H48.7041L48.9631 16.669L48.5455 20.7047H47.5421L47.5356 20.7014ZM50.1963 20.7014L48.5423 18.224H49.6622L51.4263 20.7014H50.1963Z" fill="black"/>
<path d="M52.912 18.6984L51.7402 16.0826H52.8407L53.7438 18.3426H53.4978L54.8508 16.0826H55.9448L54.252 18.6984H52.912ZM52.8666 20.7014L53.0997 18.4612H54.0966L53.8636 20.7014H52.8666Z" fill="black"/>
<path d="M55.8867 20.7014L56.3625 16.0826H58.3143C58.6607 16.0826 58.952 16.1386 59.185 16.2507C59.4181 16.3627 59.5831 16.5208 59.6867 16.725C59.7903 16.9293 59.8291 17.1764 59.8032 17.4597C59.7741 17.7397 59.6835 17.9835 59.5346 18.191C59.3857 18.3986 59.185 18.5567 58.9326 18.6687C58.6801 18.7807 58.3823 18.8367 58.0392 18.8367H56.8222L56.9063 18.0099H58.0845C58.2981 18.0099 58.4697 17.9637 58.5959 17.8715C58.7222 17.7793 58.7966 17.6409 58.8193 17.4597C58.8354 17.2719 58.7901 17.1336 58.6801 17.0446C58.57 16.9557 58.4082 16.9095 58.1946 16.9095H57.0487L57.3142 16.6657L56.8966 20.7014H55.8932H55.8867Z" fill="black"/>
<path d="M60.1172 17.0084L60.2078 16.0859H63.6453L63.5547 17.0084H60.1172ZM60.9458 20.7014L61.4022 16.3363H62.4056L61.9492 20.7014H60.9458Z" fill="black"/>
<path d="M63.6709 20.7014L64.1467 16.0826H65.1501L64.6743 20.7014H63.6709Z" fill="black"/>
<path d="M67.6294 20.8134C67.1504 20.8134 66.7393 20.7113 66.4027 20.5104C66.0661 20.3094 65.8168 20.0294 65.6582 19.6637C65.4996 19.3013 65.4446 18.8764 65.4899 18.3921C65.5417 17.9012 65.6841 17.4762 65.9204 17.1139C66.1567 16.7515 66.4642 16.4682 66.8397 16.2672C67.2184 16.0662 67.6456 15.9641 68.1214 15.9641C68.5973 15.9641 69.0116 16.0629 69.3482 16.2672C69.6848 16.4682 69.9341 16.7482 70.0959 17.1139C70.2577 17.4795 70.3128 17.9012 70.261 18.3921C70.2124 18.8764 70.0732 19.3013 69.8369 19.6637C69.6007 20.0261 69.2932 20.3094 68.9145 20.5104C68.5358 20.7113 68.1053 20.8134 67.6294 20.8134ZM67.7201 19.891C67.9855 19.891 68.225 19.8284 68.4354 19.7032C68.6458 19.5781 68.8174 19.4035 68.9501 19.1827C69.0828 18.9587 69.1637 18.6985 69.1961 18.3954C69.2317 18.0923 69.2058 17.832 69.1184 17.6047C69.031 17.3807 68.895 17.2061 68.7105 17.0809C68.5228 16.9557 68.2995 16.8931 68.0373 16.8931C67.7751 16.8931 67.5323 16.9557 67.3252 17.0809C67.118 17.2061 66.9465 17.3807 66.8138 17.6047C66.6811 17.8287 66.5969 18.0923 66.5613 18.3954C66.5322 18.6985 66.5613 18.9587 66.6487 19.1827C66.7361 19.4067 66.872 19.5781 67.0533 19.7032C67.2346 19.8284 67.4579 19.891 67.7201 19.891Z" fill="black"/>
<path d="M70.6108 20.7014L71.0867 16.0826H72.7666L73.6437 19.9799L74.0419 16.0826H75L74.5241 20.7014H72.8442L71.9768 16.814L71.5722 20.7014H70.6141H70.6108Z" fill="black"/>
<path d="M26.1242 13.9908C25.3636 13.9908 24.7033 13.8689 24.1401 13.6284C23.5769 13.3879 23.1399 13.019 22.8259 12.5182C22.512 12.0175 22.3339 11.3751 22.2983 10.591L24.5091 10.1528C24.5285 10.6239 24.6127 11.016 24.7648 11.3224C24.9169 11.6287 25.1273 11.8593 25.3895 12.0076C25.6549 12.1591 25.9559 12.2349 26.3023 12.2349C26.6162 12.2349 26.8849 12.1822 27.1082 12.0801C27.3316 11.9779 27.5064 11.8297 27.6358 11.6419C27.7653 11.4541 27.843 11.2301 27.8721 10.9764C27.9077 10.647 27.8462 10.3736 27.6844 10.1627C27.5225 9.95189 27.2215 9.77399 26.7878 9.63233L25.273 9.13818C24.6224 8.93063 24.1174 8.59131 23.7549 8.12021C23.3924 7.64911 23.2435 7.08248 23.3082 6.42031C23.3632 5.84379 23.5575 5.33975 23.8844 4.90489C24.2145 4.47003 24.6483 4.134 25.192 3.89351C25.7358 3.65302 26.3541 3.53113 27.05 3.53113C27.7459 3.53113 28.3285 3.63984 28.8237 3.85727C29.319 4.0747 29.7041 4.38108 29.9793 4.77641C30.2512 5.17173 30.4033 5.64942 30.4324 6.20617L28.3317 6.50267C28.267 6.05792 28.1116 5.73507 27.8656 5.52423C27.6196 5.31669 27.296 5.21127 26.8978 5.21127C26.5353 5.21127 26.2343 5.30021 25.9948 5.48141C25.752 5.6593 25.6161 5.90968 25.5772 6.23253C25.5481 6.48619 25.6128 6.70692 25.765 6.8914C25.9171 7.07589 26.1566 7.22414 26.4803 7.33615L28.1764 7.8896C28.8723 8.1268 29.3934 8.48259 29.743 8.96028C30.0893 9.43796 30.222 10.0441 30.1379 10.7788C30.0829 11.4212 29.8822 11.9812 29.5391 12.4655C29.196 12.9465 28.7363 13.322 28.1634 13.5922C27.5873 13.8623 26.9076 13.9974 26.1178 13.9974L26.1242 13.9908Z" fill="black"/>
<path d="M30.9404 13.747L31.9697 3.76501H38.3009L38.1067 5.6494H32.9602L34.0866 4.37448L33.1835 13.154L32.3193 11.8659H37.495L37.3008 13.7503H30.9437L30.9404 13.747ZM32.8307 9.35888L33.012 7.47449H37.0062L36.8249 9.35888H32.8307Z" fill="black"/>
<path d="M42.8619 13.9908C41.8779 13.9908 41.0363 13.7734 40.3372 13.3352C39.638 12.9004 39.1201 12.2876 38.7867 11.5002C38.4534 10.7129 38.3368 9.79705 38.4404 8.75602C38.5246 7.95878 38.7188 7.2406 39.023 6.60149C39.3305 5.96238 39.7254 5.41222 40.2142 4.951C40.6997 4.48979 41.2564 4.13729 41.8844 3.89021C42.5091 3.64313 43.1888 3.52124 43.9236 3.52124C44.7295 3.52124 45.4222 3.63984 46.0048 3.87703C46.5842 4.11423 47.0471 4.46673 47.3966 4.93453C47.743 5.40234 47.9728 5.97885 48.0861 6.66079L45.9012 7.31308C45.7912 6.72668 45.5484 6.27864 45.1762 5.96897C44.804 5.6593 44.3184 5.50446 43.7164 5.50446C43.1694 5.50446 42.6903 5.63624 42.276 5.89649C41.8617 6.15675 41.5251 6.53231 41.2597 7.01659C40.9942 7.50086 40.8259 8.08067 40.7515 8.75602C40.6868 9.42149 40.7353 9.99801 40.8971 10.4889C41.059 10.9797 41.3244 11.352 41.6902 11.6155C42.0559 11.8758 42.5091 12.0076 43.0464 12.0076C43.6581 12.0076 44.1793 11.8495 44.613 11.5365C45.0435 11.2202 45.3769 10.7755 45.6067 10.199L47.6394 10.8348C47.3966 11.5167 47.0535 12.0965 46.6036 12.5709C46.1537 13.0453 45.6196 13.4011 44.9982 13.6383C44.3767 13.8755 43.6678 13.9941 42.8684 13.9941L42.8619 13.9908Z" fill="black"/>
<path d="M52.504 13.9908C51.6689 13.9908 50.9698 13.8294 50.4098 13.5098C49.8498 13.1903 49.4388 12.7422 49.1798 12.1657C48.9209 11.5892 48.8335 10.9138 48.9144 10.1397L49.5553 3.76831H51.7272L51.1025 9.89917C51.0572 10.334 51.0863 10.7096 51.1931 11.0258C51.2999 11.3421 51.4812 11.5859 51.7369 11.7539C51.9926 11.9219 52.313 12.0076 52.7047 12.0076C53.0963 12.0076 53.4459 11.9219 53.7275 11.7539C54.0091 11.5859 54.2389 11.3421 54.417 11.0258C54.5917 10.7096 54.705 10.334 54.7503 9.89917L55.3751 3.76831H57.5308L56.8899 10.1397C56.8057 10.9138 56.5759 11.5892 56.2004 12.1657C55.825 12.7422 55.32 13.1903 54.6921 13.5098C54.0641 13.8294 53.3326 13.9908 52.5072 13.9908H52.504Z" fill="black"/>
<path d="M58.0845 13.747L59.1138 3.76501H63.3281C64.079 3.76501 64.707 3.88032 65.2054 4.11093C65.7071 4.34153 66.0697 4.67097 66.2995 5.09595C66.5261 5.52092 66.607 6.03155 66.5422 6.62454C66.4872 7.21094 66.2995 7.71499 65.979 8.13996C65.6586 8.56494 65.2281 8.89438 64.6843 9.12498C64.1405 9.35559 63.4996 9.47089 62.7584 9.47089H61.6741L61.7582 8.60776H60.0039L60.101 7.70181H62.8555C63.3184 7.70181 63.6874 7.61286 63.9625 7.43167C64.2344 7.25377 64.3865 6.98363 64.4157 6.62454C64.4513 6.25557 64.3542 5.97884 64.1244 5.79765C63.8913 5.61317 63.545 5.52092 63.0821 5.52092H60.6059L61.1627 5.02676L60.2596 13.7503H58.0877L58.0845 13.747ZM63.8298 13.747L60.2531 8.39363H62.6743L66.4872 13.747H63.8298Z" fill="black"/>
<path d="M67.4326 13.747L68.4619 3.76501H74.7931L74.5989 5.6494H69.4524L70.5788 4.37448L69.6757 13.154L68.8115 11.8659H73.9871L73.7929 13.7503H67.4359L67.4326 13.747ZM69.3261 9.35888L69.5074 7.47449H73.5016L73.3204 9.35888H69.3261Z" fill="black"/>
</svg>
