<svg width="96" height="51" viewBox="0 0 96 51" fill="none" xmlns="http://www.w3.org/2000/svg">
<path d="M0 0H96V50.4242H0V0Z" fill="white"/>
<path fill-rule="evenodd" clip-rule="evenodd" d="M85.6019 36.2141H44.0261V35.8505H85.6019V36.2141Z" fill="#6A6E71"/>
<path d="M44.3901 41.5133V38.4657L46.413 39.9895L44.3901 41.5133Z" fill="#6A6E71"/>
<path d="M37.7234 13.7899V28.9051H33.7234V20.618L22.572 31.7693V26.1131L30.8953 17.7899H22.572V13.7899H37.7234Z" fill="#D33248"/>
<path fill-rule="evenodd" clip-rule="evenodd" d="M33.365 33.1842C32.5616 35.6061 30.695 37.6957 28.5705 39.3834C27.192 40.4785 25.8025 41.3244 24.7524 41.8974C24.4113 42.0835 24.1086 42.2394 23.857 42.3645C23.6173 42.2429 23.3314 42.0933 23.0101 41.9169C21.989 41.3563 20.6322 40.5367 19.2714 39.4967C16.4566 37.3455 14.1188 34.6309 13.9057 31.6666L13.9661 14.0396L9.9661 14.0259L9.9055 31.7228L9.90527 31.7882L9.90932 31.8535C10.2089 36.6837 13.8281 40.371 16.8426 42.6748C18.406 43.8697 19.9432 44.7963 21.085 45.4232C21.658 45.7378 22.1369 45.9799 22.4769 46.1453C22.647 46.228 22.7827 46.2917 22.8784 46.3359C22.9263 46.358 22.9642 46.3752 22.9915 46.3875L23.0243 46.4021L23.0346 46.4067L23.0382 46.4083L23.0396 46.4089C23.0396 46.4089 23.0407 46.4094 23.8449 44.5782L23.0407 46.4094L23.8285 46.7553L24.6214 46.4213L23.8449 44.5782C24.6214 46.4213 24.6227 46.4207 24.6227 46.4207L24.6242 46.4201L24.6282 46.4184L24.6393 46.4137L24.6744 46.3986C24.7034 46.386 24.7434 46.3685 24.7939 46.3459C24.8948 46.3009 25.0373 46.236 25.2154 46.1515C25.5715 45.9825 26.0718 45.7342 26.6684 45.4086C27.857 44.76 29.4523 43.7915 31.0586 42.5154C33.6763 40.4359 36.6149 37.3016 37.5107 33.1842H33.365Z" fill="#6A6E71"/>
<path d="M85.4654 25.4611H84.5853L82.5424 22.5831V25.4611H81.6301V21.1761H82.5681L84.5532 23.9514V21.1761H85.4654V25.4611Z" fill="#D33248"/>
<path d="M76.2622 23.3216C76.2622 22.0303 77.2066 21.1052 78.4978 21.1052C79.7955 21.1052 80.7399 22.0303 80.7399 23.3216C80.7399 24.6129 79.7955 25.538 78.4978 25.538C77.2066 25.538 76.2622 24.6129 76.2622 23.3216ZM79.802 23.3216C79.802 22.5186 79.288 21.9147 78.4978 21.9147C77.7077 21.9147 77.2001 22.5186 77.2001 23.3216C77.2001 24.1182 77.7077 24.7285 78.4978 24.7285C79.288 24.7285 79.802 24.1182 79.802 23.3216Z" fill="#D33248"/>
<path d="M75.3663 25.4611H74.4541V21.1761H75.3663V25.4611Z" fill="#D33248"/>
<path d="M72.3718 25.4611H71.4532V21.9792H70.2004V21.1761H73.6181V21.9792H72.3718V25.4611Z" fill="#D33248"/>
<path d="M70.232 25.4611H69.2363L68.9665 24.7223H67.052L66.7822 25.4611H65.78L67.4375 21.1761H68.581L70.232 25.4611ZM68.7159 23.9321L68.0092 21.9663L67.2962 23.9321H68.7159Z" fill="#D33248"/>
<path d="M65.3469 25.4611H62.623V21.1761H63.5353V24.6581H65.3469V25.4611Z" fill="#D33248"/>
<path d="M57.6987 23.7523V21.1761H58.6238V23.7201C58.6238 24.3176 58.9515 24.7288 59.6196 24.7288C60.2749 24.7288 60.6025 24.3176 60.6025 23.7201V21.1761H61.5276V23.7458C61.5276 24.8123 60.9173 25.5382 59.6196 25.5382C58.309 25.5382 57.6987 24.8058 57.6987 23.7523Z" fill="#D33248"/>
<path d="M52.6184 23.3216C52.6184 21.9661 53.6463 21.1052 54.899 21.1052C55.7856 21.1052 56.3445 21.5356 56.6721 22.0432L55.914 22.4543C55.7149 22.1524 55.3487 21.9147 54.899 21.9147C54.1217 21.9147 53.5563 22.5121 53.5563 23.3216C53.5563 24.131 54.1217 24.7285 54.899 24.7285C55.2909 24.7285 55.6378 24.5679 55.8241 24.4009V23.8805H54.6806V23.0967H56.7235V24.7349C56.2867 25.2232 55.6763 25.5444 54.899 25.5444C53.6463 25.5444 52.6184 24.6707 52.6184 23.3216Z" fill="#D33248"/>
<path d="M51.8606 25.4611H48.8284V21.1761H51.8606V21.9599H49.7406V22.8914H51.8156V23.6752H49.7406V24.6709H51.8606V25.4611Z" fill="#D33248"/>
<path d="M47.9193 25.4611H46.8721L46.0306 23.9257H45.3624V25.4611H44.4502V21.1761H46.4546C47.3475 21.1761 47.8936 21.7608 47.8936 22.5574C47.8936 23.3154 47.4182 23.7201 46.9556 23.8294L47.9193 25.4611ZM46.9621 22.5509C46.9621 22.1912 46.6858 21.9599 46.3196 21.9599H45.3624V23.142H46.3196C46.6858 23.142 46.9621 22.9107 46.9621 22.5509Z" fill="#D33248"/>
<path d="M79.0955 17.7054L79.5965 17.0115C79.8985 17.3263 80.3675 17.5897 80.9585 17.5897C81.4596 17.5897 81.7037 17.352 81.7037 17.1079C81.7037 16.7867 81.3311 16.6775 80.8364 16.5618C80.1362 16.4012 79.2368 16.2085 79.2368 15.2513C79.2368 14.5382 79.8535 13.96 80.8621 13.96C81.5431 13.96 82.1084 14.1656 82.5324 14.5575L82.0249 15.2256C81.678 14.9044 81.2155 14.7566 80.7979 14.7566C80.3867 14.7566 80.1683 14.9365 80.1683 15.1935C80.1683 15.4826 80.5281 15.5725 81.0227 15.6881C81.7294 15.8487 82.6288 16.0607 82.6288 17.0115C82.6288 17.7953 82.0699 18.3863 80.9135 18.3863C80.0912 18.3863 79.5002 18.1101 79.0955 17.7054Z" fill="#D33248"/>
<path d="M78.4811 18.309H77.4339L76.5923 16.7736H75.9242V18.309H75.012V14.024H77.0163C77.9093 14.024 78.4554 14.6087 78.4554 15.4053C78.4554 16.1633 77.98 16.568 77.5174 16.6773L78.4811 18.309ZM77.5238 15.3988C77.5238 15.0391 77.2476 14.8078 76.8814 14.8078H75.9242V15.9899H76.8814C77.2476 15.9899 77.5238 15.7586 77.5238 15.3988Z" fill="#D33248"/>
<path d="M69.6436 16.1695C69.6436 14.8782 70.5879 13.9531 71.8792 13.9531C73.1769 13.9531 74.1213 14.8782 74.1213 16.1695C74.1213 17.4608 73.1769 18.3859 71.8792 18.3859C70.5879 18.3859 69.6436 17.4608 69.6436 16.1695ZM73.1833 16.1695C73.1833 15.3665 72.6694 14.7626 71.8792 14.7626C71.089 14.7626 70.5815 15.3665 70.5815 16.1695C70.5815 16.9661 71.089 17.5764 71.8792 17.5764C72.6694 17.5764 73.1833 16.9661 73.1833 16.1695Z" fill="#D33248"/>
<path d="M67.9243 18.309H67.0057V14.8271H65.7529V14.024H69.1706V14.8271H67.9243V18.309Z" fill="#D33248"/>
<path d="M64.9154 18.309H64.0032V14.024H64.9154V18.309Z" fill="#D33248"/>
<path d="M61.3852 18.3859C60.1325 18.3859 59.1367 17.4865 59.1367 16.1695C59.1367 14.8525 60.1325 13.9531 61.3852 13.9531C62.3617 13.9531 62.9077 14.4671 63.2097 15.0003L62.4259 15.3857C62.2461 15.0388 61.8606 14.7626 61.3852 14.7626C60.64 14.7626 60.0747 15.36 60.0747 16.1695C60.0747 16.9789 60.64 17.5764 61.3852 17.5764C61.8606 17.5764 62.2461 17.3066 62.4259 16.9532L63.2097 17.3323C62.9013 17.8655 62.3617 18.3859 61.3852 18.3859Z" fill="#D33248"/>
<path d="M58.2411 18.309H57.3289V14.024H58.2411V18.309Z" fill="#D33248"/>
<path d="M56.4395 18.309H53.7156V14.024H54.6278V17.506H56.4395V18.309Z" fill="#D33248"/>
<path d="M48.3472 16.1695C48.3472 14.8782 49.2915 13.9531 50.5828 13.9531C51.8805 13.9531 52.8249 14.8782 52.8249 16.1695C52.8249 17.4608 51.8805 18.3859 50.5828 18.3859C49.2915 18.3859 48.3472 17.4608 48.3472 16.1695ZM51.8869 16.1695C51.8869 15.3665 51.373 14.7626 50.5828 14.7626C49.7926 14.7626 49.2851 15.3665 49.2851 16.1695C49.2851 16.9661 49.7926 17.5764 50.5828 17.5764C51.373 17.5764 51.8869 16.9661 51.8869 16.1695Z" fill="#D33248"/>
<path d="M44.1545 17.7055L44.6556 17.0117C44.9576 17.3265 45.4265 17.5899 46.0176 17.5899C46.5187 17.5899 46.7628 17.3522 46.7628 17.1081C46.7628 16.7868 46.3902 16.6776 45.8955 16.562C45.1953 16.4014 44.2959 16.2087 44.2959 15.2514C44.2959 14.5384 44.9126 13.9602 45.9212 13.9602C46.6022 13.9602 47.1675 14.1658 47.5915 14.5576L47.084 15.2258C46.7371 14.9045 46.2745 14.7568 45.857 14.7568C45.4458 14.7568 45.2274 14.9367 45.2274 15.1936C45.2274 15.4827 45.5871 15.5727 46.0818 15.6883C46.7885 15.8489 47.6879 16.0609 47.6879 17.0117C47.6879 17.7954 47.129 18.3865 45.9726 18.3865C45.1503 18.3865 44.5593 18.1102 44.1545 17.7055Z" fill="#D33248"/>
<path d="M74.3184 11.1745H73.8362V10.0329L72.7688 8.42566H73.321L74.0793 9.60433L74.8294 8.42566H75.3816L74.3184 10.0329V11.1745Z" fill="#6A6E71"/>
<path d="M71.7333 11.1745H70.3445V8.42566H71.6962C72.199 8.42566 72.4793 8.73887 72.4793 9.12627C72.4793 9.47245 72.2567 9.70324 72.0012 9.75681C72.2938 9.80214 72.5328 10.0948 72.5328 10.4327C72.5328 10.8572 72.2485 11.1745 71.7333 11.1745ZM70.8267 8.85014V9.56311H71.5973C71.8446 9.56311 71.9847 9.41475 71.9847 9.20869C71.9847 9.00263 71.8446 8.85014 71.5973 8.85014H70.8267ZM70.8267 9.9876V10.75H71.6179C71.8817 10.75 72.0383 10.6058 72.0383 10.3668C72.0383 10.1607 71.8941 9.9876 71.6179 9.9876H70.8267Z" fill="#6A6E71"/>
<path d="M67.0531 11.1745H66.031V8.42566H67.0531C67.9103 8.42566 68.4914 8.99439 68.4914 9.80214C68.4914 10.6099 67.9103 11.1745 67.0531 11.1745ZM66.5132 8.85014V10.75H67.0531C67.6506 10.75 67.9968 10.3214 67.9968 9.80214C67.9968 9.27051 67.6671 8.85014 67.0531 8.85014H66.5132Z" fill="#6A6E71"/>
<path d="M65.3709 11.1745H63.4875V8.42566H65.3709V8.85014H63.9697V9.56311H65.3421V9.9876H63.9697V10.75H65.3709V11.1745Z" fill="#6A6E71"/>
<path d="M62.0815 11.1745H61.5993V8.85014H60.7668V8.42566H62.914V8.85014H62.0815V11.1745Z" fill="#6A6E71"/>
<path d="M60.7485 11.1745H60.221L60.0191 10.647H58.7168L58.5148 11.1745H57.9873L59.0671 8.42566H59.6688L60.7485 11.1745ZM59.8831 10.2225L59.3679 8.83366L58.8528 10.2225H59.8831Z" fill="#6A6E71"/>
<path d="M57.6762 11.1745H55.9824V8.42566H56.4646V10.75H57.6762V11.1745Z" fill="#6A6E71"/>
<path d="M52.8547 10.0906V8.42566H53.341V10.0741C53.341 10.511 53.5842 10.7954 54.0458 10.7954C54.5032 10.7954 54.7464 10.511 54.7464 10.0741V8.42566H55.2327V10.0865C55.2327 10.7706 54.8412 11.224 54.0458 11.224C53.2463 11.224 52.8547 10.7665 52.8547 10.0906Z" fill="#6A6E71"/>
<path d="M49.6125 9.80268C49.6125 8.94134 50.2596 8.38086 51.055 8.38086C51.5907 8.38086 51.941 8.63637 52.1636 8.95371L51.7679 9.17625C51.6237 8.97019 51.3641 8.80947 51.055 8.80947C50.511 8.80947 50.1071 9.22571 50.1071 9.80268C50.1071 10.3796 50.511 10.8 51.055 10.8C51.3352 10.8 51.5825 10.6681 51.7061 10.5527V10.1241H50.886V9.69965H52.1883V10.73C51.9163 11.0308 51.533 11.2286 51.055 11.2286C50.2596 11.2286 49.6125 10.664 49.6125 9.80268Z" fill="#6A6E71"/>
<path d="M49.0763 11.1745H47.1929V8.42566H49.0763V8.85014H47.6751V9.56311H49.0474V9.9876H47.6751V10.75H49.0763V11.1745Z" fill="#6A6E71"/>
<path d="M46.5667 11.1746H46.0104L45.4004 10.1484H44.9224V11.1746H44.4402V8.42572H45.6477C46.1917 8.42572 46.5461 8.78014 46.5461 9.28705C46.5461 9.77748 46.2247 10.0412 45.895 10.0948L46.5667 11.1746ZM46.0516 9.28705C46.0516 9.0233 45.8538 8.85021 45.5818 8.85021H44.9224V9.7239H45.5818C45.8538 9.7239 46.0516 9.55081 46.0516 9.28705Z" fill="#6A6E71"/>
<path d="M76.414 41.4754H74.3955V38.5294H76.414V38.9843H74.9123V39.7484H76.3831V40.2033H74.9123V41.0205H76.414V41.4754Z" fill="#6A6E71"/>
<path d="M73.6712 41.4754H73.0749L72.4212 40.3756H71.9089V41.4754H71.3921V38.5294H72.6862C73.2692 38.5294 73.6491 38.9092 73.6491 39.4525C73.6491 39.9781 73.3046 40.2608 72.9512 40.3182L73.6712 41.4754ZM73.1191 39.4525C73.1191 39.1698 72.9071 38.9843 72.6156 38.9843H71.9089V39.9207H72.6156C72.9071 39.9207 73.1191 39.7352 73.1191 39.4525Z" fill="#6A6E71"/>
<path d="M67.6521 40.0049C67.6521 39.1259 68.2749 38.4811 69.1582 38.4811C70.0416 38.4811 70.6644 39.1259 70.6644 40.0049C70.6644 40.8838 70.0416 41.5287 69.1582 41.5287C68.2749 41.5287 67.6521 40.8838 67.6521 40.0049ZM70.1344 40.0049C70.1344 39.3954 69.7501 38.9404 69.1582 38.9404C68.562 38.9404 68.1821 39.3954 68.1821 40.0049C68.1821 40.61 68.562 41.0693 69.1582 41.0693C69.7501 41.0693 70.1344 40.61 70.1344 40.0049Z" fill="#6A6E71"/>
<path d="M66.9283 41.4754H66.4115V39.2449L65.5061 41.4754H65.2852L64.3842 39.2449V41.4754H63.8674V38.5294H64.5962L65.3957 40.5125L66.1995 38.5294H66.9283V41.4754Z" fill="#6A6E71"/>
<path d="M61.6479 41.4754H61.1488L59.6117 39.3288V41.4754H59.095V38.5294H59.625L61.1311 40.6185V38.5294H61.6479V41.4754Z" fill="#6A6E71"/>
<path d="M58.3706 41.4754H57.7744L57.1207 40.3756H56.6083V41.4754H56.0916V38.5294H57.3857C57.9687 38.5294 58.3486 38.9092 58.3486 39.4525C58.3486 39.9781 58.004 40.2608 57.6507 40.3182L58.3706 41.4754ZM57.8185 39.4525C57.8185 39.1698 57.6065 38.9843 57.315 38.9843H56.6083V39.9207H57.315C57.6065 39.9207 57.8185 39.7352 57.8185 39.4525Z" fill="#6A6E71"/>
<path d="M55.5403 41.4754H54.975L54.7586 40.91H53.3628L53.1464 41.4754H52.5811L53.7383 38.5294H54.3831L55.5403 41.4754ZM54.6128 40.4551L54.0607 38.9666L53.5086 40.4551H54.6128Z" fill="#6A6E71"/>
<path d="M52.1301 41.4754H50.1116V38.5294H52.1301V38.9843H50.6283V39.7484H52.0991V40.2033H50.6283V41.0205H52.1301V41.4754Z" fill="#6A6E71"/>
<path d="M49.4154 41.4754H47.6001V38.5294H48.1169V41.0205H49.4154V41.4754Z" fill="#6A6E71"/>
<path d="M79.9319 32.6127H79.0197V30.8588L77.3687 28.3277H78.4094L79.4758 30.0494L80.5294 28.3277H81.5701L79.9319 30.8588V32.6127Z" fill="#D33248"/>
<path d="M75.8005 32.6127H74.8819V29.1307H73.6292V28.3277H77.0468V29.1307H75.8005V32.6127Z" fill="#D33248"/>
<path d="M72.8495 32.6127H71.9373V28.3277H72.8495V32.6127Z" fill="#D33248"/>
<path d="M71.0848 32.6127H70.0377L69.1961 31.0773H68.528V32.6127H67.6157V28.3277H69.6201C70.5131 28.3277 71.0591 28.9123 71.0591 29.7089C71.0591 30.467 70.5837 30.8717 70.1212 30.9809L71.0848 32.6127ZM70.1276 29.7025C70.1276 29.3427 69.8514 29.1115 69.4852 29.1115H68.528V30.2935H69.4852C69.8514 30.2935 70.1276 30.0622 70.1276 29.7025Z" fill="#D33248"/>
<path d="M62.3054 30.4732C62.3054 29.1819 63.2498 28.2568 64.5411 28.2568C65.8388 28.2568 66.7831 29.1819 66.7831 30.4732C66.7831 31.7644 65.8388 32.6895 64.5411 32.6895C63.2498 32.6895 62.3054 31.7644 62.3054 30.4732ZM65.8452 30.4732C65.8452 29.6701 65.3312 29.0663 64.5411 29.0663C63.7509 29.0663 63.2434 29.6701 63.2434 30.4732C63.2434 31.2698 63.7509 31.8801 64.5411 31.8801C65.3312 31.8801 65.8452 31.2698 65.8452 30.4732Z" fill="#D33248"/>
<path d="M61.4737 32.6127H60.555V30.8139H58.5314V32.6127H57.6191V28.3277H58.5314V30.0108H60.555V28.3277H61.4737V32.6127Z" fill="#D33248"/>
<path d="M55.596 32.6127H54.6773V29.1307H53.4246V28.3277H56.8423V29.1307H55.596V32.6127Z" fill="#D33248"/>
<path d="M48.8208 30.9038V28.3277H49.7459V30.8717C49.7459 31.4692 50.0735 31.8803 50.7416 31.8803C51.3969 31.8803 51.7246 31.4692 51.7246 30.8717V28.3277H52.6496V30.8974C52.6496 31.9638 52.0393 32.6898 50.7416 32.6898C49.4311 32.6898 48.8208 31.9574 48.8208 30.9038Z" fill="#D33248"/>
<path d="M48.4461 32.6127H47.4504L47.1806 31.8739H45.2661L44.9963 32.6127H43.9941L45.6516 28.3277H46.7951L48.4461 32.6127ZM46.93 31.0837L46.2234 29.1179L45.5103 31.0837H46.93Z" fill="#D33248"/>
</svg>
