<svg width="94" height="32" viewBox="0 0 94 32" fill="none" xmlns="http://www.w3.org/2000/svg">
<g clip-path="url(#clip0_1_4531)">
<g clip-path="url(#clip1_1_4531)">
<g clip-path="url(#clip2_1_4531)">
<path d="M12.4531 4.05307H17.2517V4.93234H15.3652V9.87612H14.3271V4.93234H12.4487V4.05273H12.4528L12.4531 4.05307ZM17.0468 5.65958H17.9339V6.4735H17.9505C17.9799 6.35839 18.0341 6.24734 18.1137 6.14035C18.2838 5.91104 18.5141 5.73328 18.779 5.62674C18.9135 5.57342 19.0568 5.54553 19.2015 5.54447C19.3098 5.54447 19.3897 5.54853 19.4317 5.55293C19.4734 5.557 19.515 5.56512 19.5611 5.56919V6.46504C19.4931 6.45315 19.4248 6.44356 19.3562 6.43626C19.2881 6.42821 19.2196 6.42413 19.151 6.42407C18.9919 6.42407 18.8416 6.45691 18.6994 6.51887C18.5572 6.58015 18.4356 6.67461 18.3314 6.79413C18.2201 6.92776 18.1349 7.08107 18.0802 7.24612C18.0175 7.42691 17.9881 7.63209 17.9881 7.86672V9.87206H17.0428V5.65958H17.0468ZM23.9079 9.87646H22.9792V9.28871H22.9623C22.8452 9.50268 22.6739 9.67129 22.4436 9.79859C22.2134 9.92589 21.9791 9.99158 21.7408 9.99158C21.176 9.99158 20.7657 9.85615 20.5151 9.58055C20.2639 9.3053 20.1383 8.89021 20.1383 8.3353V5.65992H21.0839V8.2449C21.0839 8.61495 21.155 8.87802 21.3016 9.03004C21.4438 9.18206 21.6487 9.26027 21.908 9.26027C22.1088 9.26027 22.272 9.23149 22.4057 9.16953C22.5398 9.10791 22.6485 9.03004 22.728 8.92711C22.8117 8.82859 22.8702 8.70535 22.9081 8.56552C22.9454 8.42569 22.9623 8.27368 22.9623 8.10947V5.66399H23.9079V9.87646ZM25.5185 8.52456C25.548 8.79541 25.6523 8.98501 25.8324 9.09572C26.0162 9.20271 26.2339 9.26027 26.4892 9.26027C26.5772 9.26027 26.6774 9.2518 26.7905 9.23961C26.9033 9.22709 27.0119 9.19831 27.1084 9.16174C27.2087 9.1245 27.2879 9.06694 27.3549 8.99314C27.4179 8.91865 27.447 8.82453 27.4429 8.70535C27.4424 8.65004 27.4302 8.59547 27.4072 8.54518C27.3841 8.4949 27.3507 8.45003 27.3092 8.41351C27.2252 8.33563 27.121 8.27808 26.991 8.22865C26.8461 8.17847 26.6979 8.13864 26.5474 8.10947C26.3802 8.07663 26.2129 8.03939 26.0416 8.00248C25.869 7.96514 25.6986 7.91846 25.531 7.86265C25.3739 7.81229 25.2257 7.73745 25.0919 7.64089C24.9615 7.54991 24.8552 7.4286 24.7821 7.28742C24.7029 7.14353 24.665 6.9668 24.665 6.75316C24.665 6.52293 24.7236 6.33401 24.8366 6.17759C24.9507 6.02248 25.0979 5.89478 25.2676 5.80381C25.45 5.70741 25.646 5.63947 25.849 5.60237C26.0623 5.56546 26.2674 5.54481 26.4597 5.54481C26.6815 5.54481 26.8948 5.56952 27.0959 5.61489C27.2906 5.65658 27.4762 5.73308 27.6437 5.84072C27.8069 5.94364 27.9406 6.07907 28.0497 6.24362C28.1583 6.40782 28.2254 6.60927 28.2545 6.84356H27.2672C27.2212 6.6218 27.1206 6.46978 26.9578 6.39563C26.7946 6.31776 26.6063 6.28052 26.3971 6.28052C26.3301 6.28052 26.2505 6.28458 26.1587 6.29711C26.0703 6.30887 25.9833 6.32951 25.8991 6.35873C25.822 6.38709 25.7521 6.43192 25.6942 6.49009C25.6661 6.52045 25.6443 6.55605 25.6299 6.59485C25.6156 6.63366 25.609 6.67491 25.6106 6.71626C25.6106 6.83137 25.6522 6.92177 25.7318 6.99151C25.8114 7.06126 25.916 7.11882 26.0457 7.16825C26.1753 7.21362 26.3219 7.25458 26.4892 7.28742C26.6564 7.32027 26.8278 7.35717 27.0038 7.39441C27.1751 7.43132 27.3424 7.48075 27.51 7.5339C27.6772 7.5874 27.8235 7.66154 27.9535 7.756C28.0832 7.85046 28.1878 7.96558 28.267 8.10541C28.3466 8.2449 28.3886 8.42163 28.3886 8.62714C28.3886 8.87768 28.33 9.0876 28.2125 9.26433C28.0957 9.437 27.945 9.58055 27.7609 9.68754C27.568 9.79861 27.3591 9.87902 27.1416 9.92589C26.9203 9.97458 26.6944 9.99932 26.4679 9.9997C26.2141 10.0026 25.9611 9.97216 25.7152 9.9093C25.485 9.84768 25.2842 9.75729 25.117 9.63845C24.9517 9.51834 24.8158 9.36229 24.7195 9.18206C24.6233 9.00126 24.5729 8.78322 24.5648 8.53268H25.5185V8.52456ZM28.6394 5.66026H29.3548V4.39401H30.3005V5.66026H31.1537V6.35433H30.3008V8.60683C30.3008 8.70501 30.3049 8.78762 30.3133 8.86143C30.3215 8.93152 30.3424 8.99314 30.3719 9.04223C30.4039 9.09381 30.4525 9.13297 30.5097 9.15328C30.5727 9.17799 30.6519 9.19052 30.7609 9.19052C30.8276 9.19052 30.8947 9.19052 30.9617 9.18612C31.0287 9.18206 31.0954 9.17393 31.1625 9.15734V9.87646C31.0578 9.88899 30.9532 9.89712 30.8571 9.9093C30.7557 9.92109 30.6537 9.92663 30.5517 9.92589C30.3008 9.92589 30.1 9.90118 29.949 9.85615C29.7987 9.81078 29.6772 9.74103 29.5935 9.65064C29.5055 9.56024 29.4513 9.44919 29.4178 9.31342C29.3852 9.16074 29.3671 9.00533 29.3636 8.84924V6.36211H28.6482V5.65925H28.6398L28.6394 5.66026ZM31.823 5.66026H32.7185V6.23109H32.7355C32.8689 5.98461 33.053 5.81194 33.2914 5.70529C33.535 5.59697 33.7991 5.54224 34.0657 5.54481C34.4043 5.54481 34.6971 5.60237 34.9483 5.72154C35.1992 5.83666 35.4085 5.99714 35.5757 6.20231C35.743 6.40782 35.8645 6.64617 35.9481 6.91771C36.0333 7.20017 36.0757 7.49382 36.0737 7.78885C36.0737 8.07223 36.0362 8.34748 35.9607 8.61089C35.8913 8.86497 35.7765 9.10437 35.6218 9.31748C35.4697 9.52294 35.2721 9.69039 35.0445 9.80672C34.8102 9.92996 34.5383 9.99158 34.2204 9.99158C34.0815 9.99142 33.9428 9.97896 33.806 9.95433C33.6696 9.92975 33.5364 9.88989 33.4089 9.8355C33.2822 9.78264 33.1638 9.71196 33.0571 9.62558C32.9518 9.54161 32.8601 9.44192 32.7852 9.33001H32.7683V11.4342H31.823V5.65958V5.66026ZM35.1281 7.77226C35.1283 7.58485 35.103 7.39828 35.053 7.21768C35.0066 7.04656 34.93 6.88512 34.8268 6.74097C34.7289 6.60384 34.6018 6.49007 34.4547 6.40782C34.2967 6.32246 34.1196 6.27865 33.9401 6.28052C33.5426 6.28052 33.2413 6.41595 33.0405 6.68748C32.8397 6.95867 32.7392 7.3206 32.7392 7.77226C32.7392 7.98589 32.7646 8.18328 32.8187 8.36407C32.8729 8.54487 32.9484 8.70129 33.0571 8.83265C33.1621 8.96436 33.2873 9.06694 33.4339 9.14075C33.5802 9.21896 33.7518 9.25587 33.9441 9.25587C34.1618 9.25587 34.3416 9.21084 34.4923 9.1245C34.6382 9.04056 34.7638 8.92555 34.8603 8.78762C34.9565 8.6478 35.0279 8.49138 35.0696 8.31498C35.1081 8.13663 35.1277 7.95472 35.1281 7.77226ZM36.7973 4.05307H37.7429V4.93268H36.7973V4.05307ZM36.7973 5.65992H37.7429V9.87646H36.7973V5.65992ZM38.588 4.05307H39.5336V9.87646H38.588V4.05307ZM42.4328 9.99158C42.0894 9.99158 41.7841 9.93402 41.5166 9.82331C41.2602 9.71814 41.0281 9.56141 40.8347 9.36285C40.6467 9.16029 40.5027 8.92097 40.4118 8.65998C40.3123 8.3719 40.2628 8.06891 40.2656 7.76413C40.2656 7.4435 40.3157 7.14793 40.4118 6.8764C40.5028 6.61554 40.6468 6.37634 40.8347 6.17387C41.0185 5.97648 41.2488 5.82447 41.5166 5.71342C41.7841 5.60237 42.0894 5.54481 42.4328 5.54481C42.7757 5.54481 43.0811 5.60237 43.3489 5.71342C43.6167 5.82447 43.8426 5.98089 44.0308 6.17387C44.2188 6.37627 44.3626 6.6155 44.4533 6.8764C44.5495 7.1476 44.5996 7.4435 44.5996 7.76413C44.5996 8.08916 44.5495 8.38879 44.4533 8.65998C44.3627 8.92101 44.2188 9.16036 44.0308 9.36285C43.8466 9.56024 43.6167 9.71226 43.3489 9.82331C43.0811 9.93402 42.7757 9.99158 42.4328 9.99158ZM42.4328 9.25587C42.642 9.25587 42.8258 9.21084 42.9806 9.1245C43.1314 9.04055 43.2615 8.92395 43.3614 8.78322C43.4617 8.64373 43.5328 8.48325 43.5832 8.30652C43.6293 8.12978 43.6543 7.94899 43.6543 7.76413C43.6543 7.58333 43.6293 7.4066 43.5832 7.2258C43.5401 7.05431 43.4648 6.89255 43.3614 6.7491C43.2613 6.60971 43.1311 6.49459 42.9806 6.41222C42.8258 6.32589 42.642 6.28052 42.4328 6.28052C42.2235 6.28052 42.0393 6.32589 41.8846 6.41222C41.735 6.49585 41.6052 6.61075 41.5041 6.7491C41.4021 6.8934 41.327 7.05488 41.2823 7.2258C41.236 7.40153 41.212 7.5824 41.2109 7.76413C41.2109 7.94899 41.2362 8.12978 41.2823 8.30652C41.3283 8.48325 41.4035 8.64373 41.5041 8.78322C41.6043 8.92305 41.7299 9.03817 41.8846 9.1245C42.0393 9.2149 42.2235 9.25587 42.4328 9.25587ZM44.8759 5.66026H45.5913V4.39401H46.5369V5.66026H47.3901V6.35433H46.5369V8.60683C46.5369 8.70501 46.5409 8.78762 46.5491 8.86143C46.5575 8.93152 46.5785 8.99314 46.608 9.04223C46.6399 9.09386 46.6885 9.13304 46.7458 9.15328C46.8088 9.17799 46.888 9.19052 46.997 9.19052C47.0637 9.19052 47.1307 9.19052 47.1978 9.18612C47.2648 9.18206 47.3315 9.17393 47.3985 9.15734V9.87646C47.2939 9.88899 47.1893 9.89712 47.0932 9.9093C46.9918 9.92108 46.8898 9.92662 46.7878 9.92589C46.5369 9.92589 46.3358 9.90118 46.1851 9.85615C46.0348 9.81078 45.9132 9.74103 45.8296 9.65064C45.7419 9.56024 45.6874 9.44919 45.6539 9.31342C45.6214 9.16073 45.6032 9.00532 45.5997 8.84924V6.36211H44.8843V5.65925H44.8759V5.66026Z" fill="#1C1C1C"/>
<path d="M11.3499 4.05233H7.01583L5.67713 0L4.33369 4.05267L0 4.04827L3.50995 6.55504L2.16718 10.603L5.67713 8.10027L9.18301 10.603L7.84431 6.55504L11.3499 4.05233Z" fill="#04DA8D"/>
<path d="M8.14493 7.47119L7.8436 6.55469L5.67676 8.09992L8.14493 7.47119Z" fill="#126849"/>
</g>
</g>
</g>
<path d="M14.7978 16.7438H0V31.5416H14.7978V16.7438Z" fill="#00B67A"/>
<path d="M7.39945 26.7168L9.64995 26.1465L10.5902 29.0444L7.39945 26.7168ZM12.5787 22.9711H8.61718L7.39945 19.2408L6.18171 22.9711H2.22021L5.42641 25.2833L4.20867 29.0136L7.41486 26.7014L9.3879 25.2833L12.5787 22.9711Z" fill="#FBFEFF"/>
<path d="M30.8496 16.7439H16.0518V31.5417H30.8496V16.7439Z" fill="#00B67A"/>
<path d="M23.4502 26.7169L25.7007 26.1466L26.641 29.0445L23.4502 26.7169ZM28.6295 22.9712H24.668L23.4502 19.241L22.2325 22.9712H18.271L21.4772 25.2834L20.2594 29.0137L23.4656 26.7015L25.4387 25.2834L28.6295 22.9712Z" fill="#FBFEFF"/>
<path d="M46.9018 16.7439H32.104V31.5417H46.9018V16.7439Z" fill="#00B67A"/>
<path d="M39.5035 26.7169L41.754 26.1466L42.6942 29.0445L39.5035 26.7169ZM44.6827 22.9712H40.7212L39.5035 19.241L38.2857 22.9712H34.3242L37.5304 25.2834L36.3127 29.0137L39.5189 26.7015L41.4919 25.2834L44.6827 22.9712Z" fill="#FBFEFF"/>
<path d="M62.9536 16.7439H48.1558V31.5417H62.9536V16.7439Z" fill="#00B67A"/>
<path d="M55.5552 26.7169L57.8057 26.1466L58.746 29.0445L55.5552 26.7169ZM60.7344 22.9712H56.7729L55.5552 19.241L54.3375 22.9712H50.376L53.5822 25.2834L52.3644 29.0137L55.5706 26.7015L57.5437 25.2834L60.7344 22.9712Z" fill="#FBFEFF"/>
<path d="M79.0058 16.7439H64.208V31.5417H79.0058V16.7439Z" fill="#DCDCE5"/>
<path d="M71.6381 16.7439H64.208V31.5417H71.6381V16.7439Z" fill="#00B67A"/>
<path d="M71.6075 26.7169L73.858 26.1466L74.7982 29.0445L71.6075 26.7169ZM76.7867 22.9712H72.8252L71.6075 19.241L70.3897 22.9712H66.4282L69.6344 25.2834L68.4167 29.0137L71.6229 26.7015L73.5959 25.2834L76.7867 22.9712Z" fill="#FBFEFF"/>
<path d="M93.4725 22.866L92.8766 22.9126C92.8233 22.6774 92.7479 22.5065 92.6502 22.3999C92.4882 22.229 92.2884 22.1436 92.051 22.1436C91.8601 22.1436 91.6925 22.1969 91.5483 22.3034C91.3596 22.441 91.2109 22.6419 91.1021 22.906C90.9934 23.1701 90.9368 23.5463 90.9324 24.0346C91.0766 23.8149 91.2531 23.6517 91.4617 23.5452C91.6703 23.4387 91.8889 23.3854 92.1175 23.3854C92.517 23.3854 92.8566 23.533 93.1363 23.8282C93.4181 24.1211 93.5591 24.5007 93.5591 24.9668C93.5591 25.273 93.4925 25.5582 93.3593 25.8224C93.2284 26.0843 93.0475 26.2851 92.8167 26.4249C92.5858 26.5648 92.324 26.6347 92.031 26.6347C91.5316 26.6347 91.1243 26.4516 90.8092 26.0854C90.494 25.7169 90.3364 25.111 90.3364 24.2676C90.3364 23.3244 90.5107 22.6385 90.8591 22.2102C91.1632 21.8373 91.5727 21.6509 92.0876 21.6509C92.4715 21.6509 92.7856 21.7585 93.0297 21.9738C93.2761 22.1891 93.4237 22.4865 93.4725 22.866ZM91.0256 24.9701C91.0256 25.1765 91.0688 25.374 91.1554 25.5627C91.2442 25.7513 91.3674 25.8956 91.5249 25.9955C91.6825 26.0931 91.8479 26.142 92.021 26.142C92.274 26.142 92.4915 26.0399 92.6735 25.8357C92.8555 25.6315 92.9465 25.354 92.9465 25.0034C92.9465 24.666 92.8566 24.4008 92.6768 24.2077C92.4971 24.0124 92.2707 23.9147 91.9977 23.9147C91.7269 23.9147 91.4972 24.0124 91.3085 24.2077C91.1199 24.4008 91.0256 24.6549 91.0256 24.9701Z" fill="#696A6A"/>
<path d="M88.584 25.6622H89.3031V26.4123H88.584V25.6622Z" fill="#696A6A"/>
<path d="M86.3887 24.8586V22.6256L84.8094 24.8586H86.3887ZM86.399 26.6031V25.3988H84.2383V24.7933L86.4954 21.6622H87.0184V24.8586H87.7444V25.3988H87.0184V26.6031H86.399Z" fill="#696A6A"/>
<defs>
<clipPath id="clip0_1_4531">
<rect width="47.3997" height="11.5114" fill="white"/>
</clipPath>
<clipPath id="clip1_1_4531">
<rect width="47.3997" height="11.5114" fill="white"/>
</clipPath>
<clipPath id="clip2_1_4531">
<rect width="47.3997" height="11.5114" fill="white"/>
</clipPath>
</defs>
</svg>
