<svg width="343" height="44" viewBox="0 0 343 44" fill="none" xmlns="http://www.w3.org/2000/svg">
<path d="M10 0.75H333C338.109 0.75 342.25 4.89137 342.25 10V34C342.25 39.1086 338.109 43.25 333 43.25H10C4.89137 43.25 0.75 39.1086 0.75 34V10C0.750001 4.89137 4.89137 0.75 10 0.75Z" fill="#D9D9D9"/>
<path d="M10 0.75H333C338.109 0.75 342.25 4.89137 342.25 10V34C342.25 39.1086 338.109 43.25 333 43.25H10C4.89137 43.25 0.75 39.1086 0.75 34V10C0.750001 4.89137 4.89137 0.75 10 0.75Z" stroke="black" stroke-width="1.5"/>
<path d="M126.753 27.5L123.041 16.22H124.609L127.857 26.684H127.905L131.153 16.22H132.689L128.993 27.5H126.753ZM134.309 27.5V19.148H135.669V27.5H134.309ZM135.013 17.676C134.757 17.676 134.538 17.5907 134.357 17.42C134.176 17.2493 134.085 17.0307 134.085 16.764C134.085 16.508 134.176 16.2947 134.357 16.124C134.538 15.9533 134.757 15.868 135.013 15.868C135.258 15.868 135.466 15.9533 135.637 16.124C135.818 16.2947 135.909 16.508 135.909 16.764C135.909 17.0307 135.818 17.2493 135.637 17.42C135.466 17.5907 135.258 17.676 135.013 17.676ZM141.579 27.692C140.758 27.692 140.048 27.5107 139.451 27.148C138.864 26.7747 138.411 26.2573 138.091 25.596C137.782 24.9347 137.627 24.1613 137.627 23.276C137.627 22.412 137.792 21.66 138.123 21.02C138.464 20.3693 138.928 19.8627 139.515 19.5C140.112 19.1373 140.779 18.956 141.515 18.956C142.262 18.956 142.912 19.1107 143.467 19.42C144.022 19.7293 144.448 20.172 144.747 20.748C145.056 21.324 145.211 22.0067 145.211 22.796C145.211 22.956 145.206 23.1107 145.195 23.26C145.195 23.3987 145.19 23.516 145.179 23.612H138.427V22.572H144.347L143.867 22.812C143.878 22.2253 143.787 21.7293 143.595 21.324C143.403 20.908 143.126 20.5933 142.763 20.38C142.4 20.1667 141.974 20.06 141.483 20.06C141.024 20.06 140.608 20.1667 140.235 20.38C139.862 20.5827 139.568 20.908 139.355 21.356C139.142 21.7933 139.035 22.3693 139.035 23.084V23.34C139.035 24.3533 139.254 25.1427 139.691 25.708C140.128 26.2627 140.784 26.54 141.659 26.54C142.182 26.54 142.624 26.4333 142.987 26.22C143.36 25.996 143.67 25.6547 143.915 25.196L145.003 25.724C144.811 26.1613 144.555 26.5293 144.235 26.828C143.915 27.116 143.531 27.3347 143.083 27.484C142.646 27.6227 142.144 27.692 141.579 27.692ZM148.37 27.5L146.386 19.148H147.794L149.362 26.652H149.394L151.074 19.148H153.09L154.754 26.652H154.786L156.37 19.148H157.762L155.778 27.5H153.778L152.098 19.996H152.05L150.37 27.5H148.37ZM163.782 27.5V16.22H165.206V26.828L164.598 26.252H170.438V27.5H163.782ZM175.173 27.692C174.351 27.692 173.642 27.5107 173.045 27.148C172.458 26.7747 172.005 26.2573 171.685 25.596C171.375 24.9347 171.221 24.1613 171.221 23.276C171.221 22.412 171.386 21.66 171.717 21.02C172.058 20.3693 172.522 19.8627 173.109 19.5C173.706 19.1373 174.373 18.956 175.109 18.956C175.855 18.956 176.506 19.1107 177.061 19.42C177.615 19.7293 178.042 20.172 178.341 20.748C178.65 21.324 178.805 22.0067 178.805 22.796C178.805 22.956 178.799 23.1107 178.789 23.26C178.789 23.3987 178.783 23.516 178.773 23.612H172.021V22.572H177.941L177.461 22.812C177.471 22.2253 177.381 21.7293 177.189 21.324C176.997 20.908 176.719 20.5933 176.357 20.38C175.994 20.1667 175.567 20.06 175.077 20.06C174.618 20.06 174.202 20.1667 173.829 20.38C173.455 20.5827 173.162 20.908 172.949 21.356C172.735 21.7933 172.629 22.3693 172.629 23.084V23.34C172.629 24.3533 172.847 25.1427 173.285 25.708C173.722 26.2627 174.378 26.54 175.253 26.54C175.775 26.54 176.218 26.4333 176.581 26.22C176.954 25.996 177.263 25.6547 177.509 25.196L178.597 25.724C178.405 26.1613 178.149 26.5293 177.829 26.828C177.509 27.116 177.125 27.3347 176.677 27.484C176.239 27.6227 175.738 27.692 175.173 27.692ZM186.156 27.5V22.204C186.156 21.5 185.98 20.9827 185.628 20.652C185.286 20.3107 184.833 20.14 184.268 20.14C183.606 20.14 183.073 20.3533 182.668 20.78C182.262 21.2067 182.06 21.7827 182.06 22.508V27.5H180.7V19.148H181.964V20.556H181.996C182.22 20.0547 182.55 19.6653 182.988 19.388C183.436 19.1 183.974 18.956 184.604 18.956C185.201 18.956 185.718 19.0733 186.156 19.308C186.593 19.532 186.929 19.8733 187.164 20.332C187.398 20.7907 187.516 21.3667 187.516 22.06V27.5H186.156ZM193.025 27.692C192.31 27.692 191.676 27.516 191.121 27.164C190.577 26.812 190.15 26.3107 189.841 25.66C189.532 24.9987 189.377 24.2147 189.377 23.308C189.377 22.412 189.532 21.6387 189.841 20.988C190.15 20.3267 190.577 19.8253 191.121 19.484C191.676 19.132 192.31 18.956 193.025 18.956C193.42 18.956 193.793 19.0253 194.145 19.164C194.497 19.3027 194.812 19.5053 195.089 19.772C195.366 20.028 195.58 20.3373 195.729 20.7H195.777V15.916H197.137V27.5H195.873V25.948H195.825C195.676 26.3 195.457 26.6093 195.169 26.876C194.892 27.1427 194.566 27.3453 194.193 27.484C193.82 27.6227 193.43 27.692 193.025 27.692ZM193.297 26.524C193.809 26.524 194.257 26.4013 194.641 26.156C195.025 25.9 195.324 25.532 195.537 25.052C195.761 24.572 195.873 23.9907 195.873 23.308C195.873 22.6467 195.761 22.0813 195.537 21.612C195.313 21.132 195.009 20.764 194.625 20.508C194.241 20.2413 193.798 20.108 193.297 20.108C192.806 20.108 192.369 20.236 191.985 20.492C191.612 20.7373 191.318 21.1 191.105 21.58C190.892 22.0493 190.785 22.6253 190.785 23.308C190.785 23.9907 190.892 24.572 191.105 25.052C191.318 25.532 191.612 25.9 191.985 26.156C192.369 26.4013 192.806 26.524 193.297 26.524ZM203.048 27.692C202.226 27.692 201.517 27.5107 200.92 27.148C200.333 26.7747 199.88 26.2573 199.56 25.596C199.25 24.9347 199.096 24.1613 199.096 23.276C199.096 22.412 199.261 21.66 199.592 21.02C199.933 20.3693 200.397 19.8627 200.984 19.5C201.581 19.1373 202.248 18.956 202.984 18.956C203.73 18.956 204.381 19.1107 204.936 19.42C205.49 19.7293 205.917 20.172 206.216 20.748C206.525 21.324 206.68 22.0067 206.68 22.796C206.68 22.956 206.674 23.1107 206.664 23.26C206.664 23.3987 206.658 23.516 206.648 23.612H199.896V22.572H205.816L205.336 22.812C205.346 22.2253 205.256 21.7293 205.064 21.324C204.872 20.908 204.594 20.5933 204.232 20.38C203.869 20.1667 203.442 20.06 202.952 20.06C202.493 20.06 202.077 20.1667 201.704 20.38C201.33 20.5827 201.037 20.908 200.824 21.356C200.61 21.7933 200.504 22.3693 200.504 23.084V23.34C200.504 24.3533 200.722 25.1427 201.16 25.708C201.597 26.2627 202.253 26.54 203.128 26.54C203.65 26.54 204.093 26.4333 204.456 26.22C204.829 25.996 205.138 25.6547 205.384 25.196L206.472 25.724C206.28 26.1613 206.024 26.5293 205.704 26.828C205.384 27.116 205 27.3347 204.552 27.484C204.114 27.6227 203.613 27.692 203.048 27.692ZM208.575 27.5V19.148H209.839V20.572H209.871C210.02 20.0813 210.287 19.692 210.671 19.404C211.055 19.1053 211.503 18.956 212.015 18.956C212.121 18.956 212.223 18.9613 212.319 18.972C212.425 18.9827 212.516 18.9987 212.591 19.02V20.268C212.495 20.2467 212.399 20.2307 212.303 20.22C212.217 20.2093 212.116 20.204 211.999 20.204C211.615 20.204 211.263 20.3 210.943 20.492C210.633 20.6733 210.388 20.9347 210.207 21.276C210.025 21.6067 209.935 22.0067 209.935 22.476V27.5H208.575ZM216.625 27.692C215.74 27.692 215.004 27.5 214.417 27.116C213.831 26.732 213.431 26.1613 213.217 25.404L214.465 25.02C214.636 25.5747 214.903 25.98 215.265 26.236C215.639 26.4813 216.103 26.604 216.657 26.604C217.212 26.604 217.639 26.492 217.937 26.268C218.236 26.0333 218.385 25.6973 218.385 25.26C218.385 24.8973 218.284 24.6147 218.081 24.412C217.879 24.2093 217.559 24.0493 217.121 23.932L215.665 23.532C215.015 23.3613 214.519 23.0893 214.177 22.716C213.847 22.3427 213.681 21.8787 213.681 21.324C213.681 20.844 213.804 20.428 214.049 20.076C214.305 19.7133 214.657 19.436 215.105 19.244C215.564 19.052 216.092 18.956 216.689 18.956C217.212 18.956 217.676 19.0307 218.081 19.18C218.497 19.3187 218.849 19.5267 219.137 19.804C219.425 20.0813 219.628 20.428 219.745 20.844L218.529 21.26C218.369 20.844 218.129 20.54 217.809 20.348C217.5 20.1453 217.116 20.044 216.657 20.044C216.135 20.044 215.735 20.1507 215.457 20.364C215.18 20.5773 215.041 20.8707 215.041 21.244C215.041 21.532 215.132 21.7773 215.313 21.98C215.495 22.172 215.804 22.3267 216.241 22.444L217.713 22.844C218.14 22.9613 218.503 23.1213 218.801 23.324C219.111 23.516 219.345 23.7667 219.505 24.076C219.665 24.3747 219.745 24.748 219.745 25.196C219.745 25.708 219.612 26.1507 219.345 26.524C219.089 26.8973 218.727 27.1853 218.257 27.388C217.799 27.5907 217.255 27.692 216.625 27.692Z" fill="black"/>
</svg>
