<svg width="244" height="54" viewBox="0 0 244 54" fill="none" xmlns="http://www.w3.org/2000/svg">
<path d="M11.7682 17.424L17.1922 0.503949H21.6562L27.0802 17.424H24.2482L19.4482 1.75195H19.4242L14.6002 17.424H11.7682ZM15.4402 11.5919V9.38395H23.4082V11.5919H15.4402ZM31.1055 17.424L26.9775 4.99195H29.8095L33.0495 15.936H33.0735L36.3375 4.99195H39.1455L35.0175 17.424H31.1055ZM46.0468 17.712C44.7988 17.712 43.7188 17.44 42.8068 16.896C41.8948 16.352 41.1988 15.584 40.7188 14.5919C40.2388 13.6 39.9988 12.4479 39.9988 11.1359C39.9988 9.85595 40.2548 8.73595 40.7668 7.77595C41.2788 6.81595 41.9828 6.06395 42.8788 5.51995C43.7748 4.97595 44.7988 4.70395 45.9508 4.70395C47.0868 4.70395 48.0708 4.94395 48.9028 5.42395C49.7508 5.88795 50.4068 6.55995 50.8708 7.43995C51.3508 8.30395 51.5908 9.32795 51.5908 10.5119C51.5908 10.752 51.5828 10.992 51.5668 11.2319C51.5668 11.4559 51.5508 11.6479 51.5188 11.8079H41.3428V9.98395H49.9348L49.0708 10.368C49.0868 9.56795 48.9668 8.89595 48.7108 8.35195C48.4548 7.80795 48.0868 7.39995 47.6068 7.12795C47.1268 6.83995 46.5508 6.69595 45.8788 6.69595C45.2548 6.69595 44.6868 6.83995 44.1748 7.12795C43.6788 7.39995 43.2868 7.83195 42.9988 8.42395C42.7108 8.99995 42.5668 9.74395 42.5668 10.656V11.424C42.5668 12.7359 42.8628 13.7599 43.4548 14.4959C44.0628 15.232 44.9588 15.6 46.1428 15.6C46.8788 15.6 47.5028 15.448 48.0148 15.144C48.5428 14.824 48.9668 14.328 49.2868 13.656L51.3268 14.64C51.0228 15.312 50.6148 15.88 50.1028 16.344C49.6068 16.792 49.0148 17.136 48.3268 17.376C47.6548 17.6 46.8948 17.712 46.0468 17.712ZM53.7461 17.424V4.99195H56.1461V6.69595H56.1701C56.4101 6.08795 56.7941 5.60795 57.3221 5.25595C57.8661 4.88795 58.5061 4.70395 59.2421 4.70395C59.4021 4.70395 59.5541 4.71195 59.6981 4.72795C59.8581 4.74395 59.9861 4.76795 60.0821 4.79995V7.19995C59.9221 7.15195 59.7621 7.12795 59.6021 7.12795C59.4581 7.11195 59.2981 7.10395 59.1221 7.10395C58.6101 7.10395 58.1381 7.22395 57.7061 7.46395C57.2741 7.68795 56.9301 8.03995 56.6741 8.51995C56.4341 8.99995 56.3141 9.60795 56.3141 10.3439V17.424H53.7461ZM65.1753 17.712C63.9433 17.712 62.9433 17.392 62.1753 16.752C61.4073 16.096 61.0233 15.224 61.0233 14.1359C61.0233 13.0799 61.3753 12.2319 62.0793 11.5919C62.7993 10.9359 63.7673 10.4959 64.9833 10.272L69.9273 9.31195V11.0639L65.9913 11.88C65.2233 12.0399 64.6393 12.2799 64.2393 12.6C63.8393 12.92 63.6393 13.3759 63.6393 13.9679C63.6393 14.544 63.8313 14.992 64.2153 15.312C64.6153 15.616 65.1513 15.768 65.8233 15.768C66.4153 15.768 66.9353 15.64 67.3833 15.384C67.8473 15.128 68.1993 14.768 68.4393 14.3039C68.6953 13.8399 68.8233 13.3119 68.8233 12.7199V9.19195C68.8233 8.42395 68.6153 7.83195 68.1993 7.41595C67.7993 6.98395 67.2153 6.76795 66.4473 6.76795C65.7113 6.76795 65.1273 6.94395 64.6953 7.29595C64.2633 7.63195 63.9673 8.12795 63.8073 8.78395L61.3353 8.25595C61.5913 7.18395 62.1753 6.32795 63.0873 5.68795C63.9993 5.03195 65.1353 4.70395 66.4953 4.70395C68.1273 4.70395 69.3513 5.11195 70.1673 5.92795C70.9833 6.74395 71.3913 7.87195 71.3913 9.31195V14.952L72.3033 17.424H69.6393L69.0633 15.792H69.0153C68.6473 16.4 68.1353 16.872 67.4793 17.208C66.8233 17.544 66.0553 17.712 65.1753 17.712ZM79.4619 22.512C77.9419 22.512 76.6859 22.208 75.6939 21.6C74.7019 21.008 74.0219 20.088 73.6539 18.84L75.9579 18.072C76.1819 18.792 76.5739 19.36 77.1339 19.776C77.6939 20.208 78.4539 20.424 79.4139 20.424C80.5659 20.424 81.4379 20.12 82.0299 19.512C82.6379 18.92 82.9419 18.016 82.9419 16.8V14.832H82.9179C82.6619 15.344 82.3179 15.768 81.8859 16.104C81.4699 16.424 81.0139 16.664 80.5179 16.824C80.0219 16.968 79.5099 17.04 78.9819 17.04C77.9419 17.04 77.0059 16.784 76.1739 16.272C75.3579 15.76 74.7099 15.04 74.2299 14.1119C73.7659 13.1839 73.5339 12.0959 73.5339 10.8479C73.5339 9.59995 73.7659 8.51995 74.2299 7.60795C74.7099 6.67995 75.3579 5.96795 76.1739 5.47195C77.0059 4.95995 77.9499 4.70395 79.0059 4.70395C79.5339 4.70395 80.0539 4.77595 80.5659 4.91995C81.0779 5.06395 81.5419 5.30395 81.9579 5.63995C82.3899 5.95995 82.7419 6.39195 83.0139 6.93595H83.0379V4.99195H85.5099V16.56C85.5099 17.872 85.2699 18.968 84.7899 19.848C84.3259 20.744 83.6459 21.408 82.7499 21.84C81.8539 22.288 80.7579 22.512 79.4619 22.512ZM79.6539 14.88C80.3099 14.88 80.8939 14.728 81.4059 14.424C81.9339 14.104 82.3499 13.6479 82.6539 13.0559C82.9579 12.4479 83.1099 11.7199 83.1099 10.872C83.1099 10.0079 82.9579 9.27995 82.6539 8.68795C82.3499 8.07995 81.9339 7.62395 81.4059 7.31995C80.8939 7.01595 80.3099 6.86395 79.6539 6.86395C78.9819 6.86395 78.3819 7.01595 77.8539 7.31995C77.3419 7.62395 76.9339 8.07995 76.6299 8.68795C76.3419 9.27995 76.1979 10.0079 76.1979 10.872C76.1979 11.7199 76.3419 12.4479 76.6299 13.0559C76.9339 13.6479 77.3419 14.104 77.8539 14.424C78.3819 14.728 78.9819 14.88 79.6539 14.88ZM93.8358 17.712C92.5878 17.712 91.5078 17.44 90.5958 16.896C89.6838 16.352 88.9878 15.584 88.5078 14.5919C88.0278 13.6 87.7878 12.4479 87.7878 11.1359C87.7878 9.85595 88.0438 8.73595 88.5558 7.77595C89.0678 6.81595 89.7718 6.06395 90.6678 5.51995C91.5638 4.97595 92.5878 4.70395 93.7398 4.70395C94.8758 4.70395 95.8598 4.94395 96.6918 5.42395C97.5398 5.88795 98.1958 6.55995 98.6598 7.43995C99.1398 8.30395 99.3798 9.32795 99.3798 10.5119C99.3798 10.752 99.3718 10.992 99.3558 11.2319C99.3558 11.4559 99.3398 11.6479 99.3078 11.8079H89.1318V9.98395H97.7238L96.8598 10.368C96.8758 9.56795 96.7558 8.89595 96.4998 8.35195C96.2438 7.80795 95.8758 7.39995 95.3958 7.12795C94.9158 6.83995 94.3398 6.69595 93.6678 6.69595C93.0438 6.69595 92.4758 6.83995 91.9638 7.12795C91.4678 7.39995 91.0758 7.83195 90.7878 8.42395C90.4998 8.99995 90.3558 9.74395 90.3558 10.656V11.424C90.3558 12.7359 90.6518 13.7599 91.2438 14.4959C91.8518 15.232 92.7478 15.6 93.9318 15.6C94.6678 15.6 95.2918 15.448 95.8038 15.144C96.3318 14.824 96.7558 14.328 97.0758 13.656L99.1158 14.64C98.8118 15.312 98.4038 15.88 97.8918 16.344C97.3958 16.792 96.8038 17.136 96.1158 17.376C95.4438 17.6 94.6838 17.712 93.8358 17.712ZM112.538 17.712C111.402 17.712 110.378 17.456 109.466 16.944C108.554 16.432 107.834 15.688 107.306 14.712C106.778 13.7359 106.514 12.568 106.514 11.208C106.514 9.83195 106.778 8.66395 107.306 7.70395C107.834 6.72795 108.546 5.98395 109.442 5.47195C110.354 4.95995 111.386 4.70395 112.538 4.70395C113.914 4.70395 115.042 5.00795 115.922 5.61595C116.818 6.20795 117.466 7.09595 117.866 8.27995L115.538 9.07195C115.25 8.28795 114.85 7.72795 114.338 7.39195C113.842 7.05595 113.234 6.88795 112.514 6.88795C111.922 6.88795 111.37 7.03995 110.858 7.34395C110.346 7.64795 109.93 8.11995 109.61 8.75995C109.306 9.38395 109.154 10.1999 109.154 11.208C109.154 12.1999 109.306 13.0159 109.61 13.656C109.93 14.296 110.346 14.768 110.858 15.072C111.37 15.376 111.922 15.528 112.514 15.528C113.25 15.528 113.866 15.36 114.362 15.024C114.858 14.672 115.258 14.104 115.562 13.32L117.866 14.1119C117.466 15.28 116.818 16.176 115.922 16.8C115.042 17.408 113.914 17.712 112.538 17.712ZM119.816 17.424V0.35995H122.384V17.424H119.816ZM128.855 17.712C127.623 17.712 126.623 17.392 125.855 16.752C125.087 16.096 124.703 15.224 124.703 14.1359C124.703 13.0799 125.055 12.2319 125.759 11.5919C126.479 10.9359 127.447 10.4959 128.663 10.272L133.607 9.31195V11.0639L129.671 11.88C128.903 12.0399 128.319 12.2799 127.919 12.6C127.519 12.92 127.319 13.3759 127.319 13.9679C127.319 14.544 127.511 14.992 127.895 15.312C128.295 15.616 128.831 15.768 129.503 15.768C130.095 15.768 130.615 15.64 131.063 15.384C131.527 15.128 131.879 14.768 132.119 14.3039C132.375 13.8399 132.503 13.3119 132.503 12.7199V9.19195C132.503 8.42395 132.295 7.83195 131.879 7.41595C131.479 6.98395 130.895 6.76795 130.127 6.76795C129.391 6.76795 128.807 6.94395 128.375 7.29595C127.943 7.63195 127.647 8.12795 127.487 8.78395L125.015 8.25595C125.271 7.18395 125.855 6.32795 126.767 5.68795C127.679 5.03195 128.815 4.70395 130.175 4.70395C131.807 4.70395 133.031 5.11195 133.847 5.92795C134.663 6.74395 135.071 7.87195 135.071 9.31195V14.952L135.983 17.424H133.319L132.743 15.792H132.695C132.327 16.4 131.815 16.872 131.159 17.208C130.503 17.544 129.735 17.712 128.855 17.712ZM137.957 17.424V4.99195H140.525V17.424H137.957ZM139.253 3.26395C138.805 3.26395 138.421 3.10395 138.101 2.78395C137.781 2.46395 137.621 2.07195 137.621 1.60795C137.621 1.15995 137.781 0.783949 138.101 0.479949C138.421 0.15995 138.805 -5.00679e-05 139.253 -5.00679e-05C139.717 -5.00679e-05 140.101 0.15995 140.405 0.479949C140.725 0.783949 140.885 1.15995 140.885 1.60795C140.885 2.07195 140.725 2.46395 140.405 2.78395C140.101 3.10395 139.717 3.26395 139.253 3.26395ZM143.348 17.424V4.99195H145.748V6.74395H145.772C146.092 6.07195 146.548 5.56795 147.14 5.23195C147.748 4.87995 148.476 4.70395 149.324 4.70395C150.172 4.70395 150.9 4.88795 151.508 5.25595C152.132 5.60795 152.596 6.11995 152.9 6.79195H152.924C153.26 6.13595 153.74 5.62395 154.364 5.25595C155.004 4.88795 155.748 4.70395 156.596 4.70395C157.492 4.70395 158.252 4.87995 158.876 5.23195C159.5 5.56795 159.98 6.06395 160.316 6.71995C160.652 7.35995 160.82 8.15995 160.82 9.11995V17.424H158.252V9.67195C158.252 8.79195 158.044 8.11995 157.628 7.65595C157.212 7.17595 156.644 6.93595 155.924 6.93595C155.108 6.93595 154.476 7.21595 154.028 7.77595C153.58 8.31995 153.356 9.09595 153.356 10.104V17.424H150.788V9.67195C150.788 8.79195 150.58 8.11995 150.164 7.65595C149.764 7.17595 149.204 6.93595 148.484 6.93595C147.684 6.93595 147.052 7.22395 146.588 7.79995C146.14 8.37595 145.916 9.15995 145.916 10.152V17.424H143.348ZM172.059 17.424L167.931 4.99195H170.763L174.003 15.936H174.027L177.291 4.99195H180.099L175.971 17.424H172.059ZM184.964 17.712C183.732 17.712 182.732 17.392 181.964 16.752C181.196 16.096 180.812 15.224 180.812 14.1359C180.812 13.0799 181.164 12.2319 181.868 11.5919C182.588 10.9359 183.556 10.4959 184.772 10.272L189.716 9.31195V11.0639L185.78 11.88C185.012 12.0399 184.428 12.2799 184.028 12.6C183.628 12.92 183.428 13.3759 183.428 13.9679C183.428 14.544 183.62 14.992 184.004 15.312C184.404 15.616 184.94 15.768 185.612 15.768C186.204 15.768 186.724 15.64 187.172 15.384C187.636 15.128 187.988 14.768 188.228 14.3039C188.484 13.8399 188.612 13.3119 188.612 12.7199V9.19195C188.612 8.42395 188.404 7.83195 187.988 7.41595C187.588 6.98395 187.004 6.76795 186.236 6.76795C185.5 6.76795 184.916 6.94395 184.484 7.29595C184.052 7.63195 183.756 8.12795 183.596 8.78395L181.124 8.25595C181.38 7.18395 181.964 6.32795 182.876 5.68795C183.788 5.03195 184.924 4.70395 186.284 4.70395C187.916 4.70395 189.14 5.11195 189.956 5.92795C190.772 6.74395 191.18 7.87195 191.18 9.31195V14.952L192.092 17.424H189.428L188.852 15.792H188.804C188.436 16.4 187.924 16.872 187.268 17.208C186.612 17.544 185.844 17.712 184.964 17.712ZM194.066 17.424V0.35995H196.634V17.424H194.066ZM204.545 17.712C203.489 17.712 202.569 17.528 201.785 17.16C201.001 16.776 200.393 16.2 199.961 15.432C199.545 14.6639 199.337 13.7039 199.337 12.5519V4.99195H201.905V12.4559C201.905 13.4959 202.145 14.272 202.625 14.784C203.105 15.28 203.745 15.528 204.545 15.528C205.345 15.528 205.985 15.28 206.465 14.784C206.961 14.272 207.209 13.4959 207.209 12.4559V4.99195H209.777V12.5519C209.777 13.7039 209.561 14.6639 209.129 15.432C208.713 16.2 208.113 16.776 207.329 17.16C206.545 17.528 205.617 17.712 204.545 17.712ZM217.984 17.712C216.736 17.712 215.656 17.44 214.744 16.896C213.832 16.352 213.136 15.584 212.656 14.5919C212.176 13.6 211.936 12.4479 211.936 11.1359C211.936 9.85595 212.192 8.73595 212.704 7.77595C213.216 6.81595 213.92 6.06395 214.816 5.51995C215.712 4.97595 216.736 4.70395 217.888 4.70395C219.024 4.70395 220.008 4.94395 220.84 5.42395C221.688 5.88795 222.344 6.55995 222.808 7.43995C223.288 8.30395 223.528 9.32795 223.528 10.5119C223.528 10.752 223.52 10.992 223.504 11.2319C223.504 11.4559 223.488 11.6479 223.456 11.8079H213.28V9.98395H221.872L221.008 10.368C221.024 9.56795 220.904 8.89595 220.648 8.35195C220.392 7.80795 220.024 7.39995 219.544 7.12795C219.064 6.83995 218.488 6.69595 217.816 6.69595C217.192 6.69595 216.624 6.83995 216.112 7.12795C215.616 7.39995 215.224 7.83195 214.936 8.42395C214.648 8.99995 214.504 9.74395 214.504 10.656V11.424C214.504 12.7359 214.8 13.7599 215.392 14.4959C216 15.232 216.896 15.6 218.08 15.6C218.816 15.6 219.44 15.448 219.952 15.144C220.48 14.824 220.904 14.328 221.224 13.656L223.264 14.64C222.96 15.312 222.552 15.88 222.04 16.344C221.544 16.792 220.952 17.136 220.264 17.376C219.592 17.6 218.832 17.712 217.984 17.712ZM227.91 9.69595C227.43 9.69595 227.014 9.52795 226.662 9.19195C226.326 8.85595 226.158 8.43995 226.158 7.94395C226.158 7.46395 226.326 7.05595 226.662 6.71995C227.014 6.38395 227.43 6.21595 227.91 6.21595C228.422 6.21595 228.846 6.38395 229.182 6.71995C229.518 7.05595 229.686 7.46395 229.686 7.94395C229.686 8.43995 229.518 8.85595 229.182 9.19195C228.846 9.52795 228.422 9.69595 227.91 9.69595ZM227.91 17.544C227.43 17.544 227.014 17.376 226.662 17.04C226.326 16.688 226.158 16.272 226.158 15.792C226.158 15.312 226.326 14.904 226.662 14.568C227.014 14.232 227.43 14.064 227.91 14.064C228.422 14.064 228.846 14.232 229.182 14.568C229.518 14.904 229.686 15.312 229.686 15.792C229.686 16.272 229.518 16.688 229.182 17.04C228.846 17.376 228.422 17.544 227.91 17.544ZM4.87195 45.2799L-4.68493e-05 45.208C0.671953 45.0319 1.19995 44.7919 1.58395 44.488C1.98395 44.1679 2.26395 43.7999 2.42395 43.3839C2.59995 42.9679 2.68795 42.5199 2.68795 42.04C2.68795 41.5759 2.62395 41.1119 2.49595 40.648C2.38395 40.168 2.24795 39.688 2.08795 39.208C1.92795 38.7279 1.78395 38.2399 1.65595 37.7439C1.52795 37.2479 1.46395 36.7439 1.46395 36.2319C1.46395 35.2399 1.71995 34.3599 2.23195 33.5919C2.74395 32.8239 3.45595 32.216 4.36795 31.768C5.27995 31.3199 6.33595 31.0959 7.53595 31.0959C8.54395 31.0959 9.44795 31.2479 10.248 31.5519C11.048 31.8399 11.728 32.2799 12.288 32.872C12.848 33.4479 13.248 34.1519 13.488 34.984L9.91195 36.0639C9.73595 35.5199 9.45595 35.1039 9.07195 34.8159C8.68795 34.5119 8.20795 34.3599 7.63195 34.3599C6.94395 34.3599 6.40795 34.5599 6.02395 34.9599C5.63995 35.3599 5.44795 35.8959 5.44795 36.5679C5.44795 36.9519 5.50395 37.3599 5.61595 37.7919C5.74395 38.2239 5.87995 38.6719 6.02395 39.1359C6.18395 39.5839 6.31995 40.0399 6.43195 40.5039C6.55995 40.9679 6.62395 41.4239 6.62395 41.872C6.62395 42.5759 6.47995 43.2079 6.19195 43.768C5.90395 44.3119 5.47195 44.7359 4.89595 45.04L4.87195 45.2799ZM-4.68493e-05 48.424V45.208L3.50395 44.992H12.888V48.424H-4.68493e-05ZM-4.68493e-05 41.152V38.8719H10.848V41.152H-4.68493e-05ZM21.2784 48.832C19.5344 48.832 18.1024 48.44 16.9824 47.656C15.8624 46.856 15.1264 45.744 14.7744 44.32L18.5424 43.216C18.7504 43.9999 19.0864 44.5679 19.5504 44.9199C20.0144 45.272 20.5744 45.448 21.2304 45.448C21.9984 45.448 22.5904 45.224 23.0064 44.7759C23.4384 44.328 23.6544 43.752 23.6544 43.048C23.6544 42.568 23.5344 42.1439 23.2944 41.7759C23.0544 41.4079 22.6784 41.1199 22.1664 40.9119C21.6544 40.7039 20.9744 40.6 20.1264 40.6H16.1904L16.7664 31.5039H27.1824V35.0079H19.0464L19.9824 33.88L19.6224 39.0639L18.4704 37.3119H20.9184C23.0784 37.3119 24.7424 37.7999 25.9104 38.7759C27.0784 39.7519 27.6624 41.1439 27.6624 42.9519C27.6624 44.1679 27.3984 45.216 26.8704 46.096C26.3584 46.976 25.6224 47.656 24.6624 48.136C23.7184 48.6 22.5904 48.832 21.2784 48.832ZM27.5673 53.08L29.2713 45.184H33.3753L30.7833 53.08H27.5673ZM41.3058 48.832C39.5938 48.832 38.1458 48.432 36.9618 47.632C35.7938 46.832 35.0178 45.72 34.6338 44.296L38.4258 43.1919C38.6018 43.96 38.9458 44.528 39.4578 44.896C39.9698 45.264 40.6338 45.448 41.4498 45.448C42.2018 45.448 42.7778 45.248 43.1778 44.848C43.5938 44.4319 43.8018 43.9039 43.8018 43.264C43.8018 42.5759 43.5458 42.0559 43.0338 41.704C42.5378 41.336 41.8018 41.152 40.8258 41.152H39.1458V38.9679H43.5378V39.328C44.8498 39.36 45.8898 39.7599 46.6578 40.5279C47.4258 41.2959 47.8098 42.2959 47.8098 43.5279C47.8098 44.5839 47.5458 45.5119 47.0178 46.312C46.4898 47.112 45.7378 47.736 44.7618 48.184C43.7858 48.616 42.6338 48.832 41.3058 48.832ZM39.1458 39.8559V38.0799H40.9698C41.8178 38.0799 42.4578 37.9359 42.8898 37.6479C43.3218 37.3439 43.5378 36.8799 43.5378 36.2559C43.5378 35.7119 43.3458 35.288 42.9618 34.984C42.5938 34.6639 42.0498 34.5039 41.3298 34.5039C40.6738 34.5039 40.1138 34.6479 39.6498 34.9359C39.2018 35.2079 38.8738 35.6239 38.6658 36.1839L35.0178 35.104C35.2578 34.2719 35.6658 33.5599 36.2418 32.9679C36.8338 32.3599 37.5538 31.9039 38.4018 31.5999C39.2658 31.2799 40.2178 31.1199 41.2578 31.1199C42.5218 31.1199 43.5938 31.3039 44.4738 31.6719C45.3698 32.0239 46.0498 32.5439 46.5138 33.2319C46.9778 33.9039 47.2098 34.7119 47.2098 35.656C47.2098 36.4879 47.0018 37.2239 46.5858 37.8639C46.1858 38.4879 45.6258 38.9759 44.9058 39.328C44.2018 39.6799 43.4018 39.8559 42.5058 39.8559H39.1458ZM53.2428 48.424V34.7439H53.2188L48.9228 39.16V34.5519L51.8988 31.5039H57.2028V48.424H53.2428ZM66.7395 48.832C65.3315 48.832 64.0995 48.616 63.0435 48.184C61.9875 47.736 61.1715 47.112 60.5955 46.312C60.0355 45.5119 59.7555 44.5839 59.7555 43.5279C59.7555 42.8239 59.8915 42.1759 60.1635 41.5839C60.4355 40.9759 60.8195 40.4639 61.3155 40.048C61.8115 39.6159 62.4035 39.3119 63.0915 39.1359V39.1119C62.6275 38.8879 62.2195 38.6079 61.8675 38.272C61.5315 37.9199 61.2755 37.5119 61.0995 37.0479C60.9235 36.5839 60.8355 36.0879 60.8355 35.5599C60.8355 34.6799 61.0755 33.9119 61.5555 33.2559C62.0355 32.5839 62.7155 32.0639 63.5955 31.6959C64.4755 31.3119 65.5235 31.1199 66.7395 31.1199C67.9555 31.1199 69.0035 31.3119 69.8835 31.6959C70.7635 32.0639 71.4435 32.5839 71.9235 33.2559C72.4035 33.9119 72.6435 34.6799 72.6435 35.5599C72.6435 36.0879 72.5555 36.5839 72.3795 37.0479C72.2035 37.5119 71.9475 37.9199 71.6115 38.272C71.2755 38.6079 70.8755 38.8879 70.4115 39.1119V39.1359C71.0995 39.3119 71.6915 39.6159 72.1875 40.048C72.6835 40.4639 73.0595 40.9759 73.3155 41.5839C73.5875 42.1759 73.7235 42.8239 73.7235 43.5279C73.7235 44.5839 73.4355 45.5119 72.8595 46.312C72.2995 47.112 71.4995 47.736 70.4595 48.184C69.4195 48.616 68.1795 48.832 66.7395 48.832ZM66.7395 45.928C67.5715 45.928 68.2355 45.688 68.7315 45.208C69.2435 44.728 69.4995 44.112 69.4995 43.3599C69.4995 42.592 69.2435 41.968 68.7315 41.488C68.2355 41.008 67.5715 40.768 66.7395 40.768C65.9235 40.768 65.2595 41.008 64.7475 41.488C64.2355 41.968 63.9795 42.592 63.9795 43.3599C63.9795 44.112 64.2355 44.728 64.7475 45.208C65.2595 45.688 65.9235 45.928 66.7395 45.928ZM66.7395 37.8639C67.3635 37.8639 67.8755 37.6799 68.2755 37.3119C68.6915 36.9279 68.8995 36.4319 68.8995 35.8239C68.8995 35.2639 68.6995 34.8 68.2995 34.432C67.8995 34.064 67.3795 33.88 66.7395 33.88C66.1315 33.88 65.6195 34.064 65.2035 34.432C64.7875 34.8 64.5795 35.2639 64.5795 35.8239C64.5795 36.4319 64.7875 36.9279 65.2035 37.3119C65.6195 37.6799 66.1315 37.8639 66.7395 37.8639ZM77.4463 48.544C76.7583 48.544 76.1983 48.32 75.7663 47.872C75.3343 47.424 75.1183 46.88 75.1183 46.24C75.1183 45.6159 75.3343 45.0879 75.7663 44.656C76.1983 44.208 76.7583 43.984 77.4463 43.984C78.1343 43.984 78.6863 44.208 79.1023 44.656C79.5343 45.0879 79.7503 45.6159 79.7503 46.24C79.7503 46.88 79.5343 47.424 79.1023 47.872C78.6863 48.32 78.1343 48.544 77.4463 48.544ZM81.7265 48.424V44.176L87.6545 39.4959C88.1345 39.1119 88.5185 38.7599 88.8065 38.4399C89.1105 38.1199 89.3265 37.7919 89.4545 37.4559C89.5825 37.1199 89.6465 36.7759 89.6465 36.424C89.6465 35.8639 89.4705 35.4079 89.1185 35.0559C88.7665 34.6879 88.2385 34.5039 87.5345 34.5039C86.8145 34.5039 86.2385 34.7199 85.8065 35.1519C85.3905 35.5679 85.1345 36.1839 85.0385 36.9999L81.2225 36.3519C81.3505 35.2799 81.6865 34.3519 82.2305 33.5679C82.7905 32.7839 83.5425 32.1839 84.4865 31.768C85.4305 31.3359 86.5425 31.1199 87.8225 31.1199C89.0705 31.1199 90.1425 31.3199 91.0385 31.7199C91.9505 32.1199 92.6545 32.688 93.1505 33.424C93.6625 34.1439 93.9185 34.9999 93.9185 35.992C93.9185 36.7759 93.7905 37.4879 93.5345 38.1279C93.2945 38.7679 92.9425 39.3599 92.4785 39.9039C92.0305 40.4319 91.4945 40.9359 90.8705 41.4159L86.3585 44.8V44.824H94.3265V48.424H81.7265ZM102.208 48.832C100.464 48.832 99.0321 48.44 97.9121 47.656C96.7921 46.856 96.0561 45.744 95.7041 44.32L99.4721 43.216C99.6801 43.9999 100.016 44.5679 100.48 44.9199C100.944 45.272 101.504 45.448 102.16 45.448C102.928 45.448 103.52 45.224 103.936 44.7759C104.368 44.328 104.584 43.752 104.584 43.048C104.584 42.568 104.464 42.1439 104.224 41.7759C103.984 41.4079 103.608 41.1199 103.096 40.9119C102.584 40.7039 101.904 40.6 101.056 40.6H97.1201L97.6961 31.5039H108.112V35.0079H99.9761L100.912 33.88L100.552 39.0639L99.4001 37.3119H101.848C104.008 37.3119 105.672 37.7999 106.84 38.7759C108.008 39.7519 108.592 41.1439 108.592 42.9519C108.592 44.1679 108.328 45.216 107.8 46.096C107.288 46.976 106.552 47.656 105.592 48.136C104.648 48.6 103.52 48.832 102.208 48.832ZM114.013 31.5039H116.701L116.389 34.5039L118.837 32.7279L120.181 35.0799L117.445 36.304L120.181 37.5279L118.837 39.88L116.389 38.104L116.701 41.104H114.013L114.301 38.104L111.853 39.88L110.509 37.5279L113.269 36.304L110.509 35.0799L111.853 32.7279L114.301 34.5039L114.013 31.5039ZM128.441 53.224V35.992H130.841V37.9839H130.865C131.137 37.4559 131.481 37.0239 131.897 36.6879C132.329 36.3519 132.809 36.1039 133.337 35.9439C133.865 35.7839 134.409 35.7039 134.969 35.7039C136.009 35.7039 136.937 35.9679 137.753 36.4959C138.585 37.0079 139.241 37.7519 139.721 38.7279C140.201 39.6879 140.441 40.8479 140.441 42.208C140.441 43.568 140.201 44.7359 139.721 45.712C139.257 46.672 138.609 47.416 137.777 47.944C136.961 48.456 136.025 48.712 134.969 48.712C134.457 48.712 133.953 48.632 133.457 48.472C132.961 48.328 132.505 48.096 132.089 47.776C131.673 47.44 131.321 47.032 131.033 46.552H131.009V53.224H128.441ZM134.321 46.528C134.993 46.528 135.585 46.368 136.097 46.048C136.625 45.728 137.041 45.248 137.345 44.6079C137.649 43.9679 137.801 43.1679 137.801 42.208C137.801 41.2639 137.649 40.4719 137.345 39.8319C137.041 39.1759 136.625 38.6879 136.097 38.3679C135.585 38.0479 134.993 37.8879 134.321 37.8879C133.665 37.8879 133.073 38.0479 132.545 38.3679C132.017 38.6879 131.601 39.1759 131.297 39.8319C130.993 40.4719 130.841 41.2639 130.841 42.208C130.841 43.152 130.993 43.952 131.297 44.6079C131.617 45.248 132.033 45.728 132.545 46.048C133.073 46.368 133.665 46.528 134.321 46.528ZM148.351 48.712C147.103 48.712 146.023 48.44 145.111 47.896C144.199 47.352 143.503 46.584 143.023 45.5919C142.543 44.6 142.303 43.4479 142.303 42.1359C142.303 40.8559 142.559 39.7359 143.071 38.7759C143.583 37.8159 144.287 37.0639 145.183 36.5199C146.079 35.9759 147.103 35.7039 148.255 35.7039C149.391 35.7039 150.375 35.9439 151.207 36.424C152.055 36.8879 152.711 37.5599 153.175 38.4399C153.655 39.3039 153.895 40.3279 153.895 41.5119C153.895 41.752 153.887 41.992 153.871 42.2319C153.871 42.4559 153.855 42.6479 153.823 42.8079H143.647V40.984H152.239L151.375 41.368C151.391 40.568 151.271 39.8959 151.015 39.3519C150.759 38.8079 150.391 38.3999 149.911 38.1279C149.431 37.8399 148.855 37.6959 148.183 37.6959C147.559 37.6959 146.991 37.8399 146.479 38.1279C145.983 38.3999 145.591 38.8319 145.303 39.4239C145.015 39.9999 144.871 40.7439 144.871 41.656V42.424C144.871 43.7359 145.167 44.7599 145.759 45.4959C146.367 46.232 147.263 46.6 148.447 46.6C149.183 46.6 149.807 46.448 150.319 46.144C150.847 45.824 151.271 45.328 151.591 44.656L153.631 45.64C153.327 46.312 152.919 46.88 152.407 47.344C151.911 47.792 151.319 48.136 150.631 48.376C149.959 48.6 149.199 48.712 148.351 48.712ZM156.051 48.424V35.992H158.451V37.6959H158.475C158.715 37.0879 159.099 36.6079 159.627 36.2559C160.171 35.8879 160.811 35.7039 161.547 35.7039C161.707 35.7039 161.859 35.7119 162.003 35.7279C162.163 35.7439 162.291 35.768 162.387 35.7999V38.1999C162.227 38.1519 162.067 38.1279 161.907 38.1279C161.763 38.1119 161.603 38.104 161.427 38.104C160.915 38.104 160.443 38.2239 160.011 38.4639C159.579 38.6879 159.235 39.0399 158.979 39.5199C158.739 39.9999 158.619 40.6079 158.619 41.3439V48.424H156.051ZM172.762 48.424L168.634 35.992H171.466L174.706 46.936H174.73L177.994 35.992H180.802L176.674 48.424H172.762ZM187.703 48.712C186.455 48.712 185.375 48.44 184.463 47.896C183.551 47.352 182.855 46.584 182.375 45.5919C181.895 44.6 181.655 43.4479 181.655 42.1359C181.655 40.8559 181.911 39.7359 182.423 38.7759C182.935 37.8159 183.639 37.0639 184.535 36.5199C185.431 35.9759 186.455 35.7039 187.607 35.7039C188.743 35.7039 189.727 35.9439 190.559 36.424C191.407 36.8879 192.063 37.5599 192.527 38.4399C193.007 39.3039 193.247 40.3279 193.247 41.5119C193.247 41.752 193.239 41.992 193.223 42.2319C193.223 42.4559 193.207 42.6479 193.175 42.8079H182.999V40.984H191.591L190.727 41.368C190.743 40.568 190.623 39.8959 190.367 39.3519C190.111 38.8079 189.743 38.3999 189.263 38.1279C188.783 37.8399 188.207 37.6959 187.535 37.6959C186.911 37.6959 186.343 37.8399 185.831 38.1279C185.335 38.3999 184.943 38.8319 184.655 39.4239C184.367 39.9999 184.223 40.7439 184.223 41.656V42.424C184.223 43.7359 184.519 44.7599 185.111 45.4959C185.719 46.232 186.615 46.6 187.799 46.6C188.535 46.6 189.159 46.448 189.671 46.144C190.199 45.824 190.623 45.328 190.943 44.656L192.983 45.64C192.679 46.312 192.271 46.88 191.759 47.344C191.263 47.792 190.671 48.136 189.983 48.376C189.311 48.6 188.551 48.712 187.703 48.712ZM195.402 48.424V31.3599H197.97V37.7199H197.994C198.314 37.0799 198.778 36.5839 199.386 36.2319C199.994 35.8799 200.722 35.7039 201.57 35.7039C202.466 35.7039 203.242 35.8799 203.898 36.2319C204.554 36.5679 205.066 37.0959 205.434 37.8159C205.802 38.5199 205.986 39.4239 205.986 40.5279V48.424H203.418V40.8399C203.418 39.8479 203.186 39.1199 202.722 38.656C202.258 38.176 201.65 37.936 200.898 37.936C200.018 37.936 199.306 38.2239 198.762 38.7999C198.234 39.3759 197.97 40.1759 197.97 41.1999V48.424H195.402ZM208.691 48.424V35.992H211.259V48.424H208.691ZM209.987 34.2639C209.539 34.2639 209.155 34.1039 208.835 33.7839C208.515 33.4639 208.355 33.0719 208.355 32.6079C208.355 32.1599 208.515 31.7839 208.835 31.4799C209.155 31.1599 209.539 30.9999 209.987 30.9999C210.451 30.9999 210.835 31.1599 211.139 31.4799C211.459 31.7839 211.619 32.1599 211.619 32.6079C211.619 33.0719 211.459 33.4639 211.139 33.7839C210.835 34.1039 210.451 34.2639 209.987 34.2639ZM219.554 48.712C218.418 48.712 217.394 48.456 216.482 47.944C215.57 47.432 214.85 46.688 214.322 45.712C213.794 44.7359 213.53 43.568 213.53 42.208C213.53 40.8319 213.794 39.6639 214.322 38.7039C214.85 37.7279 215.562 36.9839 216.458 36.4719C217.37 35.9599 218.402 35.7039 219.554 35.7039C220.93 35.7039 222.058 36.0079 222.938 36.6159C223.834 37.2079 224.482 38.0959 224.882 39.2799L222.554 40.0719C222.266 39.2879 221.866 38.7279 221.354 38.3919C220.858 38.0559 220.25 37.8879 219.53 37.8879C218.938 37.8879 218.386 38.0399 217.874 38.3439C217.362 38.6479 216.946 39.1199 216.626 39.7599C216.322 40.3839 216.17 41.1999 216.17 42.208C216.17 43.1999 216.322 44.0159 216.626 44.656C216.946 45.296 217.362 45.768 217.874 46.072C218.386 46.376 218.938 46.528 219.53 46.528C220.266 46.528 220.882 46.36 221.378 46.024C221.874 45.672 222.274 45.104 222.578 44.32L224.882 45.1119C224.482 46.28 223.834 47.176 222.938 47.8C222.058 48.408 220.93 48.712 219.554 48.712ZM226.832 48.424V31.3599H229.4V48.424H226.832ZM237.719 48.712C236.471 48.712 235.391 48.44 234.479 47.896C233.567 47.352 232.871 46.584 232.391 45.5919C231.911 44.6 231.671 43.4479 231.671 42.1359C231.671 40.8559 231.927 39.7359 232.439 38.7759C232.951 37.8159 233.655 37.0639 234.551 36.5199C235.447 35.9759 236.471 35.7039 237.623 35.7039C238.759 35.7039 239.743 35.9439 240.575 36.424C241.423 36.8879 242.079 37.5599 242.543 38.4399C243.023 39.3039 243.263 40.3279 243.263 41.5119C243.263 41.752 243.255 41.992 243.239 42.2319C243.239 42.4559 243.223 42.6479 243.191 42.8079H233.015V40.984H241.607L240.743 41.368C240.759 40.568 240.639 39.8959 240.383 39.3519C240.127 38.8079 239.759 38.3999 239.279 38.1279C238.799 37.8399 238.223 37.6959 237.551 37.6959C236.927 37.6959 236.359 37.8399 235.847 38.1279C235.351 38.3999 234.959 38.8319 234.671 39.4239C234.383 39.9999 234.239 40.7439 234.239 41.656V42.424C234.239 43.7359 234.535 44.7599 235.127 45.4959C235.735 46.232 236.631 46.6 237.815 46.6C238.551 46.6 239.175 46.448 239.687 46.144C240.215 45.824 240.639 45.328 240.959 44.656L242.999 45.64C242.695 46.312 242.287 46.88 241.775 47.344C241.279 47.792 240.687 48.136 239.999 48.376C239.327 48.6 238.567 48.712 237.719 48.712Z" fill="#161823"/>
</svg>
