<svg width="54" height="53" viewBox="0 0 54 53" fill="none" xmlns="http://www.w3.org/2000/svg">
<path d="M53.4249 51.6461L45.8091 48.9831L51.5711 46.303L53.4249 51.6461Z" fill="white"/>
<path d="M53.4247 52.2202C53.5739 52.2202 53.7231 52.1628 53.8322 52.0538C53.9871 51.8988 54.0388 51.6692 53.9699 51.4569L52.1162 46.108C52.0645 45.9531 51.9497 45.8326 51.7948 45.7694C51.6456 45.7063 51.4734 45.7063 51.3299 45.7752L45.5736 48.4611C45.3612 48.5586 45.2292 48.7767 45.2407 49.012C45.2522 49.2473 45.4014 49.4482 45.6252 49.5228L53.241 52.1858C53.3042 52.2087 53.3673 52.2202 53.4304 52.2202H53.4247ZM51.2323 47.0894L52.4892 50.7108L47.3297 48.9087L51.2323 47.0894Z" fill="#161823"/>
<path d="M31.2141 29.7399L42.0381 18.8585L43.7828 23.886L31.2141 29.7399Z" fill="white"/>
<path d="M31.2143 30.3138C31.2947 30.3138 31.3807 30.2966 31.4554 30.2621L44.024 24.4082C44.288 24.282 44.42 23.9778 44.3225 23.7023L42.5778 18.6749C42.5146 18.4855 42.3539 18.3477 42.1645 18.3018C41.9694 18.2559 41.7685 18.319 41.6308 18.4568L30.8068 29.3381C30.6117 29.5333 30.583 29.8432 30.7437 30.0728C30.8527 30.2277 31.0307 30.3195 31.2143 30.3195V30.3138ZM42.1645 23.2617L33.8945 27.8575L41.7972 19.9145L42.1645 23.2617Z" fill="#161823"/>
<path d="M43.7829 23.8862L45.7342 29.4876L21.8595 40.61L20.7805 40.237L31.2142 29.7401L43.7829 23.8862Z" fill="white"/>
<path d="M21.8597 41.1839C21.94 41.1839 22.0261 41.1667 22.1007 41.1322L45.9754 30.0098C46.2394 29.8836 46.3714 29.5794 46.2739 29.3039L44.3283 23.6968C44.2767 23.5418 44.1619 23.4213 44.0069 23.3582C43.8577 23.295 43.6855 23.295 43.5421 23.3639L30.9734 29.2178C30.9103 29.2465 30.8586 29.2867 30.807 29.3326L20.3732 39.8237C20.2355 39.9614 20.1781 40.1623 20.2183 40.3574C20.2642 40.5468 20.4019 40.7075 20.5913 40.7707L21.6703 41.1494C21.7334 41.1724 21.7965 41.1839 21.8597 41.1839ZM45.017 29.1891L21.831 39.9901L31.5473 30.2164L43.4502 24.6724L45.017 29.1891Z" fill="#161823"/>
<path d="M47.6807 35.0948L29.8436 43.405L21.8604 40.6101L45.7352 29.4877L47.6807 35.0948Z" fill="white"/>
<path d="M29.8431 43.9789C29.9235 43.9789 30.0096 43.9617 30.0842 43.9272L47.9156 35.617C48.1796 35.4907 48.3116 35.1866 48.2141 34.9111L46.2685 29.3097C46.2168 29.1547 46.1021 29.0342 45.9471 28.9711C45.7979 28.908 45.6257 28.9137 45.4822 28.9768L21.6133 40.0992C21.4009 40.1968 21.2689 40.4149 21.2804 40.6502C21.2919 40.8855 21.4411 41.0864 21.6649 41.161L29.648 43.9502C29.7111 43.9731 29.7743 43.9846 29.8374 43.9846L29.8431 43.9789Z" fill="#161823"/>
<path d="M49.6258 40.7018L37.8262 46.1942L29.8431 43.405L47.6802 35.0947L49.6258 40.7018Z" fill="white"/>
<path d="M37.8263 46.7682C37.9066 46.7682 37.9927 46.7509 38.0673 46.7165L49.8612 41.2184C50.1252 41.0922 50.2572 40.788 50.1596 40.5125L48.2141 34.9054C48.1624 34.7504 48.0476 34.6299 47.8927 34.5668C47.7434 34.5037 47.5713 34.5094 47.4278 34.5725L29.5964 42.8828C29.384 42.9803 29.252 43.1984 29.2635 43.4337C29.275 43.669 29.4242 43.8699 29.648 43.9445L37.6311 46.7337C37.6943 46.7567 37.7574 46.7682 37.8205 46.7682H37.8263ZM48.9085 40.3977L37.7918 45.5744L31.364 43.3247L47.3417 35.881L48.9085 40.3977Z" fill="#161823"/>
<path d="M45.8091 49.5573C45.8895 49.5573 45.9756 49.5401 46.0502 49.5057L51.8065 46.8197C52.0705 46.6935 52.2025 46.3893 52.1049 46.1138L50.1594 40.5125C50.1077 40.3575 49.9929 40.237 49.838 40.1739C49.6888 40.1107 49.5166 40.1107 49.3731 40.1796L37.5792 45.6777C37.3669 45.7752 37.2349 45.9933 37.2464 46.2286C37.2578 46.4639 37.407 46.6648 37.6309 46.7394L45.614 49.5286C45.6771 49.5516 45.7402 49.563 45.8034 49.563L45.8091 49.5573Z" fill="#161823"/>
<path d="M26.8128 25.1145C20.8039 31.0258 17.7048 37.5569 19.8856 39.7033C22.0665 41.8498 28.7124 38.7965 34.7155 32.8853C40.7244 26.974 43.8235 20.4428 41.6369 18.2964C39.456 16.15 32.8159 19.1975 26.807 25.1088L26.8128 25.1145Z" fill="white"/>
<path d="M21.8541 40.9428C25.1025 40.9428 30.2677 38.0675 35.1172 33.2983C39.852 28.6381 42.911 23.5246 42.911 20.2705C42.911 19.2604 42.6183 18.4627 42.0386 17.8945C39.5995 15.4898 32.7298 18.4856 26.4053 24.7068C21.6705 29.367 18.6115 34.4806 18.6115 37.7404C18.6115 38.7505 18.9042 39.5482 19.4781 40.1164C20.0463 40.6788 20.8613 40.9428 21.8484 40.9428H21.8541ZM39.6224 18.1585C40.2997 18.1585 40.8506 18.3307 41.2351 18.7095C41.5852 19.0538 41.7631 19.5761 41.7631 20.2705C41.7631 23.1917 38.7673 28.0987 34.3138 32.4833C29.3609 37.3559 22.3764 41.356 20.2874 39.3014C19.9373 38.9571 19.7594 38.4348 19.7594 37.7404C19.7594 34.8192 22.7552 29.9122 27.2145 25.5275C31.2548 21.5503 36.6381 18.1585 39.6224 18.1585Z" fill="#161823"/>
<path d="M34.2848 10.2272C35.7368 8.21274 34.1585 7.3117 32.2302 7.67326C34.0667 5.41205 32.9361 3.84527 30.0378 4.45936C29.131 4.65449 30.3937 6.18109 31.2029 6.1237C28.7695 7.94874 30.1067 9.87135 32.6836 9.41796C30.4051 12.5458 34.3192 11.7767 36.0352 11.9087C36.4829 14.2503 33.8084 16.9247 34.698 16.9247C36.6895 16.9247 39.8632 9.53274 34.2848 10.2272Z" fill="#00F2EA"/>
<path d="M15.5409 14.5485C16.8551 15.1396 20.62 9.25698 16.0057 9.20533C18.6572 6.7949 18.3129 5.6356 14.7603 5.56673C18.8351 1.48048 12.4016 0.00552845 11.7186 2.19213C11.5178 2.84639 13.6871 1.61248 14.3988 2.789C15.2137 4.14343 9.38854 7.56394 15.4031 7.36308C13.1936 9.61281 13.0558 10.6631 16.5854 11.0418C16.1263 11.6789 14.703 14.1754 15.5409 14.5485Z" fill="#FF004F"/>
<path d="M14.0489 28.4432L12.6945 27.2954C12.6945 27.2954 11.4146 29.1434 10.5193 29.8435C9.83065 26.6755 10.0143 24.7472 6.31831 26.9453C8.40734 21.43 4.96387 23.5133 1.7098 25.0055C1.89919 23.6051 1.6811 23.7543 0.269277 23.3583C-0.981851 28.0472 2.38127 26.6928 5.11883 25.1489C3.55205 29.3787 5.19344 29.1893 8.61969 27.7373C8.67708 29.5336 9.26247 31.5653 10.3414 31.7374C11.5639 31.9383 14.0432 28.4374 14.0432 28.4374L14.0489 28.4432Z" fill="url(#paint0_linear_1_1307)"/>
<path d="M24.0291 15.1857C25.6705 17.3264 28.1785 18.5201 30.0782 20.3911C32.0524 22.3366 33.2347 27.697 33.2347 27.697C33.2347 27.697 32.5288 22.1071 30.6406 19.9549C28.9303 18.0093 26.4855 16.5918 25.1655 14.3306C22.801 10.2845 24.913 4.86677 27.9317 1.77339C27.2947 1.20521 26.4568 0.493564 25.946 0C23.1051 3.64434 20.5742 10.6862 24.0349 15.18L24.0291 15.1857Z" fill="#00F2EA"/>
<path d="M21.2917 19.754C23.6447 21.4471 25.2632 23.9034 26.9046 26.245C28.3508 28.3111 32.879 30.8478 32.879 30.8478C32.879 30.8478 28.5804 27.9495 27.3006 25.7744C25.728 23.0942 24.1211 20.3394 21.6246 18.3996C16.6373 14.5314 9.44042 14.9619 3.79887 16.9993C4.12026 17.8142 4.786 19.5015 4.786 19.5015C4.786 19.5015 16.5397 16.3335 21.2917 19.754Z" fill="url(#paint1_linear_1_1307)"/>
<path d="M11.3571 19.3409C12.8551 21.3267 13.6241 23.7199 14.7719 25.9007C15.8394 27.9324 17.2512 29.9009 19.3403 30.9799C21.6129 32.1564 26.7552 31.7546 26.7552 31.7546C26.7552 31.7546 21.6416 31.6915 19.5354 30.2797C17.389 28.8334 16.2641 26.3886 15.4262 24.0298C13.8537 19.6164 11.8851 14.7955 7.2422 12.8328C6.93229 13.6764 6.30672 15.358 6.30672 15.358C6.30672 15.358 8.86063 16.0409 11.3571 19.3467V19.3409Z" fill="#00F2EA"/>
<path d="M49.8219 7.51325L52.3416 10.0338L49.8211 12.5535L47.3014 10.0329L49.8219 7.51325Z" fill="#00F2EA"/>
<path d="M46.3049 15.4711L48.825 17.9912L46.3049 20.5113L43.7848 17.9912L46.3049 15.4711Z" fill="url(#paint2_linear_1_1307)"/>
<path d="M39.872 3.5644L42.3917 6.08496L39.8711 8.60464L37.3514 6.08408L39.872 3.5644Z" fill="#FF004F"/>
<path d="M12.4565 33.6861L14.9766 36.2062L12.4565 38.7263L9.93639 36.2062L12.4565 33.6861Z" fill="#00F2EA"/>
<path d="M18.0715 42.322L20.5916 44.8422L18.0715 47.3623L15.5514 44.8422L18.0715 42.322Z" fill="#FF004F"/>
<path d="M7.02072 44.3147L9.54084 46.8348L7.02072 49.355L4.5006 46.8348L7.02072 44.3147Z" fill="url(#paint3_linear_1_1307)"/>
<path d="M4.50143 32.8368L7.02155 35.3569L4.50143 37.8771L1.98131 35.3569L4.50143 32.8368Z" fill="#FF004F"/>
<path d="M8.7109 6.23684L11.231 8.75696L8.7109 11.2771L6.19078 8.75696L8.7109 6.23684Z" fill="#00F2EA"/>
<path d="M35.7246 21.3693L38.2447 23.8894L35.7246 26.4095L33.2045 23.8894L35.7246 21.3693Z" fill="#FF004F"/>
<defs>
<linearGradient id="paint0_linear_1_1307" x1="7.02445" y1="23.3473" x2="7.02445" y2="31.7458" gradientUnits="userSpaceOnUse">
<stop stop-color="#F5812E"/>
<stop offset="1" stop-color="#FF004F"/>
</linearGradient>
<linearGradient id="paint1_linear_1_1307" x1="18.3389" y1="15.4697" x2="18.3389" y2="30.8478" gradientUnits="userSpaceOnUse">
<stop stop-color="#F5812E"/>
<stop offset="1" stop-color="#FF004F"/>
</linearGradient>
<linearGradient id="paint2_linear_1_1307" x1="47.565" y1="16.7311" x2="45.0448" y2="19.2513" gradientUnits="userSpaceOnUse">
<stop stop-color="#F5812E"/>
<stop offset="1" stop-color="#FF004F"/>
</linearGradient>
<linearGradient id="paint3_linear_1_1307" x1="8.28078" y1="45.5748" x2="5.76066" y2="48.0949" gradientUnits="userSpaceOnUse">
<stop stop-color="#F5812E"/>
<stop offset="1" stop-color="#FF004F"/>
</linearGradient>
</defs>
</svg>
