<svg width="78" height="42" viewBox="0 0 78 42" fill="none" xmlns="http://www.w3.org/2000/svg">
<path d="M35.0272 8.25718L2.76375 14.4484C1.4539 14.6998 0.597307 15.9577 0.850493 17.2581L4.9764 38.4491C5.22958 39.7495 6.49667 40.5999 7.80652 40.3485L40.07 34.1573C41.3799 33.9059 42.2365 32.648 41.9833 31.3476L37.8574 10.1566C37.6042 8.85623 36.3371 8.00582 35.0272 8.25718Z" fill="white"/>
<path d="M35.6877 7.53959L2.08142 13.9873C0.68972 14.2537 -0.221513 15.5926 0.0468866 16.9742L4.35122 39.1002C4.61962 40.4819 5.96824 41.3865 7.35994 41.1201L40.9629 34.6724C42.3546 34.406 43.2658 33.0671 42.9974 31.6854L38.6931 9.55942C38.4247 8.17778 37.076 7.27313 35.6843 7.53959H35.6877ZM35.1674 9.65153L23.4738 26.6556C22.831 27.5899 21.5354 27.8399 20.5877 27.2083L3.35383 15.7538L35.1674 9.65153ZM6.11072 37.7186L2.14106 17.3196L13.8247 25.0832L6.11072 37.7153V37.7186ZM7.6184 39.0575L15.4782 26.1819L19.4843 28.8432C20.4088 29.4584 21.5023 29.6459 22.5228 29.4485C23.5434 29.2511 24.4878 28.6754 25.1174 27.7609L27.7815 23.889L39.9456 32.8533L7.62171 39.0542L7.6184 39.0575ZM40.8568 31.0769L28.8982 22.264L36.8805 10.6582L40.8535 31.0769H40.8568Z" fill="#161823"/>
<path d="M21.3567 35.7713C27.7215 35.7713 32.8813 30.6489 32.8813 24.33C32.8813 18.0111 27.7215 12.8887 21.3567 12.8887C14.9918 12.8887 9.83206 18.0111 9.83206 24.33C9.83206 30.6489 14.9918 35.7713 21.3567 35.7713Z" fill="white"/>
<path d="M26.2041 16.7637C25.273 16.0927 24.2293 15.6124 23.0993 15.3426C21.9661 15.0696 20.7931 15.0498 19.6068 15.2768C18.4206 15.5038 17.337 15.9611 16.3794 16.6322C15.4251 17.3032 14.6265 18.1355 14.0003 19.1027C13.374 20.0731 12.9366 21.1686 12.698 22.3561C12.4595 23.547 12.4628 24.7839 12.7047 26.0273C12.9432 27.2609 13.4038 28.3926 14.0698 29.3959C14.7326 30.3927 15.5477 31.2381 16.4921 31.9092C17.4364 32.577 18.4902 33.054 19.6267 33.3237C20.7666 33.5935 21.9429 33.6165 23.1292 33.3862C24.1796 33.1856 25.2134 32.7217 26.2041 32.0144C27.185 31.3138 27.354 31.0473 27.9073 30.4749L26.7409 29.1591L26.678 29.2281C26.1346 29.8104 25.5282 30.3006 24.8787 30.6887C24.2326 31.0703 23.5168 31.3401 22.758 31.4848C21.8137 31.6657 20.8726 31.6526 19.9581 31.4388C19.0435 31.2282 18.2052 30.8565 17.4663 30.3334C16.7273 29.8137 16.0845 29.1459 15.5543 28.3498C15.0275 27.5603 14.6663 26.6589 14.4741 25.6786C14.2819 24.6983 14.2819 23.7246 14.4741 22.787C14.6663 21.8462 15.0109 20.981 15.5013 20.2179C15.9917 19.4547 16.6279 18.7967 17.3967 18.2605C18.1621 17.7276 19.0303 17.3657 19.9746 17.1815C20.919 16.9973 21.8567 17.017 22.7613 17.2309C23.666 17.4447 24.501 17.8197 25.2432 18.3493C25.9855 18.879 26.625 19.5533 27.1485 20.3593C27.6721 21.162 28.0332 22.0666 28.2254 23.0502L28.3315 23.593C28.3547 23.7147 28.3712 23.8299 28.3778 23.9318C28.3845 24.0338 28.3845 24.1391 28.3812 24.2509C28.3778 24.3628 28.3646 24.5009 28.3447 24.6457C28.295 24.9154 28.1592 25.1523 27.9338 25.3661C27.7019 25.5898 27.4269 25.728 27.0922 25.7905C26.668 25.8727 26.2837 25.7905 25.9126 25.5405C25.5481 25.297 25.3294 24.9549 25.2399 24.4944L24.2193 19.254L22.4466 19.5928L22.589 20.3264C22.3306 20.2014 22.0522 20.1093 21.7606 20.0435C21.2404 19.9284 20.697 19.9251 20.1403 20.0336C19.5836 20.1422 19.07 20.3593 18.6194 20.685C18.172 21.0074 17.7976 21.412 17.5093 21.8857C17.2211 22.3561 17.0189 22.8857 16.9096 23.4516C16.8002 24.0239 16.8035 24.6161 16.9195 25.2181C17.0355 25.8201 17.2575 26.3694 17.5723 26.8497C17.8871 27.33 18.2715 27.7379 18.7122 28.0603C19.1562 28.386 19.6532 28.613 20.19 28.7413C20.7268 28.8696 21.2802 28.8794 21.8402 28.7709C22.4996 28.6459 23.0894 28.3794 23.5897 27.9781C23.9841 27.6656 24.3154 27.2905 24.5772 26.8629C24.9052 27.1721 25.2797 27.4024 25.6972 27.5537C26.2406 27.7511 26.8337 27.7906 27.4567 27.6689C28.1558 27.534 28.749 27.2182 29.2129 26.728C29.6735 26.2412 29.9684 25.649 30.0843 24.9681C30.1804 24.6556 30.2103 24.3101 30.1705 23.945C30.134 23.6095 30.0678 23.195 29.975 22.7147C29.7331 21.4679 29.2692 20.3231 28.6032 19.3033C27.9371 18.2901 27.1286 17.4381 26.1975 16.7637H26.2041ZM23.3114 24.9845C23.2484 25.3102 23.1325 25.6063 22.9701 25.8694C22.8077 26.1293 22.5957 26.3563 22.3405 26.5405C22.0887 26.7247 21.8004 26.8464 21.4856 26.9057C21.1708 26.9649 20.8527 26.9583 20.5413 26.8826C20.2265 26.807 19.9382 26.6754 19.683 26.4945C19.4279 26.3135 19.2092 26.0833 19.027 25.8069C18.848 25.5306 18.7254 25.2214 18.6591 24.8825C18.5929 24.5437 18.5929 24.2082 18.6558 23.8891C18.7188 23.5634 18.8381 23.2608 19.0071 22.9943C19.1761 22.7245 19.3914 22.4943 19.6532 22.3068C19.9117 22.1225 20.2066 21.9975 20.5214 21.935C20.8362 21.8725 21.1509 21.8824 21.4525 21.9581C21.7573 22.0337 22.039 22.1686 22.2875 22.3561C22.5393 22.5469 22.7613 22.7838 22.9403 23.0634C23.1192 23.3397 23.2418 23.6489 23.3081 23.9878C23.3744 24.3266 23.3744 24.6621 23.3114 24.9812V24.9845Z" fill="url(#paint0_linear_1_1243)"/>
<path d="M56.8047 39.9161L35.356 34.5541L36.6151 30.7579C36.7012 30.4223 37.0492 30.2217 37.3938 30.3072L57.5933 35.3568C57.9379 35.4423 58.15 35.7844 58.0638 36.12L56.8047 39.9161Z" fill="#161823"/>
<path d="M58.3029 35.0212L36.8542 29.6591L43.8127 2.22039C43.8988 1.88484 44.2467 1.68418 44.5913 1.76971L64.7909 6.81928C65.1355 6.90481 65.3476 7.24693 65.2614 7.58247L58.3029 35.0212Z" fill="white"/>
<path d="M58.2298 34.9159L36.781 29.5538L43.7395 2.11504C43.8257 1.7795 44.1736 1.57883 44.5182 1.66436L64.7178 6.71394C65.0624 6.79947 65.2744 7.14159 65.1883 7.47713L58.2298 34.9159Z" fill="#161823" fill-opacity="0.8"/>
<path d="M64.837 4.94081L45.383 0.0787452C43.988 -0.269955 42.5698 0.572189 42.2186 1.95712L34.2859 33.2382C33.9347 34.6231 34.7829 36.0343 36.1779 36.383L55.6286 41.2451C57.0236 41.5938 58.4451 40.7517 58.7964 39.3667L66.7291 8.08569C67.0803 6.70076 66.232 5.28951 64.837 4.94081ZM56.8679 38.8832C56.785 39.2121 56.4471 39.4128 56.1157 39.3305L36.665 34.4685C36.3337 34.3862 36.1316 34.0507 36.2144 33.7217L36.8175 31.3466L57.471 36.508L56.8679 38.8832ZM57.9547 34.5935L37.3012 29.4321L44.1471 2.4407C44.2299 2.11173 44.5679 1.91107 44.8993 1.99331L64.3499 6.85537C64.6813 6.93761 64.8834 7.27315 64.8006 7.60212L57.9547 34.5968V34.5935Z" fill="#161823"/>
<path d="M75.1855 15.0367L73.5552 16.1651C75.7488 19.2968 76.4711 23.2115 75.5334 26.9057C74.5956 30.6 72.137 33.656 68.7638 35.3897L69.6783 37.143C73.5585 35.1495 76.3982 31.5934 77.4652 27.3893C78.5421 23.1391 77.7137 18.6389 75.1921 15.04L75.1855 15.0367Z" fill="#00F2EA"/>
<path d="M70.4601 17.6979L68.8862 18.9052C70.374 20.8164 70.8876 23.2573 70.2945 25.5963C69.7013 27.9352 68.0479 29.8892 65.7847 30.863L66.5733 32.6755C69.4097 31.4551 71.4675 29.0537 72.223 26.0798C72.9785 23.106 72.3224 20.0927 70.4601 17.6979Z" fill="#00F2EA"/>
<defs>
<linearGradient id="paint0_linear_1_1243" x1="21.3544" y1="15.1208" x2="21.3544" y2="33.5438" gradientUnits="userSpaceOnUse">
<stop stop-color="#F5812E"/>
<stop offset="1" stop-color="#FF004F"/>
</linearGradient>
</defs>
</svg>
