<svg width="76" height="61" viewBox="0 0 76 61" fill="none" xmlns="http://www.w3.org/2000/svg">
<path d="M71.9443 37.9244L70.1355 38.6297V24.6203L73.7344 33.838C74.3666 35.4579 73.5634 37.2905 71.9443 37.9235V37.9244Z" fill="white"/>
<path d="M31.7112 3.97797H38.4249V9.73879C38.4249 11.5893 36.919 13.0952 35.0685 13.0952C33.218 13.0952 31.712 11.5893 31.712 9.73879V3.97797H31.7112Z" fill="url(#paint0_linear_1_1454)"/>
<path d="M57.9082 1.9199C58.6927 1.61361 59.5503 1.63148 60.3228 1.96925C61.0945 2.30787 61.6884 2.92555 61.9947 3.71L63.236 6.89032H45.1768L57.9082 1.9199Z" fill="white"/>
<path d="M17.7827 59.0832C16.1627 59.7153 14.3301 58.9121 13.6971 57.2931L10.9805 50.336H40.187L17.7827 59.084V59.0832Z" fill="white"/>
<path d="M68.4337 45.3417C68.4337 47.1565 66.9567 48.6335 65.1419 48.6335H4.99319C3.17842 48.6335 1.70142 47.1565 1.70142 45.3417V11.8837C1.70142 10.0689 3.17842 8.59192 4.99319 8.59192H30.0095V9.73881C30.0095 12.5278 32.2786 14.7969 35.0675 14.7969C37.8565 14.7969 40.1256 12.5278 40.1256 9.73881V8.59192H65.1419C66.9567 8.59192 68.4337 10.0689 68.4337 11.8837V45.3417Z" fill="white"/>
<path d="M20.2455 39.9706C16.9605 39.9706 13.8976 38.5829 11.7383 36.1394C11.7953 36.0747 11.8523 36.0118 11.911 35.9488C11.9212 35.9378 11.9306 35.9267 11.9408 35.9156C12.0131 35.8382 12.0854 35.7625 12.1594 35.6876C12.179 35.6681 12.1994 35.6485 12.219 35.6289C12.2734 35.5745 12.3279 35.52 12.3832 35.4673C12.4104 35.4409 12.4385 35.4154 12.4657 35.3898C12.5142 35.3439 12.5627 35.298 12.6121 35.2529C12.6427 35.2248 12.6733 35.1984 12.7039 35.1712C12.7516 35.1286 12.7984 35.087 12.846 35.0453C12.8784 35.0172 12.9107 34.99 12.943 34.9627C12.9898 34.9227 13.0375 34.8836 13.0851 34.8445C13.1191 34.8172 13.1532 34.79 13.1864 34.7628C13.234 34.7254 13.2808 34.6879 13.3293 34.6505C13.3642 34.6241 13.3991 34.5977 13.4339 34.5714C13.4816 34.5356 13.5301 34.4999 13.5786 34.4642C13.6143 34.4386 13.65 34.4131 13.6858 34.3876C13.7343 34.3527 13.7836 34.3187 13.833 34.2846C13.8687 34.26 13.9053 34.2353 13.941 34.2115C13.9912 34.1783 14.0414 34.1451 14.0925 34.1119C14.1291 34.089 14.1648 34.0651 14.2014 34.0422C14.2533 34.0098 14.3052 33.9775 14.3571 33.946C14.3928 33.9239 14.4294 33.9018 14.466 33.8805C14.5196 33.849 14.5732 33.8175 14.6276 33.7869C14.6634 33.7665 14.6982 33.7461 14.734 33.7265C14.7901 33.695 14.8471 33.6644 14.905 33.6346C14.939 33.6168 14.9722 33.598 15.0062 33.581C15.0683 33.5487 15.1313 33.5172 15.1943 33.4866C15.2232 33.4721 15.253 33.4568 15.2819 33.4423C15.3585 33.4058 15.435 33.37 15.5116 33.3343C15.5278 33.3266 15.5448 33.319 15.561 33.3113C15.6563 33.2688 15.7515 33.2271 15.8477 33.1863C15.8562 33.1828 15.8656 33.1794 15.8741 33.1752C15.96 33.1395 16.0468 33.1046 16.1336 33.0705C16.1625 33.0595 16.1923 33.0484 16.222 33.0374C16.2884 33.0118 16.3556 32.9872 16.4228 32.9633C16.4594 32.9506 16.496 32.9387 16.5317 32.9259C16.593 32.9046 16.6534 32.8842 16.7155 32.8638C16.7555 32.851 16.7946 32.8391 16.8346 32.8264C16.8933 32.8076 16.952 32.7898 17.0107 32.7719C17.0524 32.76 17.0941 32.7481 17.1358 32.7362C17.1937 32.72 17.2515 32.7038 17.3094 32.6885C17.3528 32.6775 17.3953 32.6664 17.4387 32.6553C17.4957 32.6409 17.5536 32.6264 17.6106 32.6128C17.6548 32.6026 17.699 32.5924 17.7433 32.5822C17.8003 32.5694 17.8573 32.5567 17.9151 32.5447C17.9602 32.5354 18.0045 32.526 18.0496 32.5175C18.1066 32.5065 18.1644 32.4954 18.2223 32.4852C18.2674 32.4775 18.3125 32.469 18.3576 32.4614C18.4154 32.452 18.4741 32.4426 18.532 32.4341C18.5771 32.4273 18.6222 32.4205 18.6681 32.4146C18.7268 32.4061 18.7864 32.3993 18.8451 32.3916C18.8902 32.3865 18.9344 32.3805 18.9795 32.3754C19.0399 32.3686 19.1012 32.3627 19.1616 32.3576C19.2058 32.3533 19.2492 32.3491 19.2935 32.3457C19.3573 32.3405 19.4211 32.3363 19.4849 32.332C19.5266 32.3295 19.5674 32.3261 19.6091 32.3235C19.6797 32.3193 19.7503 32.3167 19.821 32.3142C19.8558 32.3125 19.8907 32.3108 19.9265 32.3099C20.032 32.3074 20.1383 32.3057 20.2447 32.3057C20.351 32.3057 20.4574 32.3074 20.5629 32.3099C20.5977 32.3108 20.6326 32.3125 20.6684 32.3142C20.739 32.3167 20.8096 32.3193 20.8802 32.3235C20.9219 32.3261 20.9627 32.3286 21.0044 32.332C21.0682 32.3363 21.1321 32.3405 21.1959 32.3457C21.2401 32.3491 21.2835 32.3542 21.3277 32.3576C21.3881 32.3635 21.4494 32.3686 21.5098 32.3754C21.5549 32.3805 21.6 32.3856 21.6442 32.3916C21.7029 32.3984 21.7625 32.4061 21.8212 32.4146C21.8663 32.4205 21.9122 32.4273 21.9573 32.4341C22.0152 32.4426 22.0739 32.452 22.1318 32.4614C22.1768 32.469 22.2219 32.4767 22.267 32.4852C22.3249 32.4954 22.3819 32.5065 22.4397 32.5175C22.4848 32.526 22.5299 32.5354 22.5742 32.5447C22.6312 32.5567 22.689 32.5694 22.746 32.5813C22.7903 32.5915 22.8345 32.6009 22.8788 32.612C22.9366 32.6256 22.9936 32.64 23.0506 32.6545C23.094 32.6656 23.1374 32.6766 23.1799 32.6877C23.2378 32.703 23.2957 32.7192 23.3535 32.7353C23.3952 32.7472 23.4369 32.7591 23.4786 32.7711C23.5373 32.7881 23.596 32.8068 23.6547 32.8255C23.6947 32.8383 23.7347 32.8502 23.7738 32.8629C23.8351 32.8825 23.8963 32.9038 23.9567 32.9251C23.9933 32.9378 24.0299 32.9497 24.0665 32.9625C24.1337 32.9863 24.2001 33.0118 24.2673 33.0365C24.2971 33.0476 24.3268 33.0586 24.3558 33.0697C24.4425 33.1029 24.5285 33.1378 24.6144 33.1735C24.6238 33.1769 24.6331 33.1811 24.6416 33.1845C24.7378 33.2245 24.8331 33.2662 24.9284 33.3096C24.9454 33.3173 24.9615 33.3258 24.9786 33.3334C25.0551 33.3683 25.1317 33.4041 25.2074 33.4406C25.2372 33.4551 25.267 33.4704 25.2959 33.4849C25.358 33.5155 25.421 33.547 25.4831 33.5793C25.5171 33.5972 25.5503 33.6151 25.5843 33.6338C25.6413 33.6644 25.6983 33.6942 25.7545 33.7257C25.7902 33.7452 25.826 33.7656 25.8608 33.7861C25.9144 33.8167 25.9689 33.8473 26.0225 33.8797C26.0591 33.9009 26.0948 33.9231 26.1314 33.9452C26.1833 33.9767 26.2352 34.0081 26.2871 34.0413C26.3237 34.0643 26.3594 34.0873 26.396 34.1111C26.4462 34.1434 26.4972 34.1766 26.5466 34.2098C26.5832 34.2344 26.6189 34.2583 26.6555 34.2838C26.7048 34.3178 26.7542 34.3519 26.8027 34.3867C26.8384 34.4123 26.8742 34.4378 26.9099 34.4633C26.9584 34.4982 27.006 34.5339 27.0545 34.5705C27.0894 34.5969 27.1243 34.6233 27.1592 34.6496C27.2068 34.6862 27.2545 34.7237 27.3021 34.7619C27.3361 34.7892 27.3702 34.8155 27.4034 34.8436C27.451 34.8828 27.4978 34.9219 27.5454 34.9619C27.5778 34.9891 27.611 35.0163 27.6424 35.0444C27.6901 35.0861 27.7377 35.1278 27.7854 35.1703C27.816 35.1976 27.8466 35.2248 27.8773 35.252C27.9266 35.2971 27.9751 35.343 28.0244 35.389C28.0517 35.4145 28.0797 35.44 28.107 35.4664C28.1623 35.52 28.2176 35.5745 28.272 35.6289C28.2916 35.6485 28.3112 35.6672 28.3307 35.6868C28.4048 35.7616 28.4779 35.8382 28.5494 35.9156C28.5579 35.925 28.5664 35.9352 28.5758 35.9446C28.6353 36.0084 28.694 36.0739 28.7519 36.1394C26.5934 38.5829 23.5305 39.9706 20.2464 39.9706H20.2455Z" fill="#00F2EA"/>
<path d="M20.2459 17.254C26.5086 17.254 31.6041 22.3495 31.6041 28.6123C31.6041 30.8261 30.983 32.9319 29.7987 34.7602C29.7987 34.7602 29.7979 34.7594 29.797 34.7585C29.7834 34.7432 29.7689 34.7288 29.7545 34.7143C29.6873 34.642 29.6192 34.5705 29.5503 34.5007C29.5197 34.4701 29.489 34.4395 29.4584 34.4089C29.4048 34.3553 29.3512 34.3017 29.2967 34.2498C29.2619 34.2157 29.2261 34.1825 29.1912 34.1494C29.1402 34.1017 29.0891 34.0532 29.0381 34.0064C29.0007 33.9724 28.9624 33.9384 28.9249 33.9043C28.8747 33.8592 28.8237 33.8141 28.7726 33.7699C28.7335 33.7359 28.6944 33.7027 28.6552 33.6695C28.6042 33.6261 28.5531 33.5836 28.5012 33.541C28.4613 33.5087 28.4213 33.4764 28.3813 33.444C28.3285 33.4024 28.2758 33.3607 28.223 33.3198C28.183 33.2883 28.143 33.2577 28.1022 33.2271C28.0478 33.1862 27.9925 33.1454 27.9372 33.1054C27.898 33.0765 27.858 33.0476 27.818 33.0186C27.7593 32.9769 27.6998 32.9361 27.6402 32.8944C27.6028 32.8689 27.5662 32.8434 27.5296 32.8178C27.4599 32.7702 27.3884 32.7243 27.3178 32.6783C27.2905 32.6604 27.2642 32.6426 27.2369 32.6256C27.1391 32.5635 27.0396 32.5022 26.94 32.4426C26.9145 32.4273 26.8881 32.4129 26.8626 32.3975C26.7877 32.3533 26.7128 32.3099 26.6371 32.2674C26.5988 32.2461 26.5605 32.2257 26.5223 32.2044C26.4585 32.1695 26.3938 32.1338 26.3291 32.1006C26.2866 32.0785 26.244 32.0564 26.2015 32.0351C26.1402 32.0036 26.079 31.9721 26.0177 31.9424C25.9726 31.9202 25.9275 31.899 25.8825 31.8769C25.822 31.8479 25.7616 31.819 25.7004 31.7918C25.6544 31.7705 25.6085 31.7501 25.5617 31.7297C25.5004 31.7024 25.4392 31.6761 25.3779 31.6497C25.3311 31.6301 25.2852 31.6106 25.2384 31.591C25.1763 31.5655 25.1133 31.5399 25.0504 31.5153C25.0044 31.4974 24.9585 31.4787 24.9117 31.4608C24.847 31.4361 24.7815 31.4123 24.716 31.3885C24.6718 31.3723 24.6275 31.3562 24.5824 31.34C24.5118 31.3153 24.4403 31.2915 24.3689 31.2677C24.3289 31.2549 24.2897 31.2405 24.2498 31.2277C24.1587 31.1988 24.0677 31.1707 23.9758 31.1435C23.9554 31.1375 23.935 31.1307 23.9145 31.1247C23.8022 31.0924 23.6891 31.0609 23.5759 31.0312C23.5419 31.0226 23.5078 31.0141 23.4738 31.0056C23.3938 30.9852 23.3139 30.9656 23.2339 30.9469C23.1896 30.9367 23.1454 30.9274 23.1012 30.918C23.0305 30.9027 22.9591 30.8865 22.8885 30.872C22.8408 30.8627 22.7932 30.8533 22.7447 30.844C22.6766 30.8312 22.6085 30.8176 22.5396 30.8057C22.4903 30.7972 22.4401 30.7887 22.3907 30.781C22.3235 30.77 22.2563 30.7589 22.1882 30.7495C22.1381 30.7419 22.087 30.7351 22.0368 30.7283C21.9687 30.7189 21.9015 30.7104 21.8335 30.7019C21.7833 30.6959 21.7331 30.69 21.682 30.684C21.6131 30.6764 21.5433 30.6696 21.4736 30.6636C21.4242 30.6593 21.3749 30.6542 21.3247 30.65C21.2524 30.644 21.18 30.6389 21.1077 30.6347C21.0609 30.6313 21.0141 30.6279 20.9665 30.6253C20.8865 30.6211 20.8065 30.6177 20.7257 30.6151C20.6857 30.6134 20.6466 30.6117 20.6066 30.6109C20.4866 30.6075 20.3658 30.6057 20.245 30.6057C20.1242 30.6057 20.0042 30.6075 19.8834 30.6109C19.8434 30.6117 19.8034 30.6143 19.7634 30.6151C19.6835 30.6177 19.6035 30.6211 19.5235 30.6253C19.4759 30.6279 19.4291 30.6313 19.3814 30.6347C19.3091 30.6389 19.2368 30.644 19.1653 30.65C19.1151 30.6542 19.0658 30.6585 19.0156 30.6636C18.9467 30.6704 18.8778 30.6764 18.8088 30.684C18.7578 30.69 18.7067 30.6959 18.6565 30.7019C18.5893 30.7104 18.5213 30.7189 18.4541 30.7274C18.403 30.7342 18.352 30.7419 18.3009 30.7495C18.2337 30.7597 18.1673 30.77 18.101 30.781C18.0508 30.7895 17.9997 30.798 17.9495 30.8065C17.8823 30.8184 17.8151 30.8312 17.7479 30.844C17.6985 30.8533 17.65 30.8627 17.6007 30.8729C17.5309 30.8874 17.462 30.9027 17.3931 30.918C17.3472 30.9282 17.3012 30.9376 17.2553 30.9486C17.1787 30.9665 17.1021 30.9861 17.0255 31.0048C16.9881 31.0141 16.9507 31.0226 16.9132 31.0329C16.8009 31.0626 16.6886 31.0933 16.5772 31.1256C16.5499 31.1332 16.5219 31.1426 16.4946 31.1511C16.4104 31.1766 16.3262 31.2013 16.242 31.2285C16.1977 31.243 16.1543 31.2575 16.1101 31.2719C16.0429 31.2941 15.9756 31.3162 15.9093 31.34C15.8616 31.357 15.8148 31.374 15.7672 31.391C15.7051 31.414 15.6421 31.4361 15.5809 31.46C15.5324 31.4787 15.483 31.4982 15.4345 31.517C15.375 31.5408 15.3146 31.5646 15.255 31.5893C15.2057 31.6097 15.1563 31.6301 15.1078 31.6514C15.0491 31.6761 14.9913 31.7016 14.9326 31.728C14.8841 31.7501 14.8347 31.7714 14.7862 31.7935C14.7284 31.8199 14.6705 31.8471 14.6127 31.8752C14.565 31.8981 14.5165 31.9211 14.4689 31.9441C14.411 31.973 14.3532 32.0019 14.2953 32.0317C14.2494 32.0555 14.2026 32.0785 14.1566 32.1032C14.0971 32.1346 14.0375 32.167 13.9788 32.1993C13.9354 32.2231 13.892 32.2461 13.8495 32.2699C13.7823 32.3074 13.7159 32.3465 13.6495 32.3856C13.6155 32.4052 13.5806 32.4248 13.5474 32.4452C13.4487 32.5039 13.3518 32.5643 13.2548 32.6256C13.2207 32.6477 13.1867 32.6698 13.1527 32.6919C13.0889 32.7336 13.025 32.7745 12.9621 32.817C12.9212 32.8442 12.8804 32.8731 12.8404 32.9012C12.7851 32.9395 12.729 32.9778 12.6737 33.0169C12.6311 33.0476 12.5894 33.0782 12.5469 33.1097C12.4941 33.148 12.4422 33.1862 12.3903 33.2254C12.3478 33.2577 12.3053 33.2909 12.2627 33.3232C12.2125 33.3624 12.1615 33.4015 12.1113 33.4415C12.0687 33.4755 12.0271 33.5096 11.9854 33.5436C11.936 33.5844 11.8858 33.6253 11.8373 33.667C11.7965 33.7018 11.7556 33.7367 11.7148 33.7716C11.6655 33.8141 11.6161 33.8575 11.5676 33.9009C11.5285 33.9358 11.4885 33.9707 11.4502 34.0064C11.4 34.0524 11.3507 34.0983 11.3022 34.1451C11.2656 34.18 11.2281 34.214 11.1916 34.2498C11.1388 34.3008 11.0869 34.3519 11.0359 34.4038C11.0035 34.4361 10.9712 34.4676 10.9389 34.4999C10.8725 34.568 10.8061 34.6369 10.7406 34.7066C10.7245 34.7237 10.7083 34.7407 10.6921 34.7577C10.6921 34.7577 10.6921 34.7577 10.6913 34.7585C9.50781 32.9293 8.88672 30.8244 8.88672 28.6106C8.88672 22.3478 13.9822 17.2523 20.245 17.2523L20.2459 17.254Z" fill="#D9D9D9" fill-opacity="0.8"/>
<path d="M20.2458 21.2962C22.0827 21.2962 23.5776 22.7911 23.5776 24.628C23.5776 26.4649 22.0827 27.9597 20.2458 27.9597C18.4089 27.9597 16.9141 26.4649 16.9141 24.628C16.9141 22.7911 18.4089 21.2962 20.2458 21.2962Z" fill="#00F2EA"/>
<path d="M65.1421 50.3343H4.99339C2.24018 50.3343 0 48.0941 0 45.3409V11.8837C0 9.1305 2.24018 6.89032 4.99339 6.89032H30.8597V8.59194H4.99339C3.17862 8.59194 1.70162 10.0689 1.70162 11.8837V45.3417C1.70162 47.1565 3.17862 48.6335 4.99339 48.6335H65.1421C66.9569 48.6335 68.4339 47.1565 68.4339 45.3417V11.8837C68.4339 10.0689 66.9569 8.59194 65.1421 8.59194H39.2758V6.89032H65.1421C67.8953 6.89032 70.1355 9.1305 70.1355 11.8837V45.3417C70.1355 48.0949 67.8953 50.3351 65.1421 50.3351V50.3343Z" fill="#161823"/>
<path d="M20.2457 41.6722C16.206 41.6722 12.4582 39.8472 9.96282 36.6643L9.55103 36.1394L9.96197 35.6144C12.4557 32.4316 16.2043 30.6066 20.2448 30.6066C24.2853 30.6066 28.0323 32.4316 30.5268 35.6144L30.9378 36.1394L30.526 36.6643C28.0306 39.8472 24.2828 41.6722 20.2448 41.6722H20.2457ZM11.7385 36.1394C13.897 38.5829 16.9607 39.9706 20.2457 39.9706C23.5307 39.9706 26.5927 38.5829 28.7512 36.1394C26.5936 33.6959 23.5307 32.3082 20.2457 32.3082C16.9607 32.3082 13.8961 33.6959 11.7385 36.1394Z" fill="#161823"/>
<path d="M10.6312 37.5185L9.96161 36.6643C8.14513 34.3476 7.18457 31.5637 7.18457 28.6123C7.18457 21.411 13.0432 15.5524 20.2445 15.5524C27.4457 15.5524 33.3044 21.411 33.3044 28.6123C33.3044 31.5637 32.3438 34.3484 30.5256 36.6643L29.856 37.5177L29.1873 36.6635C27.0177 33.8949 23.7583 32.3073 20.2453 32.3073C16.7323 32.3073 13.4703 33.8949 11.3016 36.6635L10.632 37.5177L10.6312 37.5185ZM20.2453 30.6066C23.9089 30.6066 27.3317 32.1074 29.7982 34.7602C30.9825 32.9318 31.6036 30.8261 31.6036 28.6123C31.6036 22.3495 26.5081 17.254 20.2453 17.254C13.9825 17.254 8.88704 22.3495 8.88704 28.6123C8.88704 30.8252 9.50728 32.931 10.6916 34.7602C13.1572 32.1074 16.5809 30.6066 20.2453 30.6066ZM20.2453 29.6613C17.47 29.6613 15.2119 27.4033 15.2119 24.6279C15.2119 21.8526 17.47 19.5946 20.2453 19.5946C23.0207 19.5946 25.2787 21.8526 25.2787 24.6279C25.2787 27.4033 23.0207 29.6613 20.2453 29.6613ZM20.2453 21.2962C18.4084 21.2962 16.9136 22.791 16.9136 24.6279C16.9136 26.4648 18.4084 27.9597 20.2453 27.9597C22.0822 27.9597 23.5771 26.4648 23.5771 24.6279C23.5771 22.791 22.0822 21.2962 20.2453 21.2962Z" fill="#161823"/>
<path d="M20.2458 29.6613C17.4704 29.6613 15.2124 27.4033 15.2124 24.6279C15.2124 21.8526 17.4704 19.5945 20.2458 19.5945C23.0211 19.5945 25.2792 21.8526 25.2792 24.6279C25.2792 27.4033 23.0211 29.6613 20.2458 29.6613ZM20.2458 21.2962C18.4089 21.2962 16.914 22.791 16.914 24.6279C16.914 26.4648 18.4089 27.9597 20.2458 27.9597C22.0827 27.9597 23.5775 26.4648 23.5775 24.6279C23.5775 22.791 22.0827 21.2962 20.2458 21.2962Z" fill="#161823"/>
<path d="M62.4636 19.4142H39.2749C38.8052 19.4142 38.4241 19.033 38.4241 18.5634C38.4241 18.0937 38.8052 17.7126 39.2749 17.7126H62.4636C62.9333 17.7126 63.3145 18.0937 63.3145 18.5634C63.3145 19.033 62.9333 19.4142 62.4636 19.4142Z" fill="#161823"/>
<path d="M62.4636 24.439H39.2749C38.8052 24.439 38.4241 24.0579 38.4241 23.5882C38.4241 23.1186 38.8052 22.7374 39.2749 22.7374H62.4636C62.9333 22.7374 63.3145 23.1186 63.3145 23.5882C63.3145 24.0579 62.9333 24.439 62.4636 24.439Z" fill="#161823"/>
<path d="M62.4636 29.4631H39.2749C38.8052 29.4631 38.4241 29.0819 38.4241 28.6123C38.4241 28.1426 38.8052 27.7615 39.2749 27.7615H62.4636C62.9333 27.7615 63.3145 28.1426 63.3145 28.6123C63.3145 29.0819 62.9333 29.4631 62.4636 29.4631Z" fill="#161823"/>
<path d="M62.4636 34.488H39.2749C38.8052 34.488 38.4241 34.1068 38.4241 33.6372C38.4241 33.1675 38.8052 32.7864 39.2749 32.7864H62.4636C62.9333 32.7864 63.3145 33.1675 63.3145 33.6372C63.3145 34.1068 62.9333 34.488 62.4636 34.488Z" fill="#161823"/>
<path d="M56.3589 39.5128H45.3801C44.9105 39.5128 44.5293 39.1317 44.5293 38.662C44.5293 38.1924 44.9105 37.8112 45.3801 37.8112H56.3589C56.8286 37.8112 57.2097 38.1924 57.2097 38.662C57.2097 39.1317 56.8286 39.5128 56.3589 39.5128Z" fill="#161823"/>
<path d="M35.0676 14.7977C32.2786 14.7977 30.0095 12.5286 30.0095 9.73965V2.27637H40.1265V9.7388C40.1265 12.5278 37.8574 14.7969 35.0684 14.7969L35.0676 14.7977ZM31.7111 3.97798V9.7388C31.7111 11.5893 33.2171 13.0952 35.0676 13.0952C36.9181 13.0952 38.424 11.5893 38.424 9.7388V3.97798H31.7103H31.7111Z" fill="#161823"/>
<path d="M35.0674 9.55076C33.9954 9.55076 33.1267 8.68208 33.1267 7.61006C33.1267 6.53805 33.9954 5.66937 35.0674 5.66937C36.1394 5.66937 37.0081 6.53805 37.0081 7.61006C37.0081 8.68208 36.1394 9.55076 35.0674 9.55076Z" fill="#161823"/>
<path d="M40.9415 8.53407L40.323 6.94902L57.2634 0.334838C58.4716 -0.136509 59.7912 -0.109284 60.9789 0.41056C62.1675 0.931254 63.0813 1.88331 63.5526 3.09146L65.2466 7.43228L63.6615 8.05081L61.9667 3.70999C61.6604 2.92555 61.0665 2.30701 60.2949 1.96924C59.5232 1.63062 58.6656 1.6136 57.8803 1.91989L40.9398 8.53407H40.9415Z" fill="#161823"/>
<path d="M16.629 61C14.6866 61 12.848 59.8267 12.0993 57.9115L8.9292 49.794L10.5143 49.1746L13.6835 57.2922C14.3165 58.9113 16.1492 59.7144 17.7691 59.0823L44.3824 48.6913L45.0009 50.2764L18.3876 60.6673C17.8099 60.8928 17.2135 61 16.6282 61H16.629Z" fill="#161823"/>
<path d="M69.594 40.6742L68.9754 39.0891L71.9439 37.9303C73.563 37.2973 74.3662 35.4647 73.734 33.8448L68.4922 20.4182L70.0772 19.7996L75.3191 33.2262C76.2924 35.7199 75.0553 38.5412 72.5624 39.5162L69.5931 40.675L69.594 40.6742Z" fill="#161823"/>
<defs>
<linearGradient id="paint0_linear_1_1454" x1="35.068" y1="3.97797" x2="35.068" y2="13.0952" gradientUnits="userSpaceOnUse">
<stop stop-color="#F5812E"/>
<stop offset="1" stop-color="#FF004F"/>
</linearGradient>
</defs>
</svg>
