<svg width="343" height="44" viewBox="0 0 343 44" fill="none" xmlns="http://www.w3.org/2000/svg">
<path d="M0 10C0 4.47715 4.47715 0 10 0H333C338.523 0 343 4.47715 343 10V34C343 39.5228 338.523 44 333 44H10C4.47716 44 0 39.5228 0 34V10Z" fill="#545252"/>
<path d="M99.3946 27.772C98.6266 27.772 97.9386 27.6493 97.3306 27.404C96.7332 27.148 96.2319 26.7747 95.8266 26.284C95.4319 25.7933 95.1439 25.1907 94.9626 24.476L96.3546 24.06C96.4932 24.604 96.7012 25.0627 96.9786 25.436C97.2559 25.8093 97.6026 26.092 98.0186 26.284C98.4346 26.476 98.9146 26.572 99.4586 26.572C99.9919 26.572 100.44 26.492 100.803 26.332C101.165 26.1613 101.437 25.9213 101.619 25.612C101.8 25.292 101.891 24.9133 101.891 24.476C101.891 23.9213 101.736 23.4893 101.427 23.18C101.128 22.8707 100.685 22.6307 100.099 22.46L98.3066 21.948C97.4426 21.7027 96.7812 21.3453 96.3226 20.876C95.8746 20.396 95.6506 19.788 95.6506 19.052C95.6506 18.4227 95.8052 17.8787 96.1146 17.42C96.4346 16.9507 96.8772 16.588 97.4426 16.332C98.0079 16.076 98.6746 15.948 99.4426 15.948C100.093 15.948 100.68 16.044 101.203 16.236C101.736 16.4173 102.184 16.6947 102.547 17.068C102.909 17.4307 103.176 17.8787 103.347 18.412L102.019 18.86C101.795 18.2627 101.464 17.8253 101.027 17.548C100.6 17.26 100.061 17.116 99.4106 17.116C98.6959 17.116 98.1412 17.276 97.7466 17.596C97.3626 17.9053 97.1706 18.3373 97.1706 18.892C97.1706 19.372 97.3146 19.7507 97.6026 20.028C97.8906 20.3053 98.3386 20.5347 98.9466 20.716L100.771 21.26C101.613 21.516 102.264 21.9053 102.723 22.428C103.181 22.94 103.411 23.596 103.411 24.396C103.411 25.068 103.251 25.66 102.931 26.172C102.611 26.6733 102.152 27.068 101.555 27.356C100.957 27.6333 100.237 27.772 99.3946 27.772ZM108.884 27.692C108.062 27.692 107.353 27.5107 106.756 27.148C106.169 26.7747 105.716 26.2573 105.396 25.596C105.086 24.9347 104.932 24.1613 104.932 23.276C104.932 22.412 105.097 21.66 105.428 21.02C105.769 20.3693 106.233 19.8627 106.82 19.5C107.417 19.1373 108.084 18.956 108.82 18.956C109.566 18.956 110.217 19.1107 110.772 19.42C111.326 19.7293 111.753 20.172 112.052 20.748C112.361 21.324 112.516 22.0067 112.516 22.796C112.516 22.956 112.51 23.1107 112.5 23.26C112.5 23.3987 112.494 23.516 112.484 23.612H105.732V22.572H111.652L111.172 22.812C111.182 22.2253 111.092 21.7293 110.9 21.324C110.708 20.908 110.43 20.5933 110.068 20.38C109.705 20.1667 109.278 20.06 108.788 20.06C108.329 20.06 107.913 20.1667 107.54 20.38C107.166 20.5827 106.873 20.908 106.66 21.356C106.446 21.7933 106.34 22.3693 106.34 23.084V23.34C106.34 24.3533 106.558 25.1427 106.996 25.708C107.433 26.2627 108.089 26.54 108.964 26.54C109.486 26.54 109.929 26.4333 110.292 26.22C110.665 25.996 110.974 25.6547 111.22 25.196L112.308 25.724C112.116 26.1613 111.86 26.5293 111.54 26.828C111.22 27.116 110.836 27.3347 110.388 27.484C109.95 27.6227 109.449 27.692 108.884 27.692ZM117.931 27.692C117.109 27.692 116.4 27.5107 115.803 27.148C115.216 26.7747 114.763 26.2573 114.443 25.596C114.133 24.9347 113.979 24.1613 113.979 23.276C113.979 22.412 114.144 21.66 114.475 21.02C114.816 20.3693 115.28 19.8627 115.867 19.5C116.464 19.1373 117.131 18.956 117.867 18.956C118.613 18.956 119.264 19.1107 119.819 19.42C120.373 19.7293 120.8 20.172 121.099 20.748C121.408 21.324 121.563 22.0067 121.563 22.796C121.563 22.956 121.557 23.1107 121.547 23.26C121.547 23.3987 121.541 23.516 121.531 23.612H114.779V22.572H120.699L120.219 22.812C120.229 22.2253 120.139 21.7293 119.947 21.324C119.755 20.908 119.477 20.5933 119.115 20.38C118.752 20.1667 118.325 20.06 117.835 20.06C117.376 20.06 116.96 20.1667 116.587 20.38C116.213 20.5827 115.92 20.908 115.707 21.356C115.493 21.7933 115.387 22.3693 115.387 23.084V23.34C115.387 24.3533 115.605 25.1427 116.043 25.708C116.48 26.2627 117.136 26.54 118.011 26.54C118.533 26.54 118.976 26.4333 119.339 26.22C119.712 25.996 120.021 25.6547 120.267 25.196L121.355 25.724C121.163 26.1613 120.907 26.5293 120.587 26.828C120.267 27.116 119.883 27.3347 119.435 27.484C118.997 27.6227 118.496 27.692 117.931 27.692ZM127.821 27.5V16.22H130.381L133.325 26.54H133.373L136.317 16.22H138.877V27.5H137.533V16.972H137.485L134.365 27.5H132.349L129.213 16.972H129.181V27.5H127.821ZM144.994 27.692C144.237 27.692 143.554 27.516 142.946 27.164C142.349 26.812 141.874 26.3107 141.522 25.66C141.17 25.0093 140.994 24.2307 140.994 23.324C140.994 22.428 141.17 21.6547 141.522 21.004C141.874 20.3427 142.354 19.836 142.962 19.484C143.57 19.132 144.248 18.956 144.994 18.956C145.752 18.956 146.434 19.132 147.042 19.484C147.65 19.836 148.125 20.3373 148.466 20.988C148.818 21.6387 148.994 22.4173 148.994 23.324C148.994 24.2307 148.818 25.0093 148.466 25.66C148.125 26.3107 147.65 26.812 147.042 27.164C146.445 27.516 145.762 27.692 144.994 27.692ZM144.994 26.524C145.464 26.524 145.896 26.412 146.29 26.188C146.685 25.9533 147 25.6013 147.234 25.132C147.469 24.652 147.586 24.0493 147.586 23.324C147.586 22.588 147.469 21.9853 147.234 21.516C147 21.036 146.685 20.684 146.29 20.46C145.896 20.2253 145.464 20.108 144.994 20.108C144.525 20.108 144.093 20.2253 143.698 20.46C143.314 20.684 143 21.036 142.754 21.516C142.52 21.9853 142.402 22.588 142.402 23.324C142.402 24.06 142.52 24.6627 142.754 25.132C142.989 25.6013 143.304 25.9533 143.698 26.188C144.093 26.412 144.525 26.524 144.994 26.524ZM150.926 27.5V19.148H152.19V20.572H152.222C152.372 20.0813 152.638 19.692 153.022 19.404C153.406 19.1053 153.854 18.956 154.366 18.956C154.473 18.956 154.574 18.9613 154.67 18.972C154.777 18.9827 154.868 18.9987 154.942 19.02V20.268C154.846 20.2467 154.75 20.2307 154.654 20.22C154.569 20.2093 154.468 20.204 154.35 20.204C153.966 20.204 153.614 20.3 153.294 20.492C152.985 20.6733 152.74 20.9347 152.558 21.276C152.377 21.6067 152.286 22.0067 152.286 22.476V27.5H150.926ZM159.556 27.692C158.734 27.692 158.025 27.5107 157.428 27.148C156.841 26.7747 156.388 26.2573 156.068 25.596C155.758 24.9347 155.604 24.1613 155.604 23.276C155.604 22.412 155.769 21.66 156.1 21.02C156.441 20.3693 156.905 19.8627 157.492 19.5C158.089 19.1373 158.756 18.956 159.492 18.956C160.238 18.956 160.889 19.1107 161.444 19.42C161.998 19.7293 162.425 20.172 162.724 20.748C163.033 21.324 163.188 22.0067 163.188 22.796C163.188 22.956 163.182 23.1107 163.172 23.26C163.172 23.3987 163.166 23.516 163.156 23.612H156.404V22.572H162.324L161.844 22.812C161.854 22.2253 161.764 21.7293 161.572 21.324C161.38 20.908 161.102 20.5933 160.74 20.38C160.377 20.1667 159.95 20.06 159.46 20.06C159.001 20.06 158.585 20.1667 158.212 20.38C157.838 20.5827 157.545 20.908 157.332 21.356C157.118 21.7933 157.012 22.3693 157.012 23.084V23.34C157.012 24.3533 157.23 25.1427 157.668 25.708C158.105 26.2627 158.761 26.54 159.636 26.54C160.158 26.54 160.601 26.4333 160.964 26.22C161.337 25.996 161.646 25.6547 161.892 25.196L162.98 25.724C162.788 26.1613 162.532 26.5293 162.212 26.828C161.892 27.116 161.508 27.3347 161.06 27.484C160.622 27.6227 160.121 27.692 159.556 27.692ZM168.518 27.5L172.358 16.22H174.646L178.47 27.5H176.966L173.526 16.924H173.478L170.038 27.5H168.518ZM170.71 23.788V22.604H176.278V23.788H170.71ZM183.907 26.524C184.408 26.524 184.845 26.4013 185.219 26.156C185.603 25.9 185.901 25.532 186.115 25.052C186.328 24.572 186.435 23.9907 186.435 23.308C186.435 22.6253 186.328 22.0493 186.115 21.58C185.901 21.1 185.603 20.7373 185.219 20.492C184.845 20.236 184.408 20.108 183.907 20.108C183.416 20.108 182.979 20.2413 182.595 20.508C182.211 20.764 181.901 21.132 181.667 21.612C181.443 22.0813 181.331 22.6467 181.331 23.308C181.331 23.9907 181.437 24.572 181.651 25.052C181.875 25.532 182.179 25.9 182.563 26.156C182.957 26.4013 183.405 26.524 183.907 26.524ZM180.067 27.5V15.916H181.427V20.684H181.475C181.635 20.332 181.853 20.028 182.131 19.772C182.408 19.5053 182.723 19.3027 183.075 19.164C183.427 19.0253 183.8 18.956 184.195 18.956C184.92 18.956 185.555 19.132 186.099 19.484C186.643 19.8253 187.069 20.3267 187.379 20.988C187.688 21.6387 187.843 22.412 187.843 23.308C187.843 24.2147 187.688 24.9987 187.379 25.66C187.069 26.3107 186.637 26.812 186.083 27.164C185.539 27.516 184.904 27.692 184.179 27.692C183.773 27.692 183.384 27.6227 183.011 27.484C182.648 27.3453 182.323 27.1427 182.035 26.876C181.747 26.6093 181.528 26.3 181.379 25.948H181.331V27.5H180.067ZM193.479 27.692C192.721 27.692 192.039 27.516 191.431 27.164C190.833 26.812 190.359 26.3107 190.007 25.66C189.655 25.0093 189.479 24.2307 189.479 23.324C189.479 22.428 189.655 21.6547 190.007 21.004C190.359 20.3427 190.839 19.836 191.447 19.484C192.055 19.132 192.732 18.956 193.479 18.956C194.236 18.956 194.919 19.132 195.527 19.484C196.135 19.836 196.609 20.3373 196.951 20.988C197.303 21.6387 197.479 22.4173 197.479 23.324C197.479 24.2307 197.303 25.0093 196.951 25.66C196.609 26.3107 196.135 26.812 195.527 27.164C194.929 27.516 194.247 27.692 193.479 27.692ZM193.479 26.524C193.948 26.524 194.38 26.412 194.775 26.188C195.169 25.9533 195.484 25.6013 195.719 25.132C195.953 24.652 196.071 24.0493 196.071 23.324C196.071 22.588 195.953 21.9853 195.719 21.516C195.484 21.036 195.169 20.684 194.775 20.46C194.38 20.2253 193.948 20.108 193.479 20.108C193.009 20.108 192.577 20.2253 192.183 20.46C191.799 20.684 191.484 21.036 191.239 21.516C191.004 21.9853 190.887 22.588 190.887 23.324C190.887 24.06 191.004 24.6627 191.239 25.132C191.473 25.6013 191.788 25.9533 192.183 26.188C192.577 26.412 193.009 26.524 193.479 26.524ZM202.691 27.692C201.987 27.692 201.379 27.5693 200.867 27.324C200.365 27.068 199.981 26.6893 199.715 26.188C199.459 25.676 199.331 25.0307 199.331 24.252V19.148H200.691V24.236C200.691 25.0253 200.872 25.6013 201.235 25.964C201.608 26.3267 202.093 26.508 202.691 26.508C203.277 26.508 203.752 26.3267 204.115 25.964C204.488 25.6013 204.675 25.0253 204.675 24.236V19.148H206.035V24.252C206.035 25.0307 205.901 25.676 205.635 26.188C205.368 26.6893 204.984 27.068 204.483 27.324C203.992 27.5693 203.395 27.692 202.691 27.692ZM211.328 27.66C210.614 27.66 210.07 27.4733 209.696 27.1C209.334 26.716 209.152 26.1293 209.152 25.34V17.26L210.512 16.396V25.164C210.512 25.612 210.608 25.9427 210.8 26.156C210.992 26.3693 211.27 26.476 211.632 26.476C211.75 26.476 211.872 26.4653 212 26.444C212.139 26.4227 212.288 26.3747 212.448 26.3V27.452C212.267 27.5267 212.086 27.58 211.904 27.612C211.723 27.644 211.531 27.66 211.328 27.66ZM207.52 20.22V19.132H212.48V20.22H207.52ZM218.571 27.5V16.22H222.731C223.509 16.22 224.187 16.3533 224.763 16.62C225.339 16.876 225.787 17.2493 226.107 17.74C226.427 18.22 226.587 18.8013 226.587 19.484C226.587 20.156 226.427 20.7373 226.107 21.228C225.787 21.7187 225.339 22.0973 224.763 22.364C224.187 22.62 223.509 22.748 222.731 22.748H219.659V21.548H222.555C223.365 21.548 224 21.3827 224.459 21.052C224.917 20.7107 225.147 20.188 225.147 19.484C225.147 18.7693 224.917 18.2467 224.459 17.916C224 17.5747 223.365 17.404 222.555 17.404H219.403L219.995 16.812V27.5H218.571ZM233.337 27.772C232.324 27.772 231.428 27.532 230.649 27.052C229.871 26.5613 229.263 25.8733 228.825 24.988C228.399 24.1027 228.185 23.0627 228.185 21.868C228.185 20.9613 228.308 20.1507 228.553 19.436C228.799 18.7107 229.145 18.0867 229.593 17.564C230.052 17.0413 230.596 16.6467 231.225 16.38C231.855 16.1027 232.553 15.964 233.321 15.964C234.121 15.964 234.825 16.0813 235.433 16.316C236.041 16.54 236.553 16.8867 236.969 17.356C237.385 17.8253 237.711 18.4067 237.945 19.1L236.601 19.564C236.345 18.7853 235.94 18.204 235.385 17.82C234.841 17.4253 234.153 17.228 233.321 17.228C232.575 17.228 231.924 17.4147 231.369 17.788C230.825 18.1613 230.404 18.6947 230.105 19.388C229.817 20.0813 229.673 20.908 229.673 21.868C229.673 22.8173 229.817 23.6387 230.105 24.332C230.404 25.0253 230.825 25.564 231.369 25.948C231.924 26.3213 232.58 26.508 233.337 26.508C234.169 26.508 234.852 26.3107 235.385 25.916C235.929 25.5213 236.329 24.9347 236.585 24.156L237.961 24.604C237.716 25.2973 237.38 25.8787 236.953 26.348C236.527 26.8173 236.009 27.1747 235.401 27.42C234.804 27.6547 234.116 27.772 233.337 27.772ZM240.086 27.5V16.22H244.246C245.025 16.22 245.702 16.3533 246.278 16.62C246.854 16.876 247.302 17.2493 247.622 17.74C247.942 18.22 248.102 18.8013 248.102 19.484C248.102 20.156 247.942 20.7373 247.622 21.228C247.302 21.7187 246.854 22.0973 246.278 22.364C245.702 22.62 245.025 22.748 244.246 22.748H241.174V21.548H244.07C244.881 21.548 245.516 21.3827 245.974 21.052C246.433 20.7107 246.662 20.188 246.662 19.484C246.662 18.7693 246.433 18.2467 245.974 17.916C245.516 17.5747 244.881 17.404 244.07 17.404H240.918L241.51 16.812V27.5H240.086Z" fill="white"/>
</svg>
