<svg width="116" height="30" viewBox="0 0 116 30" fill="none" xmlns="http://www.w3.org/2000/svg">
<path d="M42.1932 21.2005L44.6386 13.6103C44.6386 13.6103 44.6271 13.5896 44.6213 13.5777C44.1449 12.7883 43.4549 12.1792 42.5426 11.7504C41.6331 11.3187 40.5071 11.1058 39.1704 11.1058H31.7476V27.9598H36.1591V21.6972H39.1704C40.3426 21.6972 41.3473 21.5316 42.1932 21.2034V21.2005ZM36.1591 18.0603V14.7368H39.0549C39.6612 14.7368 40.1405 14.8728 40.4898 15.1419C40.8392 15.4139 41.0153 15.8279 41.0153 16.3838C41.0153 16.9397 40.8392 17.3595 40.4898 17.6375C40.1405 17.9154 39.6612 18.0544 39.0549 18.0544H36.1591V18.0603Z" fill="white"/>
<path d="M82.6218 27.9598V11.1058H90.0446C91.3814 11.1058 92.5074 11.3217 93.4168 11.7504C94.3263 12.1821 95.0192 12.7912 95.4956 13.5777C95.9691 14.3672 96.2087 15.3045 96.2087 16.3867C96.2087 17.4689 95.9719 18.4122 95.4956 19.2075C95.0221 20.0059 94.3292 20.618 93.4168 21.0467C92.5074 21.4784 91.3814 21.6913 90.0446 21.6913H85.8208V18.0573H89.9292C90.5355 18.0573 91.0147 17.9184 91.3641 17.6404C91.7134 17.3625 91.8895 16.9426 91.8895 16.3838C91.8895 15.8249 91.7134 15.411 91.3641 15.1419C91.0147 14.8728 90.5355 14.7368 89.9292 14.7368H86.1701L87.0334 13.8527V27.9568H82.6218V27.9598Z" fill="white"/>
<path d="M111.799 27.9598V11.1058H116V27.9598H111.799Z" fill="white"/>
<path d="M16.5606 30L26.3365 1.91309H20.2504L12.3685 25.5234H10.6767L11.2801 29.9971H16.5606V30ZM14.8082 30L13.7803 28.3471L13.2173 27.3004L9.01079 16.4489C8.63546 15.1863 8.01184 14.2845 7.13704 13.7463C6.26512 13.2082 4.99478 12.9391 3.3289 12.9391H0.747803V17.2827H1.51289C1.97195 17.2827 2.34728 17.3359 2.64176 17.4424C2.93625 17.5488 3.173 17.7233 3.34623 17.9657C3.52234 18.2082 3.67536 18.5423 3.81105 18.971L8.72496 29.9971H14.811L14.8082 30Z" fill="#00F2EA"/>
<path d="M15.8128 28.0869L25.5887 0H19.5026L11.6207 23.6103H9.92886L10.5323 28.084H15.8128V28.0869ZM14.0604 28.0869L13.0325 26.4341L12.4695 25.3873L8.26298 14.5358C7.88766 13.2732 7.26403 12.3714 6.38923 11.8332C5.51732 11.2951 4.24698 11.026 2.5811 11.026H0V15.3696H0.765091C1.22415 15.3696 1.59947 15.4228 1.89396 15.5293C2.18845 15.6357 2.42519 15.8102 2.59842 16.0526C2.77454 16.2951 2.92756 16.6292 3.06325 17.058L7.97716 28.084H14.0632L14.0604 28.0869Z" fill="#FF004F"/>
<path d="M24.9159 1.91309H20.2416L12.4348 25.3046L11.6899 23.3856V23.3915L8.61801 15.4761C8.24845 14.7162 7.75475 14.1337 7.12536 13.7493C6.25344 13.2111 4.9831 12.9421 3.31723 12.9421H0.739014V15.3726H0.756336C1.21539 15.3726 1.59072 15.4258 1.88521 15.5322C2.17969 15.6387 2.41644 15.8131 2.58967 16.0556C2.76578 16.2981 2.9188 16.6322 3.0545 17.0609L7.9684 28.0869H15.807L24.9159 1.91309Z" fill="white"/>
<path d="M64.5049 27.9598V11.1058H71.9277C73.2645 11.1058 74.3904 11.3217 75.2999 11.7504C76.2093 12.1821 76.9022 12.7912 77.3786 13.5777C77.8521 14.3672 78.0917 15.3045 78.0917 16.3867C78.0917 17.4689 77.855 18.4122 77.3786 19.2075C76.9051 20.0059 76.2122 20.618 75.2999 21.0467C74.3904 21.4784 73.2645 21.6913 71.9277 21.6913H67.7038V18.0573H71.8122C72.4185 18.0573 72.8978 17.9184 73.2471 17.6404C73.5965 17.3625 73.7726 16.9426 73.7726 16.3838C73.7726 15.8249 73.5965 15.411 73.2471 15.1419C72.8978 14.8728 72.4185 14.7368 71.8122 14.7368H68.0532L68.9164 13.8527V27.9568H64.5049V27.9598Z" fill="white"/>
<path d="M54.1461 28.3648C52.4484 28.3648 50.9587 27.9923 49.6768 27.2472C48.392 26.502 47.3931 25.4671 46.677 24.1395C45.961 22.8119 45.603 21.2744 45.603 19.5298C45.603 18.2022 45.808 16.9988 46.2209 15.9166C46.6337 14.8373 47.2169 13.9089 47.9705 13.1313C48.724 12.3536 49.6248 11.7563 50.6671 11.3305C51.7093 10.9077 52.8699 10.6948 54.1461 10.6948C55.5608 10.6948 56.7993 10.9077 57.8589 11.3305C58.9156 11.7563 59.7933 12.3802 60.4833 13.2022C61.1762 14.0272 61.6555 15.0295 61.9182 16.2152L57.576 17.531C57.3277 16.6381 56.9062 15.9521 56.3143 15.476C55.7224 15 54.9833 14.7605 54.097 14.7605C53.3203 14.7605 52.6505 14.9527 52.0904 15.34C51.5303 15.7244 51.0972 16.2714 50.7941 16.9781C50.4909 17.6848 50.3379 18.5363 50.3379 19.5298C50.3379 20.5233 50.4909 21.3572 50.7941 22.0697C51.0972 22.7823 51.5332 23.3353 52.102 23.7197C52.6707 24.104 53.3434 24.2962 54.1201 24.2962C54.992 24.2962 55.7224 24.0538 56.3143 23.5689C56.9062 23.0839 57.3248 22.4009 57.576 21.5257L61.872 22.8178C61.6064 24.0006 61.1358 25.0088 60.4602 25.8427C59.7846 26.6765 58.9185 27.3033 57.8705 27.7262C56.8196 28.149 55.5781 28.3619 54.1461 28.3619V28.3648Z" fill="white"/>
<path d="M102.777 27.9597C101.764 27.9597 100.848 27.6847 100.034 27.1347C99.22 26.5848 98.5732 25.816 98.0969 24.8284C97.6205 23.8408 97.3809 22.6936 97.3809 21.3867C97.3809 20.0797 97.6118 18.9295 98.0738 17.9331C98.5357 16.9366 99.1738 16.1619 99.9879 15.6031C100.802 15.0443 101.732 14.7663 102.777 14.7663C103.253 14.7663 103.698 14.8225 104.114 14.9349C104.529 15.0472 104.905 15.201 105.243 15.402C105.58 15.6001 105.872 15.8456 106.117 16.1324V14.5446H110.266V27.6788H106.322V26.3867C106.091 26.7208 105.8 27.0076 105.448 27.2471C105.092 27.4866 104.691 27.667 104.238 27.7852C103.785 27.9035 103.297 27.9656 102.774 27.9656L102.777 27.9597ZM103.975 24.4204C104.466 24.4204 104.89 24.2962 105.243 24.0508C105.595 23.8053 105.866 23.4535 106.051 22.9981C106.236 22.5428 106.328 21.9987 106.328 21.36C106.328 20.7214 106.236 20.1773 106.051 19.722C105.866 19.2666 105.598 18.9177 105.243 18.6693C104.887 18.4239 104.466 18.2997 103.975 18.2997C103.484 18.2997 103.083 18.4239 102.731 18.6693C102.376 18.9177 102.107 19.2666 101.922 19.722C101.738 20.1773 101.645 20.7214 101.645 21.36C101.645 21.9987 101.738 22.5428 101.922 22.9981C102.107 23.4535 102.376 23.8024 102.731 24.0508C103.083 24.2991 103.499 24.4204 103.975 24.4204Z" fill="#00F2EA"/>
<path d="M101.818 27.9598C100.791 27.9598 99.8667 27.6848 99.041 27.1349C98.2153 26.5849 97.5628 25.8161 97.0806 24.8285C96.5985 23.841 96.356 22.6937 96.356 21.3868C96.356 20.0799 96.5898 18.9297 97.0546 17.9332C97.5224 16.9368 98.1662 16.1621 98.9919 15.6032C99.8176 15.0444 100.759 14.7664 101.816 14.7664C102.298 14.7664 102.748 14.8226 103.17 14.935C103.591 15.0473 103.972 15.2011 104.313 15.4022C104.656 15.6003 104.951 15.8457 105.199 16.1325V14.5447H109.4V27.6789H105.407V26.3868C105.173 26.7209 104.879 27.0077 104.521 27.2472C104.163 27.4867 103.756 27.6671 103.294 27.7854C102.832 27.9036 102.341 27.9657 101.813 27.9657L101.818 27.9598ZM103.031 24.4205C103.53 24.4205 103.958 24.2963 104.316 24.0509C104.674 23.8055 104.945 23.4536 105.133 22.9983C105.321 22.5429 105.413 21.9988 105.413 21.3602C105.413 20.7215 105.321 20.1774 105.133 19.7221C104.945 19.2667 104.674 18.9178 104.316 18.6695C103.958 18.424 103.53 18.2999 103.031 18.2999C102.532 18.2999 102.127 18.424 101.769 18.6695C101.411 18.9178 101.14 19.2667 100.952 19.7221C100.765 20.1774 100.672 20.7215 100.672 21.3602C100.672 21.9988 100.765 22.5429 100.952 22.9983C101.14 23.4536 101.411 23.8025 101.769 24.0509C102.127 24.2993 102.546 24.4205 103.031 24.4205Z" fill="#FF004F"/>
<path d="M106.12 14.5475V16.1354C105.875 15.8485 105.583 15.6061 105.245 15.405C105.231 15.3961 105.217 15.3932 105.205 15.3843V16.1324C104.957 15.8456 104.659 15.6031 104.319 15.4021C103.975 15.204 103.594 15.0472 103.175 14.9349C102.898 14.861 102.61 14.8137 102.306 14.79C101.452 14.8639 100.681 15.133 99.9909 15.6031C99.1767 16.162 98.5386 16.9367 98.0767 17.9331C97.6148 18.9296 97.3838 20.0798 97.3838 21.3867C97.3838 22.6936 97.6205 23.8409 98.0998 24.8284C98.5762 25.816 99.2229 26.5848 100.037 27.1348C100.727 27.6019 101.489 27.8681 102.324 27.939C102.664 27.9124 102.993 27.8621 103.302 27.7823C103.761 27.664 104.169 27.4837 104.527 27.2442C104.885 27.0047 105.179 26.7179 105.413 26.3837V27.2678C105.413 27.2678 105.439 27.253 105.453 27.2442C105.806 27.0047 106.1 26.7179 106.328 26.3837V27.6759H109.406V14.5416H106.123L106.12 14.5475ZM106.051 23.01C105.866 23.4653 105.598 23.8142 105.243 24.0626C104.887 24.311 104.466 24.4322 103.975 24.4322C103.813 24.4322 103.66 24.4115 103.513 24.3849C103.36 24.4145 103.201 24.4322 103.031 24.4322C102.549 24.4322 102.127 24.308 101.769 24.0626C101.411 23.8172 101.14 23.4653 100.952 23.01C100.765 22.5546 100.672 22.0106 100.672 21.3719C100.672 20.7332 100.765 20.1892 100.952 19.7338C101.14 19.2785 101.411 18.9296 101.769 18.6812C102.127 18.4358 102.546 18.3116 103.031 18.3116C103.201 18.3116 103.36 18.3323 103.513 18.3589C103.66 18.3293 103.813 18.3116 103.975 18.3116C104.466 18.3116 104.89 18.4358 105.243 18.6812C105.595 18.9296 105.866 19.2785 106.051 19.7338C106.236 20.1892 106.328 20.7332 106.328 21.3719C106.328 22.0106 106.236 22.5546 106.051 23.01Z" fill="white"/>
</svg>
