<svg width="160" height="24" viewBox="0 0 160 24" fill="none" xmlns="http://www.w3.org/2000/svg">
<g clip-path="url(#clip0_1_991)">
<g clip-path="url(#clip1_1_991)">
<g clip-path="url(#clip2_1_991)">
<path d="M9.09843 2.9607H12.6044V3.60311H11.226V7.21518H10.4676V3.60311H9.09521V2.96045H9.09818L9.09843 2.9607ZM12.4547 4.13446H13.1028V4.72913H13.1149C13.1365 4.64502 13.176 4.56389 13.2342 4.48572C13.3585 4.31818 13.5267 4.1883 13.7203 4.11046C13.8186 4.07151 13.9232 4.05112 14.029 4.05035C14.1081 4.05035 14.1665 4.05332 14.1972 4.05654C14.2276 4.0595 14.258 4.06544 14.2917 4.06841V4.72295C14.242 4.71426 14.1921 4.70725 14.142 4.70192C14.0923 4.69603 14.0422 4.69306 13.9921 4.69301C13.8758 4.69301 13.766 4.71701 13.6621 4.76228C13.5582 4.80705 13.4694 4.87607 13.3932 4.96339C13.3119 5.06102 13.2497 5.17304 13.2097 5.29362C13.1639 5.42572 13.1424 5.57562 13.1424 5.74705V7.21221H12.4518V4.13446H12.4547ZM17.4676 7.21543H16.7891V6.78599H16.7767C16.6911 6.94233 16.566 7.06552 16.3978 7.15853C16.2296 7.25154 16.0584 7.29953 15.8842 7.29953C15.4716 7.29953 15.1718 7.20058 14.9888 6.99923C14.8052 6.79812 14.7134 6.49484 14.7134 6.08941V4.1347H15.4043V6.02336C15.4043 6.29373 15.4563 6.48594 15.5634 6.59701C15.6673 6.70807 15.8169 6.76522 16.0064 6.76522C16.1531 6.76522 16.2723 6.74419 16.3701 6.69892C16.468 6.6539 16.5474 6.59701 16.6056 6.52181C16.6667 6.44982 16.7094 6.35978 16.7372 6.25762C16.7644 6.15545 16.7767 6.04439 16.7767 5.92441V4.13767H17.4676V7.21543ZM18.6444 6.22769C18.6659 6.42558 18.7421 6.56411 18.8737 6.64499C19.008 6.72316 19.167 6.76522 19.3536 6.76522C19.4179 6.76522 19.4911 6.75903 19.5737 6.75013C19.6561 6.74097 19.7355 6.71995 19.806 6.69323C19.8792 6.66602 19.9371 6.62397 19.9861 6.57004C20.0321 6.51562 20.0534 6.44685 20.0504 6.35978C20.05 6.31937 20.0411 6.27949 20.0243 6.24275C20.0074 6.20601 19.983 6.17323 19.9527 6.14655C19.8913 6.08965 19.8152 6.0476 19.7202 6.01149C19.6143 5.97482 19.5061 5.94573 19.3961 5.92441C19.2739 5.90042 19.1517 5.87321 19.0265 5.84624C18.9004 5.81896 18.7759 5.78486 18.6535 5.74408C18.5387 5.70729 18.4304 5.65261 18.3327 5.58205C18.2374 5.51558 18.1597 5.42695 18.1063 5.3238C18.0484 5.21867 18.0207 5.08955 18.0207 4.93346C18.0207 4.76525 18.0635 4.62721 18.1462 4.51293C18.2295 4.3996 18.3371 4.3063 18.4611 4.23984C18.5943 4.1694 18.7375 4.11976 18.8858 4.09265C19.0416 4.06569 19.1915 4.0506 19.332 4.0506C19.4941 4.0506 19.6499 4.06866 19.7968 4.1018C19.9391 4.13226 20.0747 4.18816 20.1971 4.2668C20.3163 4.342 20.414 4.44095 20.4937 4.56117C20.5731 4.68114 20.6221 4.82832 20.6433 4.9995H19.922C19.8884 4.83748 19.8149 4.72641 19.6959 4.67224C19.5767 4.61534 19.4392 4.58813 19.2863 4.58813C19.2373 4.58813 19.1792 4.5911 19.1121 4.60025C19.0475 4.60884 18.984 4.62393 18.9224 4.64527C18.8661 4.666 18.8151 4.69875 18.7727 4.74125C18.7522 4.76343 18.7362 4.78944 18.7257 4.81779C18.7153 4.84614 18.7105 4.87629 18.7116 4.90649C18.7116 4.9906 18.7421 5.05665 18.8002 5.1076C18.8583 5.15856 18.9348 5.20061 19.0295 5.23673C19.1243 5.26988 19.2314 5.29981 19.3536 5.3238C19.4758 5.3478 19.6009 5.37476 19.7296 5.40197C19.8547 5.42893 19.9769 5.46505 20.0994 5.50389C20.2216 5.54297 20.3284 5.59714 20.4234 5.66616C20.5182 5.73518 20.5946 5.81928 20.6525 5.92144C20.7106 6.02336 20.7413 6.15249 20.7413 6.30264C20.7413 6.48569 20.6985 6.63906 20.6127 6.76818C20.5273 6.89434 20.4172 6.99923 20.2827 7.07739C20.1418 7.15854 19.9892 7.21729 19.8302 7.25154C19.6686 7.28711 19.5035 7.30519 19.338 7.30547C19.1526 7.30755 18.9677 7.28535 18.7881 7.23942C18.6199 7.1944 18.4732 7.12835 18.351 7.04153C18.2302 6.95377 18.1309 6.83976 18.0606 6.70807C17.9903 6.57598 17.9535 6.41667 17.9475 6.23362H18.6444V6.22769ZM20.9246 4.13495H21.4473V3.2098H22.1382V4.13495H22.7616V4.64206H22.1384V6.2878C22.1384 6.35953 22.1414 6.41989 22.1476 6.47382C22.1535 6.52502 22.1689 6.57004 22.1904 6.60591C22.2138 6.6436 22.2493 6.67221 22.2911 6.68705C22.3371 6.70511 22.395 6.71426 22.4746 6.71426C22.5233 6.71426 22.5723 6.71426 22.6213 6.71104C22.6703 6.70807 22.719 6.70214 22.768 6.69002V7.21543C22.6915 7.22458 22.6151 7.23052 22.5449 7.23942C22.4708 7.24803 22.3963 7.25208 22.3217 7.25154C22.1384 7.25154 21.9917 7.23348 21.8814 7.20058C21.7716 7.16744 21.6828 7.11648 21.6217 7.05043C21.5574 6.98438 21.5178 6.90325 21.4933 6.80405C21.4695 6.6925 21.4562 6.57895 21.4537 6.46491V4.64775H20.931V4.13421H20.9248L20.9246 4.13495ZM23.2506 4.13495H23.9049V4.55201H23.9173C24.0147 4.37193 24.1493 4.24577 24.3234 4.16785C24.5014 4.08871 24.6944 4.04872 24.8892 4.0506C25.1365 4.0506 25.3505 4.09265 25.5341 4.17973C25.7174 4.26383 25.8702 4.38108 25.9924 4.53099C26.1146 4.68114 26.2034 4.85529 26.2645 5.05368C26.3268 5.26005 26.3577 5.4746 26.3563 5.69015C26.3563 5.8972 26.3288 6.09831 26.2737 6.29076C26.223 6.4764 26.1391 6.65131 26.0261 6.80702C25.915 6.95713 25.7706 7.07947 25.6043 7.16447C25.4331 7.25451 25.2345 7.29953 25.0022 7.29953C24.9007 7.29942 24.7994 7.29031 24.6994 7.27232C24.5998 7.25436 24.5024 7.22523 24.4093 7.18549C24.3167 7.14688 24.2302 7.09523 24.1523 7.03213C24.0753 6.97077 24.0083 6.89793 23.9536 6.81617H23.9412V8.35357H23.2506V4.13446V4.13495ZM25.6654 5.67803C25.6655 5.54111 25.6471 5.4048 25.6105 5.27284C25.5766 5.14782 25.5207 5.02987 25.4452 4.92455C25.3737 4.82436 25.2809 4.74123 25.1734 4.68114C25.058 4.61877 24.9286 4.58677 24.7974 4.58813C24.507 4.58813 24.2868 4.68708 24.1401 4.88547C23.9934 5.08361 23.92 5.34804 23.92 5.67803C23.92 5.83412 23.9385 5.97834 23.9781 6.11043C24.0177 6.24253 24.0728 6.35681 24.1523 6.45279C24.2289 6.54902 24.3205 6.62397 24.4276 6.67789C24.5344 6.73504 24.6599 6.762 24.8004 6.762C24.9594 6.762 25.0908 6.7291 25.2008 6.66602C25.3074 6.60469 25.3992 6.52066 25.4697 6.41989C25.54 6.31773 25.5922 6.20344 25.6226 6.07456C25.6507 5.94425 25.6651 5.81135 25.6654 5.67803ZM26.8849 2.9607H27.5758V3.60336H26.8849V2.9607ZM26.8849 4.1347H27.5758V7.21543H26.8849V4.1347ZM28.1933 2.9607H28.8842V7.21543H28.1933V2.9607ZM31.0024 7.29953C30.7515 7.29953 30.5284 7.25748 30.333 7.17659C30.1456 7.09975 29.9761 6.98524 29.8348 6.84017C29.6974 6.69217 29.5922 6.51732 29.5258 6.32663C29.4531 6.11615 29.417 5.89477 29.419 5.6721C29.419 5.43784 29.4556 5.22189 29.5258 5.0235C29.5923 4.83291 29.6975 4.65814 29.8348 4.51021C29.9691 4.36599 30.1373 4.25493 30.333 4.17379C30.5284 4.09265 30.7515 4.0506 31.0024 4.0506C31.253 4.0506 31.4761 4.09265 31.6717 4.17379C31.8674 4.25493 32.0324 4.36921 32.1699 4.51021C32.3073 4.65809 32.4124 4.83288 32.4787 5.0235C32.5489 5.22164 32.5855 5.43784 32.5855 5.6721C32.5855 5.90957 32.5489 6.12849 32.4787 6.32663C32.4124 6.51735 32.3073 6.69222 32.1699 6.84017C32.0354 6.98438 31.8674 7.09545 31.6717 7.17659C31.4761 7.25748 31.253 7.29953 31.0024 7.29953ZM31.0024 6.762C31.1552 6.762 31.2896 6.7291 31.4026 6.66602C31.5128 6.60469 31.6079 6.51949 31.6809 6.41667C31.7541 6.31476 31.8061 6.19751 31.8429 6.06838C31.8766 5.93925 31.8949 5.80716 31.8949 5.6721C31.8949 5.54 31.8766 5.41088 31.8429 5.27878C31.8114 5.15348 31.7564 5.0353 31.6809 4.93049C31.6077 4.82865 31.5126 4.74453 31.4026 4.68436C31.2896 4.62128 31.1552 4.58813 31.0024 4.58813C30.8495 4.58813 30.7149 4.62128 30.6019 4.68436C30.4926 4.74545 30.3977 4.82941 30.3238 4.93049C30.2494 5.03592 30.1945 5.1539 30.1618 5.27878C30.128 5.40717 30.1104 5.53932 30.1096 5.6721C30.1096 5.80716 30.1282 5.93925 30.1618 6.06838C30.1955 6.19751 30.2504 6.31476 30.3238 6.41667C30.3971 6.51884 30.4888 6.60294 30.6019 6.66602C30.7149 6.73207 30.8495 6.762 31.0024 6.762ZM32.7874 4.13495H33.3101V3.2098H34.001V4.13495H34.6243V4.64206H34.001V6.2878C34.001 6.35953 34.0039 6.41989 34.0099 6.47382C34.016 6.52502 34.0314 6.57004 34.0529 6.60591C34.0762 6.64364 34.1118 6.67226 34.1536 6.68705C34.1996 6.70511 34.2575 6.71426 34.3371 6.71426C34.3859 6.71426 34.4348 6.71426 34.4838 6.71104C34.5328 6.70807 34.5815 6.70214 34.6305 6.69002V7.21543C34.5541 7.22458 34.4776 7.23052 34.4074 7.23942C34.3333 7.24803 34.2588 7.25207 34.1843 7.25154C34.001 7.25154 33.854 7.23348 33.7439 7.20058C33.6341 7.16744 33.5453 7.11648 33.4842 7.05043C33.4201 6.98438 33.3803 6.90325 33.3558 6.80405C33.3321 6.69249 33.3188 6.57895 33.3162 6.46491V4.64775H32.7936V4.13421H32.7874V4.13495Z" fill="white"/>
<path d="M8.29252 2.96075H5.12596L4.14787 0L3.16631 2.96099L0 2.95778L2.56446 4.78929L1.5834 7.74682L4.14787 5.91828L6.70936 7.74682L5.73127 4.78929L8.29252 2.96075Z" fill="#04DA8D"/>
<path d="M5.95077 5.45918L5.73062 4.78955L4.14746 5.91854L5.95077 5.45918Z" fill="#126849"/>
</g>
</g>
</g>
<path d="M10.8117 12.2335H0V23.0452H10.8117V12.2335Z" fill="#00B67A"/>
<path d="M5.4064 19.5201L7.05068 19.1034L7.73767 21.2207L5.4064 19.5201ZM9.19049 16.7834H6.29611L5.4064 14.058L4.51669 16.7834H1.62231L3.96485 18.4728L3.07513 21.1982L5.41767 19.5089L6.85922 18.4728L9.19049 16.7834Z" fill="white"/>
<path d="M22.5395 12.2336H11.7278V23.0453H22.5395V12.2336Z" fill="#00B67A"/>
<path d="M17.1339 19.5203L18.7782 19.1036L19.4652 21.2208L17.1339 19.5203ZM20.918 16.7836H18.0237L17.1339 14.0581L16.2442 16.7836H13.3499L15.6924 18.4729L14.8027 21.1983L17.1452 19.509L18.5868 18.4729L20.918 16.7836Z" fill="white"/>
<path d="M34.2677 12.2336H23.4561V23.0453H34.2677V12.2336Z" fill="#00B67A"/>
<path d="M28.8625 19.5203L30.5067 19.1036L31.1937 21.2208L28.8625 19.5203ZM32.6465 16.7836H29.7522L28.8625 14.0581L27.9727 16.7836H25.0784L27.4209 18.4729L26.5312 21.1983L28.8737 19.509L30.3153 18.4729L32.6465 16.7836Z" fill="white"/>
<path d="M45.9955 12.2336H35.1838V23.0453H45.9955V12.2336Z" fill="#00B67A"/>
<path d="M40.59 19.5203L42.2343 19.1036L42.9213 21.2208L40.59 19.5203ZM44.3741 16.7836H41.4797L40.59 14.0581L39.7003 16.7836H36.8059L39.1484 18.4729L38.2587 21.1983L40.6013 19.509L42.0428 18.4729L44.3741 16.7836Z" fill="white"/>
<path d="M57.7238 12.2336H46.9121V23.0453H57.7238V12.2336Z" fill="#DCDCE5"/>
<path d="M52.3407 12.2336H46.9121V23.0453H52.3407V12.2336Z" fill="#00B67A"/>
<path d="M52.3185 19.5203L53.9628 19.1036L54.6498 21.2208L52.3185 19.5203ZM56.1026 16.7836H53.2082L52.3185 14.0581L51.4288 16.7836H48.5344L50.877 18.4729L49.9872 21.1983L52.3298 19.509L53.7713 18.4729L56.1026 16.7836Z" fill="white"/>
<path d="M68.2935 16.7066L67.8581 16.7406C67.8192 16.5687 67.7641 16.4439 67.6927 16.366C67.5743 16.2412 67.4284 16.1787 67.2549 16.1787C67.1154 16.1787 66.993 16.2176 66.8876 16.2955C66.7498 16.396 66.6411 16.5428 66.5616 16.7357C66.4822 16.9287 66.4408 17.2036 66.4376 17.5603C66.543 17.3998 66.6719 17.2806 66.8243 17.2028C66.9768 17.1249 67.1365 17.086 67.3035 17.086C67.5954 17.086 67.8435 17.1938 68.0478 17.4095C68.2538 17.6236 68.3568 17.9009 68.3568 18.2414C68.3568 18.4652 68.3081 18.6736 68.2108 18.8665C68.1151 19.0579 67.983 19.2046 67.8143 19.3068C67.6457 19.4089 67.4543 19.46 67.2403 19.46C66.8754 19.46 66.5779 19.3262 66.3476 19.0587C66.1173 18.7895 66.0022 18.3468 66.0022 17.7306C66.0022 17.0414 66.1295 16.5403 66.3841 16.2274C66.6062 15.9549 66.9054 15.8187 67.2816 15.8187C67.5622 15.8187 67.7916 15.8974 67.97 16.0547C68.15 16.212 68.2578 16.4293 68.2935 16.7066ZM66.5057 18.2438C66.5057 18.3946 66.5373 18.539 66.6006 18.6768C66.6654 18.8146 66.7554 18.92 66.8706 18.993C66.9857 19.0644 67.1065 19.1 67.233 19.1C67.4179 19.1 67.5768 19.0254 67.7097 18.8763C67.8427 18.7271 67.9092 18.5244 67.9092 18.2682C67.9092 18.0217 67.8435 17.8279 67.7122 17.6868C67.5808 17.5441 67.4154 17.4728 67.216 17.4728C67.0181 17.4728 66.8503 17.5441 66.7125 17.6868C66.5746 17.8279 66.5057 18.0136 66.5057 18.2438Z" fill="white"/>
<path d="M64.7217 18.7495H65.2471V19.2975H64.7217V18.7495Z" fill="white"/>
<path d="M63.1178 18.1624V16.5309L61.9639 18.1624H63.1178ZM63.1253 19.4369V18.5571H61.5466V18.1146L63.1957 15.827H63.5778V18.1624H64.1083V18.5571H63.5778V19.4369H63.1253Z" fill="white"/>
<path d="M102.417 11.0975C102.417 11.3826 102.26 18.117 94.1912 21.9189C86.1249 18.1142 85.9678 11.3826 85.9678 11.0919V4.40259C87.6736 4.14574 91.1735 3.37238 94.1939 1.11157C97.2143 3.37238 100.711 4.14574 102.42 4.40259V11.0975H102.417Z" fill="#10DF9C"/>
<path d="M95.6346 16.7578L99.5167 6.11218H97.1008L93.9711 15.0614H93.299L93.5397 16.7578H95.6363H95.6346ZM94.9391 16.7578L94.5311 16.1319L94.3071 15.7348L92.6369 11.6213C92.4881 11.1425 92.239 10.8009 91.8929 10.5982C91.5468 10.394 91.0419 10.2926 90.3798 10.2926H89.355V11.9383H89.6593C89.8415 11.9383 89.9903 11.958 90.1073 11.9988C90.2244 12.0397 90.318 12.105 90.3882 12.1966C90.4584 12.2881 90.5186 12.4156 90.5721 12.5773L92.5232 16.7562H94.9391V16.7578Z" fill="white"/>
<path d="M108.658 21.925C108.305 21.925 108.001 21.869 107.742 21.757C107.483 21.645 107.279 21.4737 107.133 21.2431C106.988 21.0125 106.907 20.716 106.887 20.3503L107.91 20.1461C107.92 20.3635 107.959 20.5447 108.03 20.6863C108.101 20.828 108.198 20.9334 108.318 21.0026C108.441 21.0718 108.58 21.108 108.739 21.108C108.884 21.108 109.011 21.085 109.111 21.0355C109.214 20.9861 109.295 20.9202 109.357 20.8313C109.418 20.7423 109.454 20.6402 109.467 20.5249C109.483 20.3734 109.454 20.2449 109.38 20.1493C109.305 20.0505 109.166 19.9682 108.965 19.9023L108.263 19.6717C107.962 19.5761 107.729 19.418 107.56 19.2006C107.392 18.9831 107.324 18.7196 107.353 18.4132C107.379 18.1464 107.467 17.9125 107.622 17.7115C107.774 17.5105 107.975 17.3557 108.227 17.2437C108.48 17.1317 108.765 17.0757 109.088 17.0757C109.412 17.0757 109.681 17.1251 109.91 17.2272C110.14 17.3294 110.318 17.471 110.444 17.6522C110.571 17.8367 110.642 18.0574 110.655 18.3144L109.684 18.4527C109.655 18.2485 109.583 18.0969 109.467 18.0014C109.354 17.9059 109.205 17.8565 109.02 17.8565C108.852 17.8565 108.713 17.8993 108.603 17.9816C108.493 18.064 108.428 18.1793 108.409 18.3276C108.396 18.4461 108.425 18.5483 108.496 18.6306C108.567 18.713 108.677 18.7855 108.826 18.8382L109.613 19.0951C109.936 19.2039 110.176 19.3686 110.338 19.5893C110.499 19.81 110.561 20.09 110.522 20.4327C110.496 20.7292 110.406 20.9894 110.244 21.2134C110.085 21.4375 109.872 21.6088 109.606 21.7339C109.341 21.8591 109.023 21.9217 108.661 21.9217L108.658 21.925Z" fill="white"/>
<path d="M112.629 21.925C112.277 21.925 111.972 21.869 111.713 21.757C111.454 21.645 111.251 21.4737 111.105 21.2431C110.959 21.0125 110.878 20.716 110.859 20.3503L111.882 20.1461C111.891 20.3635 111.93 20.5447 112.001 20.6863C112.073 20.828 112.17 20.9334 112.29 21.0026C112.413 21.0718 112.552 21.108 112.71 21.108C112.856 21.108 112.982 21.085 113.083 21.0355C113.186 20.9861 113.267 20.9202 113.329 20.8313C113.39 20.7423 113.426 20.6402 113.439 20.5249C113.455 20.3734 113.426 20.2449 113.351 20.1493C113.277 20.0505 113.138 19.9682 112.937 19.9023L112.235 19.6717C111.934 19.5761 111.7 19.418 111.532 19.2006C111.364 18.9831 111.296 18.7196 111.325 18.4132C111.351 18.1464 111.438 17.9125 111.594 17.7115C111.746 17.5105 111.946 17.3557 112.199 17.2437C112.451 17.1317 112.736 17.0757 113.06 17.0757C113.384 17.0757 113.652 17.1251 113.882 17.2272C114.112 17.3294 114.29 17.471 114.416 17.6522C114.542 17.8367 114.614 18.0574 114.627 18.3144L113.655 18.4527C113.626 18.2485 113.555 18.0969 113.439 18.0014C113.325 17.9059 113.176 17.8565 112.992 17.8565C112.824 17.8565 112.684 17.8993 112.574 17.9816C112.464 18.064 112.4 18.1793 112.38 18.3276C112.367 18.4461 112.396 18.5483 112.468 18.6306C112.539 18.713 112.649 18.7855 112.798 18.8382L113.584 19.0951C113.908 19.2039 114.147 19.3686 114.309 19.5893C114.471 19.81 114.533 20.09 114.494 20.4327C114.468 20.7292 114.377 20.9894 114.215 21.2134C114.057 21.4375 113.843 21.6088 113.578 21.7339C113.312 21.8591 112.995 21.9217 112.633 21.9217L112.629 21.925Z" fill="white"/>
<path d="M114.856 21.8131L115.332 17.1943H116.335L115.892 21.5396L115.28 20.8906H117.798L117.701 21.8131H114.856Z" fill="white"/>
<path d="M119.614 21.8131L120.09 17.1943H123.019L122.929 18.0673H120.546L121.068 17.4777L120.65 21.5396L120.252 20.9433H122.647L122.557 21.8164H119.614V21.8131ZM120.491 19.7837L120.576 18.9107H122.424L122.34 19.7837H120.491Z" fill="white"/>
<path d="M123.123 21.8131L123.599 17.1943H125.279L126.156 21.0916L126.554 17.1943H127.512L127.036 21.8131H125.356L124.489 17.9257L124.084 21.8131H123.126H123.123Z" fill="white"/>
<path d="M129.904 21.925C129.448 21.925 129.059 21.8229 128.736 21.6219C128.412 21.421 128.172 21.1377 128.017 20.772C127.862 20.4063 127.81 19.9846 127.855 19.5036C127.894 19.1347 127.985 18.8019 128.127 18.5054C128.269 18.209 128.451 17.9553 128.677 17.7412C128.904 17.527 129.16 17.3656 129.451 17.2503C129.742 17.135 130.056 17.079 130.393 17.079C130.765 17.079 131.089 17.135 131.354 17.2437C131.623 17.3524 131.836 17.5171 131.998 17.7346C132.16 17.952 132.267 18.2188 132.319 18.5351L131.309 18.8382C131.257 18.5647 131.147 18.3572 130.975 18.2155C130.804 18.0706 130.577 18.0014 130.299 18.0014C130.046 18.0014 129.823 18.0607 129.632 18.1826C129.441 18.3045 129.286 18.4758 129.163 18.6998C129.04 18.9238 128.962 19.1907 128.927 19.5036C128.897 19.81 128.92 20.0802 128.994 20.3042C129.069 20.5282 129.192 20.7028 129.36 20.8247C129.529 20.9466 129.739 21.0059 129.988 21.0059C130.273 21.0059 130.513 20.9334 130.713 20.7885C130.914 20.6435 131.066 20.436 131.173 20.1691L132.112 20.4656C131.998 20.7819 131.84 21.0487 131.632 21.2694C131.425 21.4902 131.176 21.6549 130.888 21.7636C130.6 21.8723 130.273 21.9283 129.904 21.9283V21.925Z" fill="white"/>
<path d="M132.536 21.8131L133.011 17.1943H134.963C135.31 17.1943 135.601 17.247 135.834 17.3558C136.067 17.4645 136.235 17.616 136.339 17.8104C136.442 18.008 136.481 18.242 136.452 18.5187C136.426 18.7888 136.339 19.0227 136.19 19.2204C136.041 19.418 135.844 19.5696 135.591 19.675C135.339 19.7837 135.044 19.8364 134.701 19.8364H134.199L134.238 19.4378H133.426L133.471 19.0194H134.746C134.96 19.0194 135.132 18.9766 135.258 18.8942C135.384 18.8119 135.455 18.6867 135.468 18.522C135.484 18.3507 135.439 18.2255 135.332 18.1398C135.225 18.0542 135.064 18.0113 134.85 18.0113H133.704L133.963 17.7807L133.546 21.8164H132.542L132.536 21.8131ZM135.196 21.8131L133.542 19.3357H134.662L136.426 21.8131H135.196Z" fill="white"/>
<path d="M137.912 19.8101L136.74 17.1943H137.841L138.744 19.4543H138.498L139.851 17.1943H140.945L139.252 19.8101H137.912ZM137.867 21.8131L138.1 19.5729H139.097L138.864 21.8131H137.867Z" fill="white"/>
<path d="M140.887 21.8131L141.363 17.1943H143.314C143.661 17.1943 143.952 17.2503 144.185 17.3624C144.418 17.4744 144.583 17.6325 144.687 17.8367C144.79 18.041 144.829 18.2881 144.803 18.5714C144.774 18.8514 144.683 19.0952 144.535 19.3027C144.386 19.5103 144.185 19.6684 143.933 19.7804C143.68 19.8924 143.382 19.9484 143.039 19.9484H141.822L141.906 19.1216H143.085C143.298 19.1216 143.47 19.0754 143.596 18.9832C143.722 18.8909 143.797 18.7526 143.819 18.5714C143.835 18.3836 143.79 18.2452 143.68 18.1563C143.57 18.0673 143.408 18.0212 143.195 18.0212H142.049L142.314 17.7774L141.897 21.8131H140.893H140.887Z" fill="white"/>
<path d="M145.117 18.1201L145.208 17.1976H148.645L148.555 18.1201H145.117ZM145.946 21.8131L146.402 17.448H147.406L146.949 21.8131H145.946Z" fill="white"/>
<path d="M148.671 21.8131L149.147 17.1943H150.15L149.675 21.8131H148.671Z" fill="white"/>
<path d="M152.63 21.925C152.151 21.925 151.74 21.8229 151.403 21.6219C151.066 21.421 150.817 21.141 150.658 20.7753C150.5 20.4129 150.445 19.9879 150.49 19.5036C150.542 19.0128 150.684 18.5878 150.921 18.2254C151.157 17.863 151.464 17.5797 151.84 17.3788C152.219 17.1778 152.646 17.0757 153.122 17.0757C153.597 17.0757 154.012 17.1745 154.348 17.3788C154.685 17.5797 154.934 17.8597 155.096 18.2254C155.258 18.5911 155.313 19.0128 155.261 19.5036C155.213 19.9879 155.073 20.4129 154.837 20.7753C154.601 21.1377 154.293 21.421 153.915 21.6219C153.536 21.8229 153.106 21.925 152.63 21.925ZM152.72 21.0026C152.986 21.0026 153.225 20.94 153.436 20.8148C153.646 20.6896 153.818 20.515 153.95 20.2943C154.083 20.0703 154.164 19.81 154.196 19.5069C154.232 19.2039 154.206 18.9436 154.119 18.7163C154.031 18.4923 153.895 18.3177 153.711 18.1925C153.523 18.0673 153.3 18.0047 153.038 18.0047C152.775 18.0047 152.533 18.0673 152.325 18.1925C152.118 18.3177 151.947 18.4923 151.814 18.7163C151.681 18.9403 151.597 19.2039 151.562 19.5069C151.532 19.81 151.562 20.0703 151.649 20.2943C151.736 20.5183 151.872 20.6896 152.054 20.8148C152.235 20.94 152.458 21.0026 152.72 21.0026Z" fill="white"/>
<path d="M155.611 21.8131L156.087 17.1943H157.767L158.644 21.0916L159.042 17.1943H160L159.524 21.8131H157.844L156.977 17.9257L156.572 21.8131H155.614H155.611Z" fill="white"/>
<path d="M111.124 15.1024C110.364 15.1024 109.703 14.9805 109.14 14.74C108.577 14.4995 108.14 14.1305 107.826 13.6298C107.512 13.129 107.334 12.4866 107.298 11.7026L109.509 11.2644C109.528 11.7355 109.613 12.1275 109.765 12.4339C109.917 12.7403 110.127 12.9709 110.389 13.1192C110.655 13.2707 110.956 13.3465 111.302 13.3465C111.616 13.3465 111.885 13.2938 112.108 13.1916C112.332 13.0895 112.506 12.9413 112.636 12.7535C112.765 12.5657 112.843 12.3417 112.872 12.088C112.908 11.7586 112.846 11.4851 112.684 11.2743C112.523 11.0635 112.222 10.8856 111.788 10.7439L110.273 10.2497C109.622 10.0422 109.117 9.70288 108.755 9.23178C108.392 8.76068 108.243 8.19405 108.308 7.53188C108.363 6.95536 108.557 6.45132 108.884 6.01646C109.215 5.5816 109.648 5.24557 110.192 5.00508C110.736 4.76459 111.354 4.6427 112.05 4.6427C112.746 4.6427 113.329 4.75141 113.824 4.96884C114.319 5.18627 114.704 5.49265 114.979 5.88798C115.251 6.2833 115.403 6.76099 115.432 7.31774L113.332 7.61424C113.267 7.16949 113.112 6.84665 112.866 6.6358C112.62 6.42826 112.296 6.32284 111.898 6.32284C111.535 6.32284 111.234 6.41179 110.995 6.59298C110.752 6.77087 110.616 7.02125 110.577 7.3441C110.548 7.59777 110.613 7.81849 110.765 8.00297C110.917 8.18746 111.157 8.33571 111.48 8.44772L113.176 9.00117C113.872 9.23837 114.393 9.59416 114.743 10.0719C115.089 10.5495 115.222 11.1557 115.138 11.8904C115.083 12.5328 114.882 13.0928 114.539 13.5771C114.196 14.0581 113.736 14.4336 113.163 14.7038C112.587 14.9739 111.908 15.109 111.118 15.109L111.124 15.1024Z" fill="white"/>
<path d="M115.941 14.8586L116.97 4.87659H123.301L123.107 6.76098H117.96L119.087 5.48605L118.184 14.2656L117.32 12.9775H122.495L122.301 14.8619H115.944L115.941 14.8586ZM117.831 10.4705L118.012 8.58607H122.006L121.825 10.4705H117.831Z" fill="white"/>
<path d="M127.862 15.1024C126.878 15.1024 126.036 14.8849 125.337 14.4468C124.638 14.0119 124.12 13.3992 123.787 12.6118C123.453 11.8245 123.337 10.9086 123.44 9.86759C123.525 9.07035 123.719 8.35218 124.023 7.71306C124.331 7.07395 124.725 6.52379 125.214 6.06258C125.7 5.60136 126.256 5.24886 126.884 5.00178C127.509 4.7547 128.189 4.63281 128.924 4.63281C129.73 4.63281 130.422 4.75141 131.005 4.98861C131.584 5.2258 132.047 5.5783 132.397 6.0461C132.743 6.51391 132.973 7.09043 133.086 7.77236L130.901 8.42465C130.791 7.83825 130.548 7.39021 130.176 7.08054C129.804 6.77087 129.318 6.61603 128.716 6.61603C128.169 6.61603 127.69 6.74781 127.276 7.00807C126.862 7.26832 126.525 7.64388 126.26 8.12816C125.994 8.61243 125.826 9.19224 125.751 9.86759C125.687 10.5331 125.735 11.1096 125.897 11.6004C126.059 12.0913 126.324 12.4636 126.69 12.7271C127.056 12.9874 127.509 13.1192 128.046 13.1192C128.658 13.1192 129.179 12.961 129.613 12.6481C130.043 12.3318 130.377 11.8871 130.607 11.3105L132.639 11.9464C132.397 12.6283 132.054 13.2081 131.604 13.6825C131.154 14.1569 130.62 14.5127 129.998 14.7499C129.377 14.9871 128.668 15.1057 127.868 15.1057L127.862 15.1024Z" fill="white"/>
<path d="M137.504 15.1024C136.669 15.1024 135.97 14.9409 135.41 14.6214C134.85 14.3018 134.439 13.8538 134.18 13.2773C133.921 12.7008 133.834 12.0254 133.915 11.2512L134.556 4.87988H136.727L136.103 11.0107C136.057 11.4456 136.087 11.8212 136.193 12.1374C136.3 12.4537 136.481 12.6975 136.737 12.8655C136.993 13.0335 137.313 13.1191 137.705 13.1191C138.097 13.1191 138.446 13.0335 138.728 12.8655C139.009 12.6975 139.239 12.4537 139.417 12.1374C139.592 11.8212 139.705 11.4456 139.751 11.0107L140.375 4.87988H142.531L141.89 11.2512C141.806 12.0254 141.576 12.7008 141.201 13.2773C140.825 13.8538 140.32 14.3018 139.692 14.6214C139.064 14.9409 138.333 15.1024 137.507 15.1024H137.504Z" fill="white"/>
<path d="M143.084 14.8586L144.114 4.87659H148.328C149.079 4.87659 149.707 4.99189 150.205 5.2225C150.707 5.4531 151.07 5.78254 151.299 6.20752C151.526 6.6325 151.607 7.14313 151.542 7.73612C151.487 8.32252 151.299 8.82656 150.979 9.25153C150.659 9.67651 150.228 10.0059 149.684 10.2366C149.141 10.4672 148.5 10.5825 147.758 10.5825H146.674L146.758 9.71934H145.004L145.101 8.81338H147.856C148.318 8.81338 148.687 8.72443 148.963 8.54324C149.234 8.36534 149.387 8.0952 149.416 7.73612C149.451 7.36714 149.354 7.09042 149.124 6.90922C148.891 6.72474 148.545 6.6325 148.082 6.6325H145.606L146.163 6.13834L145.26 14.8619H143.088L143.084 14.8586ZM148.83 14.8586L145.253 9.5052H147.674L151.487 14.8586H148.83Z" fill="white"/>
<path d="M152.432 14.8586L153.462 4.87659H159.793L159.599 6.76098H154.452L155.579 5.48605L154.675 14.2656L153.811 12.9775H158.987L158.793 14.8619H152.436L152.432 14.8586ZM154.326 10.4705L154.507 8.58607H158.501L158.32 10.4705H154.326Z" fill="white"/>
<defs>
<clipPath id="clip0_1_991">
<rect width="34.6315" height="8.41051" fill="white"/>
</clipPath>
<clipPath id="clip1_1_991">
<rect width="34.6315" height="8.41051" fill="white"/>
</clipPath>
<clipPath id="clip2_1_991">
<rect width="34.6315" height="8.41051" fill="white"/>
</clipPath>
</defs>
</svg>
