<svg width="343" height="56" viewBox="0 0 343 56" fill="none" xmlns="http://www.w3.org/2000/svg">
<path d="M135.443 30.5039C135.155 30.4319 134.855 30.3659 134.543 30.3059C134.267 30.2459 133.949 30.1979 133.589 30.1619C133.241 30.1139 132.875 30.0899 132.491 30.0899C131.603 30.0899 130.967 30.2279 130.583 30.5039C130.199 30.7679 130.007 31.1819 130.007 31.7459C130.019 32.1899 130.181 32.5679 130.493 32.8799C130.805 33.1799 131.195 33.4619 131.663 33.7259C132.131 33.9779 132.641 34.2299 133.193 34.4819C133.757 34.7219 134.273 35.0039 134.741 35.3279C135.209 35.6399 135.599 36.0119 135.911 36.4439C136.235 36.8639 136.397 37.3799 136.397 37.9919C136.397 38.6999 136.241 39.2699 135.929 39.7019C135.629 40.1339 135.245 40.4699 134.777 40.7099C134.309 40.9499 133.793 41.1119 133.229 41.1959C132.677 41.2799 132.149 41.3219 131.645 41.3219C131.165 41.3219 130.727 41.2919 130.331 41.2319C129.935 41.1719 129.593 41.1059 129.305 41.0339C128.969 40.9499 128.663 40.8539 128.387 40.7459L128.747 39.2879C129.023 39.4079 129.317 39.5099 129.629 39.5939C129.905 39.6659 130.211 39.7319 130.547 39.7919C130.895 39.8519 131.261 39.8819 131.645 39.8819C132.113 39.8819 132.539 39.8519 132.923 39.7919C133.319 39.7319 133.661 39.6359 133.949 39.5039C134.237 39.3719 134.459 39.1979 134.615 38.9819C134.783 38.7659 134.867 38.5019 134.867 38.1899C134.855 37.7219 134.699 37.3439 134.399 37.0559C134.111 36.7559 133.721 36.4739 133.229 36.2099C132.749 35.9339 132.227 35.6699 131.663 35.4179C131.111 35.1659 130.601 34.8779 130.133 34.5539C129.665 34.2299 129.269 33.8459 128.945 33.4019C128.633 32.9579 128.477 32.4059 128.477 31.7459C128.477 31.3619 128.543 30.9839 128.675 30.6119C128.807 30.2399 129.029 29.9099 129.341 29.6219C129.665 29.3339 130.079 29.0999 130.583 28.9199C131.099 28.7399 131.735 28.6499 132.491 28.6499C132.923 28.6499 133.331 28.6739 133.715 28.7219C134.111 28.7579 134.453 28.7999 134.741 28.8479C135.077 28.9079 135.395 28.9739 135.695 29.0459L135.443 30.5039ZM143.766 40.0979H143.73C143.622 40.1819 143.466 40.2959 143.262 40.4399C143.058 40.5719 142.824 40.7039 142.56 40.8359C142.296 40.9679 142.002 41.0819 141.678 41.1779C141.366 41.2739 141.048 41.3219 140.724 41.3219C140.28 41.3219 139.902 41.2619 139.59 41.1419C139.278 41.0339 139.026 40.8479 138.834 40.5839C138.642 40.3199 138.504 39.9719 138.42 39.5399C138.336 39.1079 138.294 38.5679 138.294 37.9199V32.0339H139.734V37.7039C139.734 38.0639 139.74 38.3879 139.752 38.6759C139.764 38.9639 139.806 39.2099 139.878 39.4139C139.95 39.6179 140.064 39.7799 140.22 39.8999C140.388 40.0079 140.622 40.0619 140.922 40.0619C141.234 40.0619 141.558 39.9959 141.894 39.8639C142.23 39.7319 142.536 39.5819 142.812 39.4139C143.136 39.2219 143.454 39.0059 143.766 38.7659V32.0339H145.206V39.9179C145.218 40.3499 145.248 40.7399 145.296 41.0879L143.874 41.2319L143.766 40.0979ZM147.804 27.6059L149.244 27.4439V32.8079C149.508 32.6279 149.784 32.4719 150.072 32.3399C150.312 32.2199 150.582 32.1119 150.882 32.0159C151.182 31.9079 151.482 31.8539 151.782 31.8539C152.274 31.8539 152.736 31.9499 153.168 32.1419C153.612 32.3339 153.996 32.6219 154.32 33.0059C154.656 33.3899 154.92 33.8759 155.112 34.4639C155.304 35.0519 155.4 35.7479 155.4 36.5519C155.4 37.4399 155.274 38.1899 155.022 38.8019C154.782 39.4019 154.452 39.8879 154.032 40.2599C153.624 40.6319 153.156 40.9019 152.628 41.0699C152.1 41.2379 151.56 41.3219 151.008 41.3219C150.456 41.3219 149.976 41.2799 149.568 41.1959C149.172 41.1239 148.842 41.0399 148.578 40.9439C148.266 40.8239 148.008 40.6919 147.804 40.5479V27.6059ZM149.244 39.7559C149.4 39.8159 149.568 39.8699 149.748 39.9179C149.928 39.9539 150.12 39.9899 150.324 40.0259C150.54 40.0499 150.768 40.0619 151.008 40.0619C151.56 40.0619 152.022 39.9839 152.394 39.8279C152.766 39.6719 153.06 39.4439 153.276 39.1439C153.492 38.8439 153.642 38.4839 153.726 38.0639C153.822 37.6319 153.87 37.1519 153.87 36.6239C153.87 36.2039 153.822 35.7839 153.726 35.3639C153.642 34.9439 153.504 34.5719 153.312 34.2479C153.12 33.9119 152.88 33.6419 152.592 33.4379C152.316 33.2219 151.992 33.1139 151.62 33.1139C151.368 33.1139 151.104 33.1679 150.828 33.2759C150.552 33.3719 150.294 33.4859 150.054 33.6179C149.778 33.7619 149.508 33.9239 149.244 34.1039V39.7559ZM157.526 33.6719C157.526 33.2639 157.49 32.7719 157.418 32.1959L158.768 32.0159L158.966 33.1499C159.29 32.9099 159.608 32.6999 159.92 32.5199C160.232 32.3399 160.568 32.1839 160.928 32.0519C161.288 31.9199 161.654 31.8539 162.026 31.8539C162.626 31.8539 163.1 31.9619 163.448 32.1779C163.796 32.3819 164.054 32.7359 164.222 33.2399C164.714 32.8919 165.224 32.5739 165.752 32.2859C166.292 31.9979 166.85 31.8539 167.426 31.8539C167.87 31.8539 168.248 31.9139 168.56 32.0339C168.872 32.1419 169.124 32.3279 169.316 32.5919C169.508 32.8559 169.646 33.2039 169.73 33.6359C169.814 34.0679 169.856 34.6079 169.856 35.2559V41.0879H168.416V35.4179C168.416 35.0579 168.41 34.7399 168.398 34.4639C168.386 34.1759 168.344 33.9359 168.272 33.7439C168.2 33.5399 168.08 33.3839 167.912 33.2759C167.756 33.1679 167.528 33.1139 167.228 33.1139C166.952 33.1139 166.688 33.1559 166.436 33.2399C166.196 33.3119 165.944 33.4199 165.68 33.5639C165.416 33.7079 165.008 34.0019 164.456 34.4459V41.0879H163.016V35.4179C163.016 35.0579 163.01 34.7399 162.998 34.4639C162.986 34.1759 162.944 33.9359 162.872 33.7439C162.8 33.5399 162.68 33.3839 162.512 33.2759C162.356 33.1679 162.128 33.1139 161.828 33.1139C161.516 33.1139 161.192 33.1799 160.856 33.3119C160.52 33.4439 160.202 33.5999 159.902 33.7799C159.602 33.9599 159.29 34.1699 158.966 34.4099V41.0879H157.526V33.6719ZM172.397 32.0159L173.837 31.8539V41.0879H172.397V32.0159ZM172.163 29.4419C172.163 29.1659 172.253 28.9379 172.433 28.7579C172.625 28.5659 172.859 28.4699 173.135 28.4699C173.423 28.4699 173.663 28.5659 173.855 28.7579C174.059 28.9379 174.161 29.1659 174.161 29.4419C174.161 29.7179 174.059 29.9519 173.855 30.1439C173.663 30.3239 173.423 30.4139 173.135 30.4139C172.859 30.4139 172.625 30.3239 172.433 30.1439C172.253 29.9519 172.163 29.7179 172.163 29.4419ZM178.528 29.3339V32.0339H181.138V33.2039H178.528V38.0099C178.528 38.4059 178.534 38.7359 178.546 38.9999C178.57 39.2639 178.612 39.4739 178.672 39.6299C178.732 39.7859 178.816 39.8999 178.924 39.9719C179.032 40.0319 179.17 40.0619 179.338 40.0619C179.794 40.0499 180.322 39.8819 180.922 39.5579L181.354 40.6559C180.958 40.9199 180.586 41.0939 180.238 41.1779C179.902 41.2739 179.566 41.3219 179.23 41.3219C178.438 41.3219 177.88 41.0999 177.556 40.6559C177.244 40.1999 177.088 39.4499 177.088 38.4059V33.2039H175.432V32.0339H177.088V29.5139L178.528 29.3339ZM197.532 41.4659C197.112 41.1419 196.686 40.7999 196.254 40.4399C195.834 40.0799 195.408 39.7079 194.976 39.3239C194.412 39.9119 193.752 40.3919 192.996 40.7639C192.252 41.1359 191.394 41.3219 190.422 41.3219C189.894 41.3219 189.408 41.2559 188.964 41.1239C188.52 40.9919 188.136 40.7999 187.812 40.5479C187.488 40.2839 187.23 39.9539 187.038 39.5579C186.858 39.1619 186.768 38.6999 186.768 38.1719C186.768 37.6439 186.87 37.1759 187.074 36.7679C187.29 36.3479 187.554 35.9759 187.866 35.6519C188.178 35.3279 188.508 35.0459 188.856 34.8059C189.204 34.5539 189.522 34.3379 189.81 34.1579C189.594 33.8939 189.366 33.6239 189.126 33.3479C188.886 33.0719 188.664 32.7839 188.46 32.4839C188.268 32.1719 188.106 31.8419 187.974 31.4939C187.854 31.1459 187.794 30.7679 187.794 30.3599C187.794 30.0239 187.854 29.6879 187.974 29.3519C188.106 29.0159 188.304 28.7159 188.568 28.4519C188.844 28.1879 189.198 27.9719 189.63 27.8039C190.074 27.6359 190.614 27.5519 191.25 27.5519C191.898 27.5519 192.432 27.6299 192.852 27.7859C193.284 27.9299 193.626 28.1279 193.878 28.3799C194.13 28.6319 194.304 28.9319 194.4 29.2799C194.508 29.6159 194.562 29.9759 194.562 30.3599C194.562 30.7919 194.472 31.2059 194.292 31.6019C194.112 31.9859 193.878 32.3459 193.59 32.6819C193.314 33.0179 193.008 33.3239 192.672 33.5999C192.336 33.8759 192.012 34.1159 191.7 34.3199C192.276 34.9319 192.816 35.4959 193.32 36.0119C193.836 36.5159 194.334 36.9899 194.814 37.4339C195.138 36.9539 195.42 36.4499 195.66 35.9219C195.9 35.3939 196.104 34.8779 196.272 34.3739L197.46 34.7699C197.292 35.3339 197.07 35.9219 196.794 36.5339C196.53 37.1459 196.194 37.7399 195.786 38.3159C196.23 38.7119 196.656 39.0959 197.064 39.4679C197.484 39.8279 197.904 40.1999 198.324 40.5839L197.532 41.4659ZM190.422 40.0619C191.142 40.0619 191.796 39.9179 192.384 39.6299C192.984 39.3299 193.518 38.9339 193.986 38.4419C193.386 37.9019 192.798 37.3499 192.222 36.7859C191.658 36.2219 191.124 35.6519 190.62 35.0759C190.32 35.2799 190.026 35.4899 189.738 35.7059C189.45 35.9219 189.192 36.1559 188.964 36.4079C188.736 36.6599 188.55 36.9359 188.406 37.2359C188.274 37.5359 188.208 37.8659 188.208 38.2259C188.208 38.4419 188.25 38.6639 188.334 38.8919C188.43 39.1079 188.568 39.3059 188.748 39.4859C188.94 39.6539 189.174 39.7919 189.45 39.8999C189.726 40.0079 190.05 40.0619 190.422 40.0619ZM189.234 30.3599C189.234 30.6479 189.27 30.9119 189.342 31.1519C189.414 31.3919 189.516 31.6319 189.648 31.8719C189.792 32.1119 189.972 32.3639 190.188 32.6279C190.404 32.8799 190.656 33.1739 190.944 33.5099C191.232 33.3179 191.502 33.1079 191.754 32.8799C192.018 32.6399 192.252 32.3879 192.456 32.1239C192.66 31.8599 192.822 31.5839 192.942 31.2959C193.062 31.0079 193.122 30.7079 193.122 30.3959C193.122 29.8919 192.99 29.5019 192.726 29.2259C192.474 28.9499 191.982 28.8119 191.25 28.8119C190.578 28.8119 190.074 28.9499 189.738 29.2259C189.402 29.5019 189.234 29.8799 189.234 30.3599ZM209.407 33.3479C209.203 33.2999 208.921 33.2519 208.561 33.2039C208.201 33.1439 207.835 33.1139 207.463 33.1139C206.923 33.1139 206.479 33.2219 206.131 33.4379C205.795 33.6539 205.531 33.9359 205.339 34.2839C205.147 34.6199 205.015 34.9979 204.943 35.4179C204.871 35.8259 204.835 36.2279 204.835 36.6239C204.835 37.2359 204.913 37.7639 205.069 38.2079C205.225 38.6399 205.429 38.9939 205.681 39.2699C205.945 39.5459 206.245 39.7499 206.581 39.8819C206.917 40.0019 207.271 40.0619 207.643 40.0619C207.895 40.0619 208.135 40.0499 208.363 40.0259C208.603 39.9899 208.819 39.9539 209.011 39.9179C209.215 39.8699 209.407 39.8159 209.587 39.7559L209.875 40.9619C209.623 41.0339 209.389 41.0939 209.173 41.1419C208.957 41.1899 208.699 41.2319 208.399 41.2679C208.111 41.3039 207.799 41.3219 207.463 41.3219C206.803 41.3219 206.215 41.2379 205.699 41.0699C205.183 40.9019 204.745 40.6319 204.385 40.2599C204.037 39.8879 203.767 39.4019 203.575 38.8019C203.395 38.2019 203.305 37.4699 203.305 36.6059C203.305 35.7659 203.419 35.0459 203.647 34.4459C203.887 33.8339 204.199 33.3419 204.583 32.9699C204.967 32.5859 205.405 32.3039 205.897 32.1239C206.401 31.9439 206.923 31.8539 207.463 31.8539C207.751 31.8539 208.027 31.8719 208.291 31.9079C208.567 31.9319 208.807 31.9619 209.011 31.9979C209.251 32.0459 209.479 32.0939 209.695 32.1419L209.407 33.3479ZM212.464 36.6059C212.464 37.7699 212.722 38.6399 213.238 39.2159C213.766 39.7799 214.474 40.0619 215.362 40.0619C216.238 40.0619 216.922 39.7799 217.414 39.2159C217.906 38.6519 218.152 37.8059 218.152 36.6779C218.152 35.4779 217.888 34.5839 217.36 33.9959C216.844 33.4079 216.136 33.1139 215.236 33.1139C214.336 33.1139 213.646 33.4079 213.166 33.9959C212.698 34.5719 212.464 35.4419 212.464 36.6059ZM210.934 36.5879C210.934 35.6759 211.078 34.9199 211.366 34.3199C211.654 33.7079 212.02 33.2219 212.464 32.8619C212.908 32.4899 213.382 32.2319 213.886 32.0879C214.402 31.9319 214.888 31.8539 215.344 31.8539C215.776 31.8539 216.244 31.9259 216.748 32.0699C217.264 32.2019 217.738 32.4479 218.17 32.8079C218.602 33.1559 218.962 33.6299 219.25 34.2299C219.538 34.8179 219.682 35.5679 219.682 36.4799C219.682 37.4279 219.532 38.2139 219.232 38.8379C218.944 39.4619 218.578 39.9599 218.134 40.3319C217.69 40.6919 217.21 40.9439 216.694 41.0879C216.178 41.2439 215.698 41.3219 215.254 41.3219C214.798 41.3219 214.318 41.2499 213.814 41.1059C213.31 40.9619 212.842 40.7159 212.41 40.3679C211.99 40.0079 211.636 39.5219 211.348 38.9099C211.072 38.2979 210.934 37.5239 210.934 36.5879ZM221.791 33.6719C221.791 33.2639 221.755 32.7719 221.683 32.1959L223.033 32.0159L223.231 33.1499C223.555 32.9099 223.873 32.6999 224.185 32.5199C224.497 32.3399 224.833 32.1839 225.193 32.0519C225.553 31.9199 225.919 31.8539 226.291 31.8539C226.891 31.8539 227.365 31.9619 227.713 32.1779C228.061 32.3819 228.319 32.7359 228.487 33.2399C228.979 32.8919 229.489 32.5739 230.017 32.2859C230.557 31.9979 231.115 31.8539 231.691 31.8539C232.135 31.8539 232.513 31.9139 232.825 32.0339C233.137 32.1419 233.389 32.3279 233.581 32.5919C233.773 32.8559 233.911 33.2039 233.995 33.6359C234.079 34.0679 234.121 34.6079 234.121 35.2559V41.0879H232.681V35.4179C232.681 35.0579 232.675 34.7399 232.663 34.4639C232.651 34.1759 232.609 33.9359 232.537 33.7439C232.465 33.5399 232.345 33.3839 232.177 33.2759C232.021 33.1679 231.793 33.1139 231.493 33.1139C231.217 33.1139 230.953 33.1559 230.701 33.2399C230.461 33.3119 230.209 33.4199 229.945 33.5639C229.681 33.7079 229.273 34.0019 228.721 34.4459V41.0879H227.281V35.4179C227.281 35.0579 227.275 34.7399 227.263 34.4639C227.251 34.1759 227.209 33.9359 227.137 33.7439C227.065 33.5399 226.945 33.3839 226.777 33.2759C226.621 33.1679 226.393 33.1139 226.093 33.1139C225.781 33.1139 225.457 33.1799 225.121 33.3119C224.785 33.4439 224.467 33.5999 224.167 33.7799C223.867 33.9599 223.555 34.1699 223.231 34.4099V41.0879H221.791V33.6719ZM236.68 34.1219C236.68 33.6899 236.65 33.0479 236.59 32.1959L237.922 32.0159L238.084 32.9879C238.324 32.7839 238.57 32.6039 238.822 32.4479C239.086 32.2799 239.368 32.1419 239.668 32.0339C239.98 31.9139 240.31 31.8539 240.658 31.8539C241.15 31.8539 241.612 31.9379 242.044 32.1059C242.488 32.2739 242.872 32.5439 243.196 32.9159C243.532 33.2879 243.796 33.7739 243.988 34.3739C244.18 34.9619 244.276 35.6879 244.276 36.5519C244.276 37.4279 244.144 38.1719 243.88 38.7839C243.628 39.3839 243.292 39.8759 242.872 40.2599C242.464 40.6319 241.996 40.9019 241.468 41.0699C240.952 41.2379 240.424 41.3219 239.884 41.3219C239.308 41.3099 238.72 41.2379 238.12 41.1059V45.0119L236.68 45.1919V34.1219ZM239.884 40.0619C240.388 40.0619 240.82 39.9719 241.18 39.7919C241.54 39.6119 241.834 39.3659 242.062 39.0539C242.302 38.7299 242.476 38.3639 242.584 37.9559C242.692 37.5359 242.746 37.0919 242.746 36.6239C242.746 36.2039 242.704 35.7839 242.62 35.3639C242.548 34.9439 242.422 34.5719 242.242 34.2479C242.074 33.9119 241.846 33.6419 241.558 33.4379C241.27 33.2219 240.916 33.1139 240.496 33.1139C240.184 33.1139 239.89 33.1739 239.614 33.2939C239.338 33.4019 239.074 33.5399 238.822 33.7079C238.582 33.8639 238.348 34.0439 238.12 34.2479V39.7739C238.252 39.8219 238.396 39.8699 238.552 39.9179C238.72 39.9539 238.912 39.9899 239.128 40.0259C239.356 40.0499 239.608 40.0619 239.884 40.0619ZM246.383 27.6059L247.823 27.4439V41.0879H246.383V27.6059ZM257.104 40.8719C256.828 40.9559 256.54 41.0279 256.24 41.0879C255.952 41.1479 255.628 41.2019 255.268 41.2499C254.92 41.2979 254.554 41.3219 254.17 41.3219C253.57 41.3219 253.012 41.2379 252.496 41.0699C251.98 40.9019 251.53 40.6319 251.146 40.2599C250.762 39.8879 250.456 39.4079 250.228 38.8199C250.012 38.2199 249.904 37.4879 249.904 36.6239C249.904 35.8439 250.012 35.1599 250.228 34.5719C250.444 33.9719 250.738 33.4739 251.11 33.0779C251.494 32.6699 251.938 32.3639 252.442 32.1599C252.958 31.9559 253.516 31.8539 254.116 31.8539C254.704 31.8539 255.214 31.9679 255.646 32.1959C256.078 32.4239 256.432 32.7359 256.708 33.1319C256.996 33.5159 257.206 33.9719 257.338 34.4999C257.482 35.0159 257.554 35.5619 257.554 36.1379L257.284 36.9299H251.47C251.47 37.3019 251.518 37.6739 251.614 38.0459C251.71 38.4179 251.872 38.7539 252.1 39.0539C252.34 39.3539 252.646 39.5999 253.018 39.7919C253.402 39.9719 253.876 40.0619 254.44 40.0619C254.8 40.0619 255.13 40.0439 255.43 40.0079C255.73 39.9599 255.988 39.9119 256.204 39.8639C256.432 39.8039 256.642 39.7379 256.834 39.6659L257.104 40.8719ZM256.06 35.7779C256.06 35.6939 256.042 35.5079 256.006 35.2199C255.97 34.9319 255.886 34.6319 255.754 34.3199C255.622 34.0079 255.418 33.7319 255.142 33.4919C254.866 33.2399 254.5 33.1139 254.044 33.1139C253.54 33.1139 253.126 33.2219 252.802 33.4379C252.478 33.6419 252.22 33.8879 252.028 34.1759C251.836 34.4639 251.704 34.7579 251.632 35.0579C251.56 35.3579 251.524 35.5979 251.524 35.7779H256.06ZM261.62 29.3339V32.0339H264.23V33.2039H261.62V38.0099C261.62 38.4059 261.626 38.7359 261.638 38.9999C261.662 39.2639 261.704 39.4739 261.764 39.6299C261.824 39.7859 261.908 39.8999 262.016 39.9719C262.124 40.0319 262.262 40.0619 262.43 40.0619C262.886 40.0499 263.414 39.8819 264.014 39.5579L264.446 40.6559C264.05 40.9199 263.678 41.0939 263.33 41.1779C262.994 41.2739 262.658 41.3219 262.322 41.3219C261.53 41.3219 260.972 41.0999 260.648 40.6559C260.336 40.1999 260.18 39.4499 260.18 38.4059V33.2039H258.524V32.0339H260.18V29.5139L261.62 29.3339ZM272.696 40.8719C272.42 40.9559 272.132 41.0279 271.832 41.0879C271.544 41.1479 271.22 41.2019 270.86 41.2499C270.512 41.2979 270.146 41.3219 269.762 41.3219C269.162 41.3219 268.604 41.2379 268.088 41.0699C267.572 40.9019 267.122 40.6319 266.738 40.2599C266.354 39.8879 266.048 39.4079 265.82 38.8199C265.604 38.2199 265.496 37.4879 265.496 36.6239C265.496 35.8439 265.604 35.1599 265.82 34.5719C266.036 33.9719 266.33 33.4739 266.702 33.0779C267.086 32.6699 267.53 32.3639 268.034 32.1599C268.55 31.9559 269.108 31.8539 269.708 31.8539C270.296 31.8539 270.806 31.9679 271.238 32.1959C271.67 32.4239 272.024 32.7359 272.3 33.1319C272.588 33.5159 272.798 33.9719 272.93 34.4999C273.074 35.0159 273.146 35.5619 273.146 36.1379L272.876 36.9299H267.062C267.062 37.3019 267.11 37.6739 267.206 38.0459C267.302 38.4179 267.464 38.7539 267.692 39.0539C267.932 39.3539 268.238 39.5999 268.61 39.7919C268.994 39.9719 269.468 40.0619 270.032 40.0619C270.392 40.0619 270.722 40.0439 271.022 40.0079C271.322 39.9599 271.58 39.9119 271.796 39.8639C272.024 39.8039 272.234 39.7379 272.426 39.6659L272.696 40.8719ZM271.652 35.7779C271.652 35.6939 271.634 35.5079 271.598 35.2199C271.562 34.9319 271.478 34.6319 271.346 34.3199C271.214 34.0079 271.01 33.7319 270.734 33.4919C270.458 33.2399 270.092 33.1139 269.636 33.1139C269.132 33.1139 268.718 33.2219 268.394 33.4379C268.07 33.6419 267.812 33.8879 267.62 34.1759C267.428 34.4639 267.296 34.7579 267.224 35.0579C267.152 35.3579 267.116 35.5979 267.116 35.7779H271.652Z" fill="#F2F2F2"/>
<path d="M110.874 30.3307C110.586 30.2587 110.286 30.1927 109.974 30.1327C109.698 30.0727 109.38 30.0247 109.02 29.9887C108.672 29.9407 108.306 29.9167 107.922 29.9167C107.034 29.9167 106.398 30.0547 106.014 30.3307C105.63 30.5947 105.438 31.0087 105.438 31.5727C105.45 32.0167 105.612 32.3947 105.924 32.7067C106.236 33.0067 106.626 33.2887 107.094 33.5527C107.562 33.8047 108.072 34.0567 108.624 34.3087C109.188 34.5487 109.704 34.8307 110.172 35.1547C110.64 35.4667 111.03 35.8387 111.342 36.2707C111.666 36.6907 111.828 37.2067 111.828 37.8187C111.828 38.5267 111.672 39.0967 111.36 39.5287C111.06 39.9607 110.676 40.2967 110.208 40.5367C109.74 40.7767 109.224 40.9387 108.66 41.0227C108.108 41.1067 107.58 41.1487 107.076 41.1487C106.596 41.1487 106.158 41.1187 105.762 41.0587C105.366 40.9987 105.024 40.9327 104.736 40.8607C104.4 40.7767 104.094 40.6807 103.818 40.5727L104.178 39.1147C104.454 39.2347 104.748 39.3367 105.06 39.4207C105.336 39.4927 105.642 39.5587 105.978 39.6187C106.326 39.6787 106.692 39.7087 107.076 39.7087C107.544 39.7087 107.97 39.6787 108.354 39.6187C108.75 39.5587 109.092 39.4627 109.38 39.3307C109.668 39.1987 109.89 39.0247 110.046 38.8087C110.214 38.5927 110.298 38.3287 110.298 38.0167C110.286 37.5487 110.13 37.1707 109.83 36.8827C109.542 36.5827 109.152 36.3007 108.66 36.0367C108.18 35.7607 107.658 35.4967 107.094 35.2447C106.542 34.9927 106.032 34.7047 105.564 34.3807C105.096 34.0567 104.7 33.6727 104.376 33.2287C104.064 32.7847 103.908 32.2327 103.908 31.5727C103.908 31.1887 103.974 30.8107 104.106 30.4387C104.238 30.0667 104.46 29.7367 104.772 29.4487C105.096 29.1607 105.51 28.9267 106.014 28.7467C106.53 28.5667 107.166 28.4767 107.922 28.4767C108.354 28.4767 108.762 28.5007 109.146 28.5487C109.542 28.5847 109.884 28.6267 110.172 28.6747C110.508 28.7347 110.826 28.8007 111.126 28.8727L110.874 30.3307ZM119.196 39.9247H119.16C119.052 40.0087 118.896 40.1227 118.692 40.2667C118.488 40.3987 118.254 40.5307 117.99 40.6627C117.726 40.7947 117.432 40.9087 117.108 41.0047C116.796 41.1007 116.478 41.1487 116.154 41.1487C115.71 41.1487 115.332 41.0887 115.02 40.9687C114.708 40.8607 114.456 40.6747 114.264 40.4107C114.072 40.1467 113.934 39.7987 113.85 39.3667C113.766 38.9347 113.724 38.3947 113.724 37.7467V31.8607H115.164V37.5307C115.164 37.8907 115.17 38.2147 115.182 38.5027C115.194 38.7907 115.236 39.0367 115.308 39.2407C115.38 39.4447 115.494 39.6067 115.65 39.7267C115.818 39.8347 116.052 39.8887 116.352 39.8887C116.664 39.8887 116.988 39.8227 117.324 39.6907C117.66 39.5587 117.966 39.4087 118.242 39.2407C118.566 39.0487 118.884 38.8327 119.196 38.5927V31.8607H120.636V39.7447C120.648 40.1767 120.678 40.5667 120.726 40.9147L119.304 41.0587L119.196 39.9247ZM123.235 27.4327L124.675 27.2707V32.6347C124.939 32.4547 125.215 32.2987 125.503 32.1667C125.743 32.0467 126.013 31.9387 126.313 31.8427C126.613 31.7347 126.913 31.6807 127.213 31.6807C127.705 31.6807 128.167 31.7767 128.599 31.9687C129.043 32.1607 129.427 32.4487 129.751 32.8327C130.087 33.2167 130.351 33.7027 130.543 34.2907C130.735 34.8787 130.831 35.5747 130.831 36.3787C130.831 37.2667 130.705 38.0167 130.453 38.6287C130.213 39.2287 129.883 39.7147 129.463 40.0867C129.055 40.4587 128.587 40.7287 128.059 40.8967C127.531 41.0647 126.991 41.1487 126.439 41.1487C125.887 41.1487 125.407 41.1067 124.999 41.0227C124.603 40.9507 124.273 40.8667 124.009 40.7707C123.697 40.6507 123.439 40.5187 123.235 40.3747V27.4327ZM124.675 39.5827C124.831 39.6427 124.999 39.6967 125.179 39.7447C125.359 39.7807 125.551 39.8167 125.755 39.8527C125.971 39.8767 126.199 39.8887 126.439 39.8887C126.991 39.8887 127.453 39.8107 127.825 39.6547C128.197 39.4987 128.491 39.2707 128.707 38.9707C128.923 38.6707 129.073 38.3107 129.157 37.8907C129.253 37.4587 129.301 36.9787 129.301 36.4507C129.301 36.0307 129.253 35.6107 129.157 35.1907C129.073 34.7707 128.935 34.3987 128.743 34.0747C128.551 33.7387 128.311 33.4687 128.023 33.2647C127.747 33.0487 127.423 32.9407 127.051 32.9407C126.799 32.9407 126.535 32.9947 126.259 33.1027C125.983 33.1987 125.725 33.3127 125.485 33.4447C125.209 33.5887 124.939 33.7507 124.675 33.9307V39.5827ZM132.957 33.4987C132.957 33.0907 132.921 32.5987 132.849 32.0227L134.199 31.8427L134.397 32.9767C134.721 32.7367 135.039 32.5267 135.351 32.3467C135.663 32.1667 135.999 32.0107 136.359 31.8787C136.719 31.7467 137.085 31.6807 137.457 31.6807C138.057 31.6807 138.531 31.7887 138.879 32.0047C139.227 32.2087 139.485 32.5627 139.653 33.0667C140.145 32.7187 140.655 32.4007 141.183 32.1127C141.723 31.8247 142.281 31.6807 142.857 31.6807C143.301 31.6807 143.679 31.7407 143.991 31.8607C144.303 31.9687 144.555 32.1547 144.747 32.4187C144.939 32.6827 145.077 33.0307 145.161 33.4627C145.245 33.8947 145.287 34.4347 145.287 35.0827V40.9147H143.847V35.2447C143.847 34.8847 143.841 34.5667 143.829 34.2907C143.817 34.0027 143.775 33.7627 143.703 33.5707C143.631 33.3667 143.511 33.2107 143.343 33.1027C143.187 32.9947 142.959 32.9407 142.659 32.9407C142.383 32.9407 142.119 32.9827 141.867 33.0667C141.627 33.1387 141.375 33.2467 141.111 33.3907C140.847 33.5347 140.439 33.8287 139.887 34.2727V40.9147H138.447V35.2447C138.447 34.8847 138.441 34.5667 138.429 34.2907C138.417 34.0027 138.375 33.7627 138.303 33.5707C138.231 33.3667 138.111 33.2107 137.943 33.1027C137.787 32.9947 137.559 32.9407 137.259 32.9407C136.947 32.9407 136.623 33.0067 136.287 33.1387C135.951 33.2707 135.633 33.4267 135.333 33.6067C135.033 33.7867 134.721 33.9967 134.397 34.2367V40.9147H132.957V33.4987ZM147.827 31.8427L149.267 31.6807V40.9147H147.827V31.8427ZM147.593 29.2687C147.593 28.9927 147.683 28.7647 147.863 28.5847C148.055 28.3927 148.289 28.2967 148.565 28.2967C148.853 28.2967 149.093 28.3927 149.285 28.5847C149.489 28.7647 149.591 28.9927 149.591 29.2687C149.591 29.5447 149.489 29.7787 149.285 29.9707C149.093 30.1507 148.853 30.2407 148.565 30.2407C148.289 30.2407 148.055 30.1507 147.863 29.9707C147.683 29.7787 147.593 29.5447 147.593 29.2687ZM153.959 29.1607V31.8607H156.569V33.0307H153.959V37.8367C153.959 38.2327 153.965 38.5627 153.977 38.8267C154.001 39.0907 154.043 39.3007 154.103 39.4567C154.163 39.6127 154.247 39.7267 154.355 39.7987C154.463 39.8587 154.601 39.8887 154.769 39.8887C155.225 39.8767 155.753 39.7087 156.353 39.3847L156.785 40.4827C156.389 40.7467 156.017 40.9207 155.669 41.0047C155.333 41.1007 154.997 41.1487 154.661 41.1487C153.869 41.1487 153.311 40.9267 152.987 40.4827C152.675 40.0267 152.519 39.2767 152.519 38.2327V33.0307H150.863V31.8607H152.519V29.3407L153.959 29.1607ZM172.963 41.2927C172.543 40.9687 172.117 40.6267 171.685 40.2667C171.265 39.9067 170.839 39.5347 170.407 39.1507C169.843 39.7387 169.183 40.2187 168.427 40.5907C167.683 40.9627 166.825 41.1487 165.853 41.1487C165.325 41.1487 164.839 41.0827 164.395 40.9507C163.951 40.8187 163.567 40.6267 163.243 40.3747C162.919 40.1107 162.661 39.7807 162.469 39.3847C162.289 38.9887 162.199 38.5267 162.199 37.9987C162.199 37.4707 162.301 37.0027 162.505 36.5947C162.721 36.1747 162.985 35.8027 163.297 35.4787C163.609 35.1547 163.939 34.8727 164.287 34.6327C164.635 34.3807 164.953 34.1647 165.241 33.9847C165.025 33.7207 164.797 33.4507 164.557 33.1747C164.317 32.8987 164.095 32.6107 163.891 32.3107C163.699 31.9987 163.537 31.6687 163.405 31.3207C163.285 30.9727 163.225 30.5947 163.225 30.1867C163.225 29.8507 163.285 29.5147 163.405 29.1787C163.537 28.8427 163.735 28.5427 163.999 28.2787C164.275 28.0147 164.629 27.7987 165.061 27.6307C165.505 27.4627 166.045 27.3787 166.681 27.3787C167.329 27.3787 167.863 27.4567 168.283 27.6127C168.715 27.7567 169.057 27.9547 169.309 28.2067C169.561 28.4587 169.735 28.7587 169.831 29.1067C169.939 29.4427 169.993 29.8027 169.993 30.1867C169.993 30.6187 169.903 31.0327 169.723 31.4287C169.543 31.8127 169.309 32.1727 169.021 32.5087C168.745 32.8447 168.439 33.1507 168.103 33.4267C167.767 33.7027 167.443 33.9427 167.131 34.1467C167.707 34.7587 168.247 35.3227 168.751 35.8387C169.267 36.3427 169.765 36.8167 170.245 37.2607C170.569 36.7807 170.851 36.2767 171.091 35.7487C171.331 35.2207 171.535 34.7047 171.703 34.2007L172.891 34.5967C172.723 35.1607 172.501 35.7487 172.225 36.3607C171.961 36.9727 171.625 37.5667 171.217 38.1427C171.661 38.5387 172.087 38.9227 172.495 39.2947C172.915 39.6547 173.335 40.0267 173.755 40.4107L172.963 41.2927ZM165.853 39.8887C166.573 39.8887 167.227 39.7447 167.815 39.4567C168.415 39.1567 168.949 38.7607 169.417 38.2687C168.817 37.7287 168.229 37.1767 167.653 36.6127C167.089 36.0487 166.555 35.4787 166.051 34.9027C165.751 35.1067 165.457 35.3167 165.169 35.5327C164.881 35.7487 164.623 35.9827 164.395 36.2347C164.167 36.4867 163.981 36.7627 163.837 37.0627C163.705 37.3627 163.639 37.6927 163.639 38.0527C163.639 38.2687 163.681 38.4907 163.765 38.7187C163.861 38.9347 163.999 39.1327 164.179 39.3127C164.371 39.4807 164.605 39.6187 164.881 39.7267C165.157 39.8347 165.481 39.8887 165.853 39.8887ZM164.665 30.1867C164.665 30.4747 164.701 30.7387 164.773 30.9787C164.845 31.2187 164.947 31.4587 165.079 31.6987C165.223 31.9387 165.403 32.1907 165.619 32.4547C165.835 32.7067 166.087 33.0007 166.375 33.3367C166.663 33.1447 166.933 32.9347 167.185 32.7067C167.449 32.4667 167.683 32.2147 167.887 31.9507C168.091 31.6867 168.253 31.4107 168.373 31.1227C168.493 30.8347 168.553 30.5347 168.553 30.2227C168.553 29.7187 168.421 29.3287 168.157 29.0527C167.905 28.7767 167.413 28.6387 166.681 28.6387C166.009 28.6387 165.505 28.7767 165.169 29.0527C164.833 29.3287 164.665 29.7067 164.665 30.1867ZM184.838 33.1747C184.634 33.1267 184.352 33.0787 183.992 33.0307C183.632 32.9707 183.266 32.9407 182.894 32.9407C182.354 32.9407 181.91 33.0487 181.562 33.2647C181.226 33.4807 180.962 33.7627 180.77 34.1107C180.578 34.4467 180.446 34.8247 180.374 35.2447C180.302 35.6527 180.266 36.0547 180.266 36.4507C180.266 37.0627 180.344 37.5907 180.5 38.0347C180.656 38.4667 180.86 38.8207 181.112 39.0967C181.376 39.3727 181.676 39.5767 182.012 39.7087C182.348 39.8287 182.702 39.8887 183.074 39.8887C183.326 39.8887 183.566 39.8767 183.794 39.8527C184.034 39.8167 184.25 39.7807 184.442 39.7447C184.646 39.6967 184.838 39.6427 185.018 39.5827L185.306 40.7887C185.054 40.8607 184.82 40.9207 184.604 40.9687C184.388 41.0167 184.13 41.0587 183.83 41.0947C183.542 41.1307 183.23 41.1487 182.894 41.1487C182.234 41.1487 181.646 41.0647 181.13 40.8967C180.614 40.7287 180.176 40.4587 179.816 40.0867C179.468 39.7147 179.198 39.2287 179.006 38.6287C178.826 38.0287 178.736 37.2967 178.736 36.4327C178.736 35.5927 178.85 34.8727 179.078 34.2727C179.318 33.6607 179.63 33.1687 180.014 32.7967C180.398 32.4127 180.836 32.1307 181.328 31.9507C181.832 31.7707 182.354 31.6807 182.894 31.6807C183.182 31.6807 183.458 31.6987 183.722 31.7347C183.998 31.7587 184.238 31.7887 184.442 31.8247C184.682 31.8727 184.91 31.9207 185.126 31.9687L184.838 33.1747ZM187.894 36.4327C187.894 37.5967 188.152 38.4667 188.668 39.0427C189.196 39.6067 189.904 39.8887 190.792 39.8887C191.668 39.8887 192.352 39.6067 192.844 39.0427C193.336 38.4787 193.582 37.6327 193.582 36.5047C193.582 35.3047 193.318 34.4107 192.79 33.8227C192.274 33.2347 191.566 32.9407 190.666 32.9407C189.766 32.9407 189.076 33.2347 188.596 33.8227C188.128 34.3987 187.894 35.2687 187.894 36.4327ZM186.364 36.4147C186.364 35.5027 186.508 34.7467 186.796 34.1467C187.084 33.5347 187.45 33.0487 187.894 32.6887C188.338 32.3167 188.812 32.0587 189.316 31.9147C189.832 31.7587 190.318 31.6807 190.774 31.6807C191.206 31.6807 191.674 31.7527 192.178 31.8967C192.694 32.0287 193.168 32.2747 193.6 32.6347C194.032 32.9827 194.392 33.4567 194.68 34.0567C194.968 34.6447 195.112 35.3947 195.112 36.3067C195.112 37.2547 194.962 38.0407 194.662 38.6647C194.374 39.2887 194.008 39.7867 193.564 40.1587C193.12 40.5187 192.64 40.7707 192.124 40.9147C191.608 41.0707 191.128 41.1487 190.684 41.1487C190.228 41.1487 189.748 41.0767 189.244 40.9327C188.74 40.7887 188.272 40.5427 187.84 40.1947C187.42 39.8347 187.066 39.3487 186.778 38.7367C186.502 38.1247 186.364 37.3507 186.364 36.4147ZM197.222 33.4987C197.222 33.0907 197.186 32.5987 197.114 32.0227L198.464 31.8427L198.662 32.9767C198.986 32.7367 199.304 32.5267 199.616 32.3467C199.928 32.1667 200.264 32.0107 200.624 31.8787C200.984 31.7467 201.35 31.6807 201.722 31.6807C202.322 31.6807 202.796 31.7887 203.144 32.0047C203.492 32.2087 203.75 32.5627 203.918 33.0667C204.41 32.7187 204.92 32.4007 205.448 32.1127C205.988 31.8247 206.546 31.6807 207.122 31.6807C207.566 31.6807 207.944 31.7407 208.256 31.8607C208.568 31.9687 208.82 32.1547 209.012 32.4187C209.204 32.6827 209.342 33.0307 209.426 33.4627C209.51 33.8947 209.552 34.4347 209.552 35.0827V40.9147H208.112V35.2447C208.112 34.8847 208.106 34.5667 208.094 34.2907C208.082 34.0027 208.04 33.7627 207.968 33.5707C207.896 33.3667 207.776 33.2107 207.608 33.1027C207.452 32.9947 207.224 32.9407 206.924 32.9407C206.648 32.9407 206.384 32.9827 206.132 33.0667C205.892 33.1387 205.64 33.2467 205.376 33.3907C205.112 33.5347 204.704 33.8287 204.152 34.2727V40.9147H202.712V35.2447C202.712 34.8847 202.706 34.5667 202.694 34.2907C202.682 34.0027 202.64 33.7627 202.568 33.5707C202.496 33.3667 202.376 33.2107 202.208 33.1027C202.052 32.9947 201.824 32.9407 201.524 32.9407C201.212 32.9407 200.888 33.0067 200.552 33.1387C200.216 33.2707 199.898 33.4267 199.598 33.6067C199.298 33.7867 198.986 33.9967 198.662 34.2367V40.9147H197.222V33.4987ZM212.111 33.9487C212.111 33.5167 212.081 32.8747 212.021 32.0227L213.353 31.8427L213.515 32.8147C213.755 32.6107 214.001 32.4307 214.253 32.2747C214.517 32.1067 214.799 31.9687 215.099 31.8607C215.411 31.7407 215.741 31.6807 216.089 31.6807C216.581 31.6807 217.043 31.7647 217.475 31.9327C217.919 32.1007 218.303 32.3707 218.627 32.7427C218.963 33.1147 219.227 33.6007 219.419 34.2007C219.611 34.7887 219.707 35.5147 219.707 36.3787C219.707 37.2547 219.575 37.9987 219.311 38.6107C219.059 39.2107 218.723 39.7027 218.303 40.0867C217.895 40.4587 217.427 40.7287 216.899 40.8967C216.383 41.0647 215.855 41.1487 215.315 41.1487C214.739 41.1367 214.151 41.0647 213.551 40.9327V44.8387L212.111 45.0187V33.9487ZM215.315 39.8887C215.819 39.8887 216.251 39.7987 216.611 39.6187C216.971 39.4387 217.265 39.1927 217.493 38.8807C217.733 38.5567 217.907 38.1907 218.015 37.7827C218.123 37.3627 218.177 36.9187 218.177 36.4507C218.177 36.0307 218.135 35.6107 218.051 35.1907C217.979 34.7707 217.853 34.3987 217.673 34.0747C217.505 33.7387 217.277 33.4687 216.989 33.2647C216.701 33.0487 216.347 32.9407 215.927 32.9407C215.615 32.9407 215.321 33.0007 215.045 33.1207C214.769 33.2287 214.505 33.3667 214.253 33.5347C214.013 33.6907 213.779 33.8707 213.551 34.0747V39.6007C213.683 39.6487 213.827 39.6967 213.983 39.7447C214.151 39.7807 214.343 39.8167 214.559 39.8527C214.787 39.8767 215.039 39.8887 215.315 39.8887ZM221.814 27.4327L223.254 27.2707V40.9147H221.814V27.4327ZM232.535 40.6987C232.259 40.7827 231.971 40.8547 231.671 40.9147C231.383 40.9747 231.059 41.0287 230.699 41.0767C230.351 41.1247 229.985 41.1487 229.601 41.1487C229.001 41.1487 228.443 41.0647 227.927 40.8967C227.411 40.7287 226.961 40.4587 226.577 40.0867C226.193 39.7147 225.887 39.2347 225.659 38.6467C225.443 38.0467 225.335 37.3147 225.335 36.4507C225.335 35.6707 225.443 34.9867 225.659 34.3987C225.875 33.7987 226.169 33.3007 226.541 32.9047C226.925 32.4967 227.369 32.1907 227.873 31.9867C228.389 31.7827 228.947 31.6807 229.547 31.6807C230.135 31.6807 230.645 31.7947 231.077 32.0227C231.509 32.2507 231.863 32.5627 232.139 32.9587C232.427 33.3427 232.637 33.7987 232.769 34.3267C232.913 34.8427 232.985 35.3887 232.985 35.9647L232.715 36.7567H226.901C226.901 37.1287 226.949 37.5007 227.045 37.8727C227.141 38.2447 227.303 38.5807 227.531 38.8807C227.771 39.1807 228.077 39.4267 228.449 39.6187C228.833 39.7987 229.307 39.8887 229.871 39.8887C230.231 39.8887 230.561 39.8707 230.861 39.8347C231.161 39.7867 231.419 39.7387 231.635 39.6907C231.863 39.6307 232.073 39.5647 232.265 39.4927L232.535 40.6987ZM231.491 35.6047C231.491 35.5207 231.473 35.3347 231.437 35.0467C231.401 34.7587 231.317 34.4587 231.185 34.1467C231.053 33.8347 230.849 33.5587 230.573 33.3187C230.297 33.0667 229.931 32.9407 229.475 32.9407C228.971 32.9407 228.557 33.0487 228.233 33.2647C227.909 33.4687 227.651 33.7147 227.459 34.0027C227.267 34.2907 227.135 34.5847 227.063 34.8847C226.991 35.1847 226.955 35.4247 226.955 35.6047H231.491ZM237.05 29.1607V31.8607H239.66V33.0307H237.05V37.8367C237.05 38.2327 237.056 38.5627 237.068 38.8267C237.092 39.0907 237.134 39.3007 237.194 39.4567C237.254 39.6127 237.338 39.7267 237.446 39.7987C237.554 39.8587 237.692 39.8887 237.86 39.8887C238.316 39.8767 238.844 39.7087 239.444 39.3847L239.876 40.4827C239.48 40.7467 239.108 40.9207 238.76 41.0047C238.424 41.1007 238.088 41.1487 237.752 41.1487C236.96 41.1487 236.402 40.9267 236.078 40.4827C235.766 40.0267 235.61 39.2767 235.61 38.2327V33.0307H233.954V31.8607H235.61V29.3407L237.05 29.1607ZM248.127 40.6987C247.851 40.7827 247.563 40.8547 247.263 40.9147C246.975 40.9747 246.651 41.0287 246.291 41.0767C245.943 41.1247 245.577 41.1487 245.193 41.1487C244.593 41.1487 244.035 41.0647 243.519 40.8967C243.003 40.7287 242.553 40.4587 242.169 40.0867C241.785 39.7147 241.479 39.2347 241.251 38.6467C241.035 38.0467 240.927 37.3147 240.927 36.4507C240.927 35.6707 241.035 34.9867 241.251 34.3987C241.467 33.7987 241.761 33.3007 242.133 32.9047C242.517 32.4967 242.961 32.1907 243.465 31.9867C243.981 31.7827 244.539 31.6807 245.139 31.6807C245.727 31.6807 246.237 31.7947 246.669 32.0227C247.101 32.2507 247.455 32.5627 247.731 32.9587C248.019 33.3427 248.229 33.7987 248.361 34.3267C248.505 34.8427 248.577 35.3887 248.577 35.9647L248.307 36.7567H242.493C242.493 37.1287 242.541 37.5007 242.637 37.8727C242.733 38.2447 242.895 38.5807 243.123 38.8807C243.363 39.1807 243.669 39.4267 244.041 39.6187C244.425 39.7987 244.899 39.8887 245.463 39.8887C245.823 39.8887 246.153 39.8707 246.453 39.8347C246.753 39.7867 247.011 39.7387 247.227 39.6907C247.455 39.6307 247.665 39.5647 247.857 39.4927L248.127 40.6987ZM247.083 35.6047C247.083 35.5207 247.065 35.3347 247.029 35.0467C246.993 34.7587 246.909 34.4587 246.777 34.1467C246.645 33.8347 246.441 33.5587 246.165 33.3187C245.889 33.0667 245.523 32.9407 245.067 32.9407C244.563 32.9407 244.149 33.0487 243.825 33.2647C243.501 33.4687 243.243 33.7147 243.051 34.0027C242.859 34.2907 242.727 34.5847 242.655 34.8847C242.583 35.1847 242.547 35.4247 242.547 35.6047H247.083Z" fill="#F2F2F2"/>
<rect x="1" y="2" width="341" height="53" rx="7" fill="#1DD06D" stroke="#1DD06D" stroke-width="2"/>
<path d="M101.265 22.2249C100.881 22.1289 100.481 22.0409 100.065 21.9609C99.6969 21.8809 99.2729 21.8169 98.7929 21.7689C98.3289 21.7049 97.8409 21.6729 97.3289 21.6729C96.1449 21.6729 95.2969 21.8569 94.7849 22.2249C94.2729 22.5769 94.0169 23.1289 94.0169 23.8809C94.0329 24.4729 94.2489 24.9769 94.6649 25.3929C95.0809 25.7929 95.6009 26.1689 96.2249 26.5209C96.8489 26.8569 97.5289 27.1929 98.2649 27.5289C99.0169 27.8489 99.7049 28.2249 100.329 28.6569C100.953 29.0729 101.473 29.5689 101.889 30.1449C102.321 30.7049 102.537 31.3929 102.537 32.2089C102.537 33.1529 102.329 33.9129 101.913 34.4889C101.513 35.0649 101.001 35.5129 100.377 35.8329C99.7529 36.1529 99.0649 36.3689 98.3129 36.4809C97.5769 36.5929 96.8729 36.6489 96.2009 36.6489C95.5609 36.6489 94.9769 36.6089 94.4489 36.5289C93.9209 36.4489 93.4649 36.3609 93.0809 36.2649C92.6329 36.1529 92.2249 36.0249 91.8569 35.8809L92.3369 33.9369C92.7049 34.0969 93.0969 34.2329 93.5129 34.3449C93.8809 34.4409 94.2889 34.5289 94.7369 34.6089C95.2009 34.6889 95.6889 34.7289 96.2009 34.7289C96.8249 34.7289 97.3929 34.6889 97.9049 34.6089C98.4329 34.5289 98.8889 34.4009 99.2729 34.2249C99.6569 34.0489 99.9529 33.8169 100.161 33.5289C100.385 33.2409 100.497 32.8889 100.497 32.4729C100.481 31.8489 100.273 31.3449 99.8729 30.9609C99.4889 30.5609 98.9689 30.1849 98.3129 29.8329C97.6729 29.4649 96.9769 29.1129 96.2249 28.7769C95.4889 28.4409 94.8089 28.0569 94.1849 27.6249C93.5609 27.1929 93.0329 26.6809 92.6009 26.0889C92.1849 25.4969 91.9769 24.7609 91.9769 23.8809C91.9769 23.3689 92.0649 22.8649 92.2409 22.3689C92.4169 21.8729 92.7129 21.4329 93.1289 21.0489C93.5609 20.6649 94.1129 20.3529 94.7849 20.1129C95.4729 19.8729 96.3209 19.7529 97.3289 19.7529C97.9049 19.7529 98.4489 19.7849 98.9609 19.8489C99.4889 19.8969 99.9449 19.9529 100.329 20.0169C100.777 20.0969 101.201 20.1849 101.601 20.2809L101.265 22.2249ZM105.138 18.3609L107.058 18.1449V25.7769C107.538 25.4569 108.01 25.1769 108.474 24.9369C108.954 24.6969 109.442 24.4889 109.938 24.3129C110.434 24.1209 110.914 24.0249 111.378 24.0249C112.034 24.0249 112.578 24.1049 113.01 24.2649C113.458 24.4089 113.818 24.6569 114.09 25.0089C114.362 25.3609 114.554 25.8249 114.666 26.4009C114.794 26.9769 114.858 27.6969 114.858 28.5609V36.3369H112.938V28.7769C112.938 28.2969 112.93 27.8729 112.914 27.5049C112.898 27.1209 112.826 26.8009 112.698 26.5449C112.586 26.2729 112.402 26.0649 112.146 25.9209C111.906 25.7769 111.562 25.7049 111.114 25.7049C110.698 25.7049 110.25 25.8009 109.77 25.9929C109.29 26.1689 108.834 26.3769 108.402 26.6169C107.97 26.8569 107.522 27.1369 107.058 27.4569V36.3369H105.138V18.3609ZM124.959 30.7929C124.639 30.8089 124.335 30.8249 124.047 30.8409C123.759 30.8569 123.471 30.8809 123.183 30.9129C122.911 30.9289 122.663 30.9529 122.439 30.9849C121.287 31.1289 120.471 31.3849 119.991 31.7529C119.511 32.1049 119.271 32.6169 119.271 33.2889C119.271 33.8489 119.439 34.2729 119.775 34.5609C120.127 34.8329 120.583 34.9689 121.143 34.9689C121.911 34.9689 122.591 34.8409 123.183 34.5849C123.791 34.3129 124.383 33.9609 124.959 33.5289V30.7929ZM124.935 35.2089C124.183 35.6409 123.479 35.9929 122.823 36.2649C122.183 36.5209 121.487 36.6489 120.735 36.6489C119.663 36.6489 118.807 36.3929 118.167 35.8809C117.543 35.3529 117.231 34.4889 117.231 33.2889C117.231 32.6649 117.391 32.1209 117.711 31.6569C118.031 31.1929 118.447 30.8089 118.959 30.5049C119.487 30.1849 120.079 29.9369 120.735 29.7609C121.391 29.5849 122.063 29.4729 122.751 29.4249C123.039 29.3929 123.415 29.3689 123.879 29.3529C124.343 29.3209 124.703 29.2969 124.959 29.2809C124.959 28.7209 124.943 28.2249 124.911 27.7929C124.879 27.3449 124.783 26.9689 124.623 26.6649C124.463 26.3449 124.223 26.1049 123.903 25.9449C123.599 25.7849 123.159 25.7049 122.583 25.7049C122.119 25.7049 121.671 25.7369 121.239 25.8009C120.807 25.8489 120.423 25.9049 120.087 25.9689C119.687 26.0489 119.319 26.1369 118.983 26.2329L118.599 24.5769C118.999 24.4809 119.431 24.3929 119.895 24.3129C120.295 24.2329 120.759 24.1689 121.287 24.1209C121.815 24.0569 122.383 24.0249 122.991 24.0249C123.807 24.0249 124.463 24.1449 124.959 24.3849C125.471 24.6249 125.863 24.9529 126.135 25.3689C126.423 25.7689 126.615 26.2329 126.711 26.7609C126.823 27.2729 126.879 27.8169 126.879 28.3929V34.1529C126.879 34.3769 126.879 34.6169 126.879 34.8729C126.895 35.1129 126.911 35.3529 126.927 35.5929C126.959 35.8329 126.991 36.0809 127.023 36.3369L125.175 36.5289L124.935 35.2089ZM130.287 26.2089C130.287 25.8409 130.247 25.2649 130.167 24.4809L131.943 24.2409L132.135 25.9929H132.159C132.447 25.6249 132.727 25.3049 132.999 25.0329C133.271 24.7609 133.551 24.5289 133.839 24.3369C134.143 24.1289 134.431 24.0249 134.703 24.0249C135.071 24.0089 135.583 24.0489 136.239 24.1449L135.807 25.9929C135.279 25.8969 134.911 25.8569 134.703 25.8729C134.431 25.8729 134.143 26.0009 133.839 26.2569C133.535 26.5129 133.271 26.7849 133.047 27.0729C132.759 27.4249 132.479 27.8249 132.207 28.2729V36.3369H130.287V26.2089ZM146.925 36.0489C146.557 36.1609 146.173 36.2569 145.773 36.3369C145.389 36.4169 144.957 36.4889 144.477 36.5529C144.013 36.6169 143.525 36.6489 143.013 36.6489C142.213 36.6489 141.469 36.5369 140.781 36.3129C140.093 36.0889 139.493 35.7289 138.981 35.2329C138.469 34.7369 138.061 34.0969 137.757 33.3129C137.469 32.5129 137.325 31.5369 137.325 30.3849C137.325 29.3449 137.469 28.4329 137.757 27.6489C138.045 26.8489 138.437 26.1849 138.933 25.6569C139.445 25.1129 140.037 24.7049 140.709 24.4329C141.397 24.1609 142.141 24.0249 142.941 24.0249C143.725 24.0249 144.405 24.1769 144.981 24.4809C145.557 24.7849 146.029 25.2009 146.397 25.7289C146.781 26.2409 147.061 26.8489 147.237 27.5529C147.429 28.2409 147.525 28.9689 147.525 29.7369L147.165 30.7929H139.413C139.413 31.2889 139.477 31.7849 139.605 32.2809C139.733 32.7769 139.949 33.2249 140.253 33.6249C140.573 34.0249 140.981 34.3529 141.477 34.6089C141.989 34.8489 142.621 34.9689 143.373 34.9689C143.853 34.9689 144.293 34.9449 144.693 34.8969C145.093 34.8329 145.437 34.7689 145.725 34.7049C146.029 34.6249 146.309 34.5369 146.565 34.4409L146.925 36.0489ZM145.533 29.2569C145.533 29.1449 145.509 28.8969 145.461 28.5129C145.413 28.1289 145.301 27.7289 145.125 27.3129C144.949 26.8969 144.677 26.5289 144.309 26.2089C143.941 25.8729 143.453 25.7049 142.845 25.7049C142.173 25.7049 141.621 25.8489 141.189 26.1369C140.757 26.4089 140.413 26.7369 140.157 27.1209C139.901 27.5049 139.725 27.8969 139.629 28.2969C139.533 28.6969 139.485 29.0169 139.485 29.2569H145.533ZM156.99 30.3609C156.99 31.9129 157.334 33.0729 158.022 33.8409C158.726 34.5929 159.67 34.9689 160.854 34.9689C162.022 34.9689 162.934 34.5929 163.59 33.8409C164.246 33.0889 164.574 31.9609 164.574 30.4569C164.574 28.8569 164.222 27.6649 163.518 26.8809C162.83 26.0969 161.886 25.7049 160.686 25.7049C159.486 25.7049 158.566 26.0969 157.926 26.8809C157.302 27.6489 156.99 28.8089 156.99 30.3609ZM154.95 30.3369C154.95 29.1209 155.142 28.1129 155.526 27.3129C155.91 26.4969 156.398 25.8489 156.99 25.3689C157.582 24.8729 158.214 24.5289 158.886 24.3369C159.574 24.1289 160.222 24.0249 160.83 24.0249C161.406 24.0249 162.03 24.1209 162.702 24.3129C163.39 24.4889 164.022 24.8169 164.598 25.2969C165.174 25.7609 165.654 26.3929 166.038 27.1929C166.422 27.9769 166.614 28.9769 166.614 30.1929C166.614 31.4569 166.414 32.5049 166.014 33.3369C165.63 34.1689 165.142 34.8329 164.55 35.3289C163.958 35.8089 163.318 36.1449 162.63 36.3369C161.942 36.5449 161.302 36.6489 160.71 36.6489C160.102 36.6489 159.462 36.5529 158.79 36.3609C158.118 36.1689 157.494 35.8409 156.918 35.3769C156.358 34.8969 155.886 34.2489 155.502 33.4329C155.134 32.6169 154.95 31.5849 154.95 30.3369ZM169.427 26.6649C169.443 26.3289 169.403 25.6009 169.307 24.4809L171.083 24.2409L171.347 25.7769C171.827 25.4569 172.299 25.1769 172.763 24.9369C173.243 24.6969 173.731 24.4889 174.227 24.3129C174.723 24.1209 175.203 24.0249 175.667 24.0249C176.323 24.0249 176.867 24.1049 177.299 24.2649C177.747 24.4089 178.107 24.6569 178.379 25.0089C178.651 25.3609 178.843 25.8249 178.955 26.4009C179.083 26.9769 179.147 27.6969 179.147 28.5609V36.3369H177.227V28.7769C177.227 28.2969 177.219 27.8729 177.203 27.5049C177.187 27.1209 177.115 26.8009 176.987 26.5449C176.875 26.2729 176.691 26.0649 176.435 25.9209C176.195 25.7769 175.851 25.7049 175.403 25.7049C174.987 25.7049 174.547 25.8009 174.083 25.9929C173.619 26.1689 173.163 26.3769 172.715 26.6169C172.267 26.8569 171.811 27.1369 171.347 27.4569V36.3369H169.427V26.6649ZM186.957 19.9689H188.997L192.165 34.4169H192.189L196.389 19.9689H198.933L203.085 34.4169H203.109L206.253 19.9689H208.293L204.525 36.3369H201.981L197.661 21.9129H197.637L193.293 36.3369H190.749L186.957 19.9689ZM210.724 18.3609L212.644 18.1449V25.7769C213.124 25.4569 213.596 25.1769 214.06 24.9369C214.54 24.6969 215.028 24.4889 215.524 24.3129C216.02 24.1209 216.5 24.0249 216.964 24.0249C217.62 24.0249 218.164 24.1049 218.596 24.2649C219.044 24.4089 219.404 24.6569 219.676 25.0089C219.948 25.3609 220.14 25.8249 220.252 26.4009C220.38 26.9769 220.444 27.6969 220.444 28.5609V36.3369H218.524V28.7769C218.524 28.2969 218.516 27.8729 218.5 27.5049C218.484 27.1209 218.412 26.8009 218.284 26.5449C218.172 26.2729 217.988 26.0649 217.732 25.9209C217.492 25.7769 217.148 25.7049 216.7 25.7049C216.284 25.7049 215.836 25.8009 215.356 25.9929C214.876 26.1689 214.42 26.3769 213.988 26.6169C213.556 26.8569 213.108 27.1369 212.644 27.4569V36.3369H210.724V18.3609ZM230.545 30.7929C230.225 30.8089 229.921 30.8249 229.633 30.8409C229.345 30.8569 229.057 30.8809 228.769 30.9129C228.497 30.9289 228.249 30.9529 228.025 30.9849C226.873 31.1289 226.057 31.3849 225.577 31.7529C225.097 32.1049 224.857 32.6169 224.857 33.2889C224.857 33.8489 225.025 34.2729 225.361 34.5609C225.713 34.8329 226.169 34.9689 226.729 34.9689C227.497 34.9689 228.177 34.8409 228.769 34.5849C229.377 34.3129 229.969 33.9609 230.545 33.5289V30.7929ZM230.521 35.2089C229.769 35.6409 229.065 35.9929 228.409 36.2649C227.769 36.5209 227.073 36.6489 226.321 36.6489C225.249 36.6489 224.393 36.3929 223.753 35.8809C223.129 35.3529 222.817 34.4889 222.817 33.2889C222.817 32.6649 222.977 32.1209 223.297 31.6569C223.617 31.1929 224.033 30.8089 224.545 30.5049C225.073 30.1849 225.665 29.9369 226.321 29.7609C226.977 29.5849 227.649 29.4729 228.337 29.4249C228.625 29.3929 229.001 29.3689 229.465 29.3529C229.929 29.3209 230.289 29.2969 230.545 29.2809C230.545 28.7209 230.529 28.2249 230.497 27.7929C230.465 27.3449 230.369 26.9689 230.209 26.6649C230.049 26.3449 229.809 26.1049 229.489 25.9449C229.185 25.7849 228.745 25.7049 228.169 25.7049C227.705 25.7049 227.257 25.7369 226.825 25.8009C226.393 25.8489 226.009 25.9049 225.673 25.9689C225.273 26.0489 224.905 26.1369 224.569 26.2329L224.185 24.5769C224.585 24.4809 225.017 24.3929 225.481 24.3129C225.881 24.2329 226.345 24.1689 226.873 24.1209C227.401 24.0569 227.969 24.0249 228.577 24.0249C229.393 24.0249 230.049 24.1449 230.545 24.3849C231.057 24.6249 231.449 24.9529 231.721 25.3689C232.009 25.7689 232.201 26.2329 232.297 26.7609C232.409 27.2729 232.465 27.8169 232.465 28.3929V34.1529C232.465 34.3769 232.465 34.6169 232.465 34.8729C232.481 35.1129 232.497 35.3529 232.513 35.5929C232.545 35.8329 232.577 36.0809 232.609 36.3369L230.761 36.5289L230.521 35.2089ZM238.657 20.6649V24.2649H242.137V25.8249H238.657V32.2329C238.657 32.7609 238.665 33.2009 238.681 33.5529C238.713 33.9049 238.769 34.1849 238.849 34.3929C238.929 34.6009 239.041 34.7529 239.185 34.8489C239.329 34.9289 239.513 34.9689 239.737 34.9689C240.345 34.9529 241.049 34.7289 241.849 34.2969L242.425 35.7609C241.897 36.1129 241.401 36.3449 240.937 36.4569C240.489 36.5849 240.041 36.6489 239.593 36.6489C238.537 36.6489 237.793 36.3529 237.361 35.7609C236.945 35.1529 236.737 34.1529 236.737 32.7609V25.8249H234.529V24.2649H236.737V20.9049L238.657 20.6649ZM251.119 26.2329C250.447 26.0249 249.847 25.8889 249.319 25.8249C248.807 25.7449 248.335 25.7049 247.903 25.7049C247.343 25.7049 246.871 25.8409 246.487 26.1129C246.119 26.3849 245.935 26.7369 245.935 27.1689C245.951 27.5529 246.119 27.8809 246.439 28.1529C246.759 28.4249 247.127 28.6729 247.543 28.8969C247.975 29.1049 248.447 29.3369 248.959 29.5929C249.487 29.8489 249.975 30.1369 250.423 30.4569C250.887 30.7769 251.263 31.1609 251.551 31.6089C251.839 32.0569 251.991 32.5929 252.007 33.2169C251.991 33.8889 251.839 34.4489 251.551 34.8969C251.279 35.3289 250.919 35.6809 250.471 35.9529C250.039 36.2089 249.567 36.3849 249.055 36.4809C248.543 36.5929 248.063 36.6489 247.615 36.6489C247.039 36.6489 246.439 36.6169 245.815 36.5529C245.207 36.4889 244.551 36.3529 243.847 36.1449L244.207 34.4169C244.927 34.6089 245.583 34.7529 246.175 34.8489C246.767 34.9289 247.255 34.9689 247.639 34.9689C247.927 34.9689 248.207 34.9369 248.479 34.8729C248.767 34.8089 249.023 34.7209 249.247 34.6089C249.471 34.4809 249.647 34.3209 249.775 34.1289C249.919 33.9369 249.991 33.7209 249.991 33.4809C249.975 33.0329 249.823 32.6569 249.535 32.3529C249.247 32.0329 248.871 31.7529 248.407 31.5129C247.959 31.2569 247.471 31.0089 246.943 30.7689C246.431 30.5129 245.943 30.2249 245.479 29.9049C245.031 29.5689 244.655 29.1769 244.351 28.7289C244.047 28.2649 243.895 27.6969 243.895 27.0249C243.895 26.5449 244.015 26.1209 244.255 25.7529C244.511 25.3689 244.831 25.0569 245.215 24.8169C245.615 24.5609 246.047 24.3689 246.511 24.2409C246.991 24.0969 247.455 24.0249 247.903 24.0249C248.367 24.0249 248.887 24.0649 249.463 24.1449C250.039 24.2089 250.703 24.3369 251.455 24.5289L251.119 26.2329ZM258.943 19.9689H261.439L267.055 36.3369H264.967L263.527 31.9689H256.879L255.415 36.3369H253.327L258.943 19.9689ZM262.879 30.0489L260.239 21.8889H260.167L257.503 30.0489H262.879ZM269.271 27.0489C269.271 26.4729 269.231 25.6169 269.151 24.4809L270.927 24.2409L271.143 25.5369C271.463 25.2649 271.791 25.0249 272.127 24.8169C272.479 24.5929 272.855 24.4089 273.255 24.2649C273.671 24.1049 274.111 24.0249 274.575 24.0249C275.231 24.0249 275.847 24.1369 276.423 24.3609C277.015 24.5849 277.527 24.9449 277.959 25.4409C278.407 25.9369 278.759 26.5849 279.015 27.3849C279.271 28.1689 279.399 29.1369 279.399 30.2889C279.399 31.4569 279.223 32.4489 278.871 33.2649C278.535 34.0649 278.087 34.7209 277.527 35.2329C276.983 35.7289 276.359 36.0889 275.655 36.3129C274.967 36.5369 274.263 36.6489 273.543 36.6489C272.775 36.6329 271.991 36.5369 271.191 36.3609V41.5689L269.271 41.8089V27.0489ZM273.543 34.9689C274.215 34.9689 274.791 34.8489 275.271 34.6089C275.751 34.3689 276.143 34.0409 276.447 33.6249C276.767 33.1929 276.999 32.7049 277.143 32.1609C277.287 31.6009 277.359 31.0089 277.359 30.3849C277.359 29.8249 277.303 29.2649 277.191 28.7049C277.095 28.1449 276.927 27.6489 276.687 27.2169C276.463 26.7689 276.159 26.4089 275.775 26.1369C275.391 25.8489 274.919 25.7049 274.359 25.7049C273.943 25.7049 273.551 25.7849 273.183 25.9449C272.815 26.0889 272.463 26.2729 272.127 26.4969C271.807 26.7049 271.495 26.9449 271.191 27.2169V34.5849C271.367 34.6489 271.559 34.7129 271.767 34.7769C271.991 34.8249 272.247 34.8729 272.535 34.9209C272.839 34.9529 273.175 34.9689 273.543 34.9689ZM282.232 27.0489C282.232 26.4729 282.192 25.6169 282.112 24.4809L283.888 24.2409L284.104 25.5369C284.424 25.2649 284.752 25.0249 285.088 24.8169C285.44 24.5929 285.816 24.4089 286.216 24.2649C286.632 24.1049 287.072 24.0249 287.536 24.0249C288.192 24.0249 288.808 24.1369 289.384 24.3609C289.976 24.5849 290.488 24.9449 290.92 25.4409C291.368 25.9369 291.72 26.5849 291.976 27.3849C292.232 28.1689 292.36 29.1369 292.36 30.2889C292.36 31.4569 292.184 32.4489 291.832 33.2649C291.496 34.0649 291.048 34.7209 290.488 35.2329C289.944 35.7289 289.32 36.0889 288.616 36.3129C287.928 36.5369 287.224 36.6489 286.504 36.6489C285.736 36.6329 284.952 36.5369 284.152 36.3609V41.5689L282.232 41.8089V27.0489ZM286.504 34.9689C287.176 34.9689 287.752 34.8489 288.232 34.6089C288.712 34.3689 289.104 34.0409 289.408 33.6249C289.728 33.1929 289.96 32.7049 290.104 32.1609C290.248 31.6009 290.32 31.0089 290.32 30.3849C290.32 29.8249 290.264 29.2649 290.152 28.7049C290.056 28.1449 289.888 27.6489 289.648 27.2169C289.424 26.7689 289.12 26.4089 288.736 26.1369C288.352 25.8489 287.88 25.7049 287.32 25.7049C286.904 25.7049 286.512 25.7849 286.144 25.9449C285.776 26.0889 285.424 26.2729 285.088 26.4969C284.768 26.7049 284.456 26.9449 284.152 27.2169V34.5849C284.328 34.6489 284.52 34.7129 284.728 34.7769C284.952 34.8249 285.208 34.8729 285.496 34.9209C285.8 34.9529 286.136 34.9689 286.504 34.9689Z" fill="white"/>
<path d="M74.9357 18.0995C73.6451 16.7944 72.1078 15.7598 70.4137 15.056C68.7195 14.3521 66.9024 13.9932 65.0682 14.0001C57.383 14.0001 51.1197 20.2708 51.1126 27.9691C51.1126 30.4348 51.7567 32.8334 52.9728 34.9572L51 42.199L58.3984 40.2568C60.4442 41.3746 62.7378 41.9594 65.0682 41.9575H65.0753C72.7623 41.9575 79.0239 35.6868 79.0309 27.9815C79.0325 26.1451 78.6713 24.3266 77.9682 22.6306C77.265 20.9346 76.2356 19.3947 74.9357 18.0995ZM65.0682 39.5924C62.9902 39.5907 60.9506 39.0308 59.1622 37.9709L58.7398 37.7171L54.3508 38.8698L55.5228 34.5818L55.2483 34.1394C54.0864 32.2894 53.472 30.1475 53.4761 27.9621C53.4761 21.5715 58.68 16.3582 65.0753 16.3582C66.5989 16.3555 68.1079 16.6548 69.5154 17.2389C70.9229 17.823 72.2011 18.6803 73.2762 19.7615C74.3548 20.8386 75.2099 22.1188 75.7922 23.5284C76.3746 24.9379 76.6726 26.449 76.6692 27.9744C76.6621 34.3879 71.4583 39.5924 65.0682 39.5924ZM71.4301 30.8965C71.0834 30.722 69.3711 29.8778 69.049 29.758C68.7287 29.6434 68.4947 29.5835 68.2659 29.9325C68.0318 30.2797 67.3631 31.071 67.1625 31.2984C66.9618 31.5328 66.7542 31.5592 66.4057 31.3865C66.059 31.2102 64.9345 30.8436 63.6041 29.6505C62.5657 28.7252 61.8706 27.5796 61.6629 27.2324C61.4623 26.8835 61.6436 26.6966 61.8178 26.5222C61.9709 26.3671 62.1645 26.1133 62.3387 25.9124C62.5147 25.7114 62.5728 25.5634 62.6872 25.3308C62.8016 25.0946 62.747 24.8937 62.6608 24.7192C62.5728 24.5447 61.8776 22.8228 61.5837 22.1284C61.3022 21.4428 61.0153 21.538 60.8006 21.5292C60.6 21.5169 60.3659 21.5169 60.1319 21.5169C59.9551 21.5214 59.7812 21.5624 59.621 21.6373C59.4608 21.7122 59.3178 21.8194 59.2009 21.9522C58.8806 22.3011 57.9848 23.1453 57.9848 24.8672C57.9848 26.5891 59.2343 28.2441 59.4103 28.4785C59.5828 28.7129 61.8636 32.236 65.3639 33.7517C66.191 34.113 66.8422 34.3262 67.3508 34.4884C68.1867 34.7562 68.9417 34.7157 69.5435 34.6293C70.2123 34.5271 71.6043 33.7834 71.8982 32.9674C72.1868 32.1496 72.1868 31.4517 72.0989 31.3054C72.0126 31.1574 71.7786 31.071 71.4301 30.8965Z" fill="white"/>
</svg>
