<svg width="270" height="46" viewBox="0 0 270 46" fill="none" xmlns="http://www.w3.org/2000/svg">
<path d="M23 0L28.1638 15.8926H44.8743L31.3552 25.7148L36.5191 41.6074L23 31.7852L9.48094 41.6074L14.6448 25.7148L1.1257 15.8926H17.8362L23 0Z" fill="#F2F2F2"/>
<path d="M79 0L84.1638 15.8926H100.874L87.3552 25.7148L92.5191 41.6074L79 31.7852L65.4809 41.6074L70.6448 25.7148L57.1257 15.8926H73.8362L79 0Z" fill="#F2F2F2"/>
<path d="M135 0L140.164 15.8926H156.874L143.355 25.7148L148.519 41.6074L135 31.7852L121.481 41.6074L126.645 25.7148L113.126 15.8926H129.836L135 0Z" fill="#F2F2F2"/>
<path d="M191 0L196.164 15.8926H212.874L199.355 25.7148L204.519 41.6074L191 31.7852L177.481 41.6074L182.645 25.7148L169.126 15.8926H185.836L191 0Z" fill="#F2F2F2"/>
<path d="M247 0L252.164 15.8926H268.874L255.355 25.7148L260.519 41.6074L247 31.7852L233.481 41.6074L238.645 25.7148L225.126 15.8926H241.836L247 0Z" fill="#F2F2F2"/>
</svg>
